SplineFontDB: 3.2
FontName: Nahidmono-short
FullName: Nahidmono-short
FamilyName: Nahidmono-short
Weight: Regular
Copyright: Copyright (c) 2003 by Bitstream, Inc. All Rights Reserved.\nDejaVu changes are in public domain\nChanges by Saber Rastikerdar are in public domain.\nNon-Arabic(Latin) glyphs and data in extended version are imported from Roboto font under the Apache License, Version 2.0.\nChanges by Erfan Kheyrollahi are in SIL OFL v1.1
Version: 0.3.0
ItalicAngle: 0
UnderlinePosition: -500
UnderlineWidth: 100
Ascent: 1638
Descent: 410
InvalidEm: 0
LayerCount: 2
Layer: 0 1 "Back" 1
Layer: 1 1 "Fore" 0
PreferredKerning: 4
XUID: [1021 502 1027637223 3637664]
UniqueID: 4054522
UseUniqueID: 1
FSType: 0
OS2Version: 1
OS2_WeightWidthSlopeOnly: 0
OS2_UseTypoMetrics: 1
CreationTime: 1431850356
ModificationTime: 1706819963
PfmFamily: 49
TTFWeight: 400
TTFWidth: 5
LineGap: 0
VLineGap: 0
Panose: 2 11 6 9 3 8 4 2 2 4
OS2TypoAscent: 2100
OS2TypoAOffset: 0
OS2TypoDescent: -1100
OS2TypoDOffset: 0
OS2TypoLinegap: 0
OS2WinAscent: 2100
OS2WinAOffset: 0
OS2WinDescent: 1100
OS2WinDOffset: 0
HheadAscent: 2100
HheadAOffset: 0
HheadDescent: -1100
HheadDOffset: 0
OS2SubXSize: 1331
OS2SubYSize: 1433
OS2SubXOff: 0
OS2SubYOff: 286
OS2SupXSize: 1331
OS2SupYSize: 1433
OS2SupXOff: 0
OS2SupYOff: 983
OS2StrikeYSize: 102
OS2StrikeYPos: 530
OS2CapHeight: 1638
OS2XHeight: 1082
OS2Vendor: '    '
OS2CodePages: 00000041.20080000
OS2UnicodeRanges: 80002003.80000000.00000008.00000000
Lookup: 1 9 0 "'fina' Terminal Forms in Arabic lookup 9" { "'fina' Terminal Forms in Arabic lookup 9 subtable"  } ['fina' ('arab' <'KUR ' 'SND ' 'URD ' 'dflt' > ) ]
Lookup: 1 9 0 "'medi' Medial Forms in Arabic lookup 11" { "'medi' Medial Forms in Arabic lookup 11 subtable"  } ['medi' ('arab' <'KUR ' 'SND ' 'URD ' 'dflt' > ) ]
Lookup: 1 9 0 "'init' Initial Forms in Arabic lookup 13" { "'init' Initial Forms in Arabic lookup 13 subtable"  } ['init' ('arab' <'KUR ' 'SND ' 'URD ' 'dflt' > ) ]

StartChar: exclam
Encoding: 33 33 1
GlifName: exclam
Width: 1000
VWidth: 2762
GlyphClass: 2
Flags: W
LayerCount: 2
Fore
SplineSet
345.091796875 138.493164062 m 4,0,1
 345.091796875 193.540039062 345.091796875 193.540039062 384.162109375 232.609375 c 132,-1,2
 423.231445312 271.6796875 423.231445312 271.6796875 478.278320312 271.6796875 c 4,3,4
 505.84375 271.6796875 505.84375 271.6796875 529.336914062 261.927734375 c 132,-1,5
 552.830078125 252.174804688 552.830078125 252.174804688 572.395507812 232.609375 c 132,-1,6
 591.959960938 213.043945312 591.959960938 213.043945312 601.711914062 189.55078125 c 132,-1,7
 611.463867188 166.057617188 611.463867188 166.057617188 611.463867188 138.493164062 c 4,8,9
 611.463867188 83.4462890625 611.463867188 83.4462890625 572.395507812 44.376953125 c 132,-1,10
 533.326171875 5.306640625 533.326171875 5.306640625 478.278320312 5.306640625 c 4,11,12
 430.078125 5.306640625 430.078125 5.306640625 394.208984375 35.189453125 c 4,13,14
 387.4375 40.830078125 387.4375 40.830078125 381.592773438 46.9150390625 c 132,-1,15
 375.748046875 53 375.748046875 53 370.828125 59.5302734375 c 132,-1,16
 365.909179688 66.0595703125 365.909179688 66.0595703125 361.912109375 73.033203125 c 132,-1,17
 357.915039062 80.005859375 357.915039062 80.005859375 354.83203125 87.4326171875 c 4,18,19
 349.962890625 99.1630859375 349.962890625 99.1630859375 347.52734375 111.921875 c 132,-1,20
 345.091796875 124.681640625 345.091796875 124.681640625 345.091796875 138.493164062 c 4,0,1
373.216796875 1402.07128906 m 5,21,-1
 586.559570312 1402.07128906 l 5,22,-1
 562.146484375 499.32421875 l 5,23,-1
 398.84765625 499.32421875 l 5,24,-1
 373.216796875 1402.07128906 l 5,21,-1
EndSplineSet
EndChar

StartChar: period
Encoding: 46 46 2
GlifName: period
Width: 1000
VWidth: 2762
GlyphClass: 2
Flags: W
LayerCount: 2
Fore
SplineSet
385.091796875 138.493164062 m 4,0,1
 385.091796875 193.540039062 385.091796875 193.540039062 424.162109375 232.609375 c 132,-1,2
 463.231445312 271.6796875 463.231445312 271.6796875 518.278320312 271.6796875 c 4,3,4
 545.84375 271.6796875 545.84375 271.6796875 569.336914062 261.927734375 c 132,-1,5
 592.830078125 252.174804688 592.830078125 252.174804688 612.395507812 232.609375 c 132,-1,6
 631.959960938 213.043945312 631.959960938 213.043945312 641.711914062 189.55078125 c 132,-1,7
 651.463867188 166.057617188 651.463867188 166.057617188 651.463867188 138.493164062 c 4,8,9
 651.463867188 83.4462890625 651.463867188 83.4462890625 612.395507812 44.376953125 c 132,-1,10
 573.326171875 5.306640625 573.326171875 5.306640625 518.278320312 5.306640625 c 4,11,12
 470.078125 5.306640625 470.078125 5.306640625 434.208984375 35.189453125 c 4,13,14
 427.4375 40.830078125 427.4375 40.830078125 421.592773438 46.9150390625 c 132,-1,15
 415.748046875 53 415.748046875 53 410.828125 59.5302734375 c 132,-1,16
 405.909179688 66.0595703125 405.909179688 66.0595703125 401.912109375 73.033203125 c 132,-1,17
 397.915039062 80.005859375 397.915039062 80.005859375 394.83203125 87.4326171875 c 4,18,19
 389.962890625 99.1630859375 389.962890625 99.1630859375 387.52734375 111.921875 c 132,-1,20
 385.091796875 124.681640625 385.091796875 124.681640625 385.091796875 138.493164062 c 4,0,1
EndSplineSet
EndChar

StartChar: colon
Encoding: 58 58 3
GlifName: colon
Width: 1000
VWidth: 2762
GlyphClass: 2
Flags: W
LayerCount: 2
Fore
SplineSet
385.091796875 1008.49316406 m 4,0,1
 385.091796875 1063.54003906 385.091796875 1063.54003906 424.162109375 1102.609375 c 132,-1,2
 463.231445312 1141.6796875 463.231445312 1141.6796875 518.278320312 1141.6796875 c 132,-1,3
 573.326171875 1141.6796875 573.326171875 1141.6796875 612.395507812 1102.609375 c 4,4,5
 625.44140625 1089.56347656 625.44140625 1089.56347656 634.119140625 1074.77832031 c 132,-1,6
 642.797851562 1059.99414062 642.797851562 1059.99414062 647.130859375 1043.43359375 c 132,-1,7
 651.463867188 1026.87304688 651.463867188 1026.87304688 651.463867188 1008.49316406 c 4,8,9
 651.463867188 953.446289062 651.463867188 953.446289062 612.395507812 914.376953125 c 4,10,11
 592.830078125 894.811523438 592.830078125 894.811523438 569.336914062 885.05859375 c 132,-1,12
 545.84375 875.306640625 545.84375 875.306640625 518.278320312 875.306640625 c 4,13,14
 470.078125 875.306640625 470.078125 875.306640625 434.208984375 905.189453125 c 4,15,16
 407.166992188 927.716796875 407.166992188 927.716796875 394.83203125 957.432617188 c 4,17,18
 389.962890625 969.163085938 389.962890625 969.163085938 387.52734375 981.921875 c 132,-1,19
 385.091796875 994.681640625 385.091796875 994.681640625 385.091796875 1008.49316406 c 4,0,1
385.091796875 138.493164062 m 4,20,21
 385.091796875 193.540039062 385.091796875 193.540039062 424.162109375 232.609375 c 132,-1,22
 463.231445312 271.6796875 463.231445312 271.6796875 518.278320312 271.6796875 c 4,23,24
 545.84375 271.6796875 545.84375 271.6796875 569.336914062 261.927734375 c 132,-1,25
 592.830078125 252.174804688 592.830078125 252.174804688 612.395507812 232.609375 c 132,-1,26
 631.959960938 213.043945312 631.959960938 213.043945312 641.711914062 189.55078125 c 132,-1,27
 651.463867188 166.057617188 651.463867188 166.057617188 651.463867188 138.493164062 c 4,28,29
 651.463867188 83.4462890625 651.463867188 83.4462890625 612.395507812 44.376953125 c 132,-1,30
 573.326171875 5.306640625 573.326171875 5.306640625 518.278320312 5.306640625 c 4,31,32
 470.078125 5.306640625 470.078125 5.306640625 434.208984375 35.189453125 c 4,33,34
 427.4375 40.830078125 427.4375 40.830078125 421.592773438 46.9150390625 c 132,-1,35
 415.748046875 53 415.748046875 53 410.828125 59.5302734375 c 132,-1,36
 405.909179688 66.0595703125 405.909179688 66.0595703125 401.912109375 73.033203125 c 132,-1,37
 397.915039062 80.005859375 397.915039062 80.005859375 394.83203125 87.4326171875 c 4,38,39
 389.962890625 99.1630859375 389.962890625 99.1630859375 387.52734375 111.921875 c 132,-1,40
 385.091796875 124.681640625 385.091796875 124.681640625 385.091796875 138.493164062 c 4,20,21
EndSplineSet
EndChar

StartChar: afii57388
Encoding: 1548 1548 5
GlifName: afii57388
Width: 1000
VWidth: 2770
GlyphClass: 2
Flags: W
LayerCount: 2
Fore
SplineSet
327.4609375 287.60546875 m 4,0,1
 376.610351562 530.870117188 376.610351562 530.870117188 572.274414062 680.014648438 c 5,2,-1
 617.084960938 652.140625 l 5,3,4
 459.938476562 509.219726562 459.938476562 509.219726562 443.995117188 287.342773438 c 6,5,-1
 443.838867188 285.169921875 l 5,6,-1
 446.017578125 285.19921875 l 6,7,8
 577.782226562 286.983398438 577.782226562 286.983398438 610.838867188 222.024414062 c 4,9,10
 629.98828125 183.552734375 629.98828125 183.552734375 629.086914062 146.030273438 c 4,11,12
 625.0703125 9.9375 625.0703125 9.9375 485.991210938 8.9072265625 c 4,13,14
 457.9140625 8.7900390625 457.9140625 8.7900390625 434.4765625 13.4365234375 c 4,15,16
 315.720703125 36.984375 315.720703125 36.984375 315.842773438 184 c 4,17,18
 315.880859375 229.80859375 315.880859375 229.80859375 327.4609375 287.60546875 c 4,0,1
EndSplineSet
EndChar

StartChar: uni0615
Encoding: 1557 1557 6
GlifName: uni0615
Width: -29
VWidth: 2712
GlyphClass: 4
Flags: W
AnchorPoint: "Anchor-10" 658.199 1622.46 mark 0
AnchorPoint: "Anchor-9" 658.199 1622.46 mark 0
AnchorPoint: "Anchor-1" 672.366 2445.86 basemark 0
AnchorPoint: "Anchor-1" 658.199 1622.46 mark 0
LayerCount: 2
Fore
SplineSet
541.2421875 1786.00390625 m 1,0,-1
 677.703125 1786.00390625 l 2,1,2
 782.301757812 1786.00390625 782.301757812 1786.00390625 846.846679688 1820.74121094 c 0,3,4
 911.943359375 1855.77441406 911.943359375 1855.77441406 914.579101562 1910.29980469 c 128,-1,5
 917.220703125 1964.95214844 917.220703125 1964.95214844 883.403320312 1983.27148438 c 0,6,7
 828.697265625 2013.80371094 828.697265625 2013.80371094 742.877929688 1965.12109375 c 128,-1,8
 657.05859375 1916.43847656 657.05859375 1916.43847656 539.772460938 1789.36035156 c 2,9,-1
 536.674804688 1786.00390625 l 1,10,-1
 541.2421875 1786.00390625 l 1,0,-1
989.1328125 1926.79882812 m 0,11,12
 989.000976562 1714.07421875 989.000976562 1714.07421875 668.384765625 1714.07421875 c 2,13,-1
 356.936523438 1714.07421875 l 1,14,-1
 356.936523438 1786.00390625 l 1,15,-1
 462.987304688 1786.00390625 l 1,16,-1
 464.987304688 1786.00390625 l 1,17,-1
 464.987304688 1788.00390625 l 1,18,-1
 464.987304688 2318.125 l 1,19,-1
 538.229492188 2317.20898438 l 1,20,-1
 537.275390625 1891.90722656 l 1,21,-1
 537.263671875 1886.58789062 l 1,22,-1
 540.77734375 1890.58105469 l 2,23,24
 747.583007812 2125.63476562 747.583007812 2125.63476562 911.680664062 2062.82324219 c 0,25,26
 989.001953125 2033.6171875 989.001953125 2033.6171875 989.1328125 1926.79882812 c 0,11,12
EndSplineSet
EndChar

StartChar: uni061B
Encoding: 1563 1563 7
GlifName: uni061B_
Width: 1000
VWidth: 2770
GlyphClass: 2
Flags: W
LayerCount: 2
Fore
SplineSet
337.4609375 757.60546875 m 4,0,1
 386.610351562 1000.87011719 386.610351562 1000.87011719 582.274414062 1150.01464844 c 5,2,-1
 627.084960938 1122.140625 l 5,3,4
 469.938476562 979.219726562 469.938476562 979.219726562 453.995117188 757.342773438 c 6,5,-1
 453.838867188 755.169921875 l 5,6,-1
 456.017578125 755.19921875 l 6,7,8
 587.782226562 756.983398438 587.782226562 756.983398438 620.838867188 692.024414062 c 4,9,10
 639.98828125 653.552734375 639.98828125 653.552734375 639.086914062 616.030273438 c 4,11,12
 635.0703125 479.9375 635.0703125 479.9375 495.991210938 478.907226562 c 4,13,14
 467.9140625 478.790039062 467.9140625 478.790039062 444.4765625 483.436523438 c 4,15,16
 325.720703125 506.984375 325.720703125 506.984375 325.842773438 654 c 4,17,18
 325.880859375 699.80859375 325.880859375 699.80859375 337.4609375 757.60546875 c 4,0,1
354.091796875 138.493164062 m 4,19,20
 354 194 354 194 393.162109375 232.609375 c 4,21,22
 432 272 432 272 487.278320312 271.6796875 c 4,23,24
 515 272 515 272 538.336914062 261.927734375 c 4,25,26
 562 252 562 252 581.395507812 232.609375 c 4,27,28
 620 194 620 194 620.463867188 138.493164062 c 4,29,30
 620 83 620 83 581.395507812 44.376953125 c 4,31,32
 542 5 542 5 487.278320312 5.306640625 c 4,33,34
 439 5 439 5 403.208984375 35.189453125 c 4,35,36
 394 43 394 43 386.798828125 51.0224609375 c 4,37,38
 379 59 379 59 373.6796875 68.4326171875 c 4,39,40
 368 78 368 78 363.83203125 87.4326171875 c 4,41,42
 359 99 359 99 356.52734375 111.921875 c 132,-1,43
 354 125 354 125 354.091796875 138.493164062 c 4,19,20
EndSplineSet
EndChar

StartChar: uni061F
Encoding: 1567 1567 8
GlifName: uni061F_
Width: 1000
VWidth: 2762
GlyphClass: 2
Flags: W
LayerCount: 2
Fore
SplineSet
420.091796875 138.493164062 m 0,0,1
 420.091796875 193.540039062 420.091796875 193.540039062 459.162109375 232.609375 c 128,-1,2
 498.231445312 271.6796875 498.231445312 271.6796875 553.278320312 271.6796875 c 128,-1,3
 608.326171875 271.6796875 608.326171875 271.6796875 647.395507812 232.609375 c 128,-1,4
 686.463867188 193.540039062 686.463867188 193.540039062 686.463867188 138.493164062 c 128,-1,5
 686.463867188 83.4462890625 686.463867188 83.4462890625 647.395507812 44.376953125 c 128,-1,6
 608.326171875 5.306640625 608.326171875 5.306640625 553.278320312 5.306640625 c 0,7,8
 505.078125 5.306640625 505.078125 5.306640625 469.208984375 35.189453125 c 0,9,10
 460.181640625 42.7099609375 460.181640625 42.7099609375 452.798828125 51.0224609375 c 128,-1,11
 445.416015625 59.3349609375 445.416015625 59.3349609375 439.6796875 68.4326171875 c 128,-1,12
 433.943359375 77.529296875 433.943359375 77.529296875 429.83203125 87.4326171875 c 0,13,14
 424.962890625 99.1630859375 424.962890625 99.1630859375 422.52734375 111.921875 c 128,-1,15
 420.091796875 124.681640625 420.091796875 124.681640625 420.091796875 138.493164062 c 0,0,1
454.145507812 496.333007812 m 1,16,17
 441.004104715 583.614451893 441.004104715 583.614451893 336.930664062 678.607421875 c 0,18,19
 113 883 113 883 116 1045.95898438 c 4,20,21
 119 1181 119 1181 198.495117188 1269.671875 c 0,22,23
 315 1401 315 1401 508.94140625 1400.51660156 c 0,24,25
 874 1399 874 1399 874 1014 c 2,26,-1
 874 1006.25 l 1,27,-1
 717.799804688 1006.24804688 l 1,28,-1
 717.799804688 1012.86328125 l 2,29,30
 718 1211 718 1211 517.602539062 1210.89453125 c 0,31,32
 405 1211 405 1211 349.944335938 1155 c 0,33,34
 301 1105 301 1105 301.328125 1036 c 4,35,36
 302 926 302 926 488.134765625 759.353515625 c 0,37,38
 642.192117762 615.207919228 642.192117762 615.207919228 652.827148438 496.333007812 c 1,39,-1
 454.145507812 496.333007812 l 1,16,17
EndSplineSet
EndChar

StartChar: uni0621
Encoding: 1569 1569 9
GlifName: uni0621
Width: 1000
VWidth: 2950
GlyphClass: 2
Flags: W
AnchorPoint: "Anchor-7" 525.326 -105.646 basechar 0
AnchorPoint: "Anchor-10" 519.848 1242.06 basechar 0
LayerCount: 2
Fore
SplineSet
159.76953125 13.236328125 m 5,0,-1
 159.76953125 186.692382812 l 5,1,2
 287.40625 267.34765625 287.40625 267.34765625 398.892578125 302.67578125 c 6,3,-1
 403.474609375 304.127929688 l 5,4,-1
 399.21484375 306.354492188 l 6,5,6
 168.00390625 427.209960938 168.00390625 427.209960938 168.553710938 617.31640625 c 4,7,8
 168.997070312 740.26171875 168.997070312 740.26171875 251.850585938 837.80859375 c 4,9,10
 349.91796875 951.999023438 349.91796875 951.999023438 528.575195312 951.806640625 c 4,11,12
 683.256835938 951.998046875 683.256835938 951.998046875 801.5078125 851.813476562 c 5,13,-1
 746.408203125 727.330078125 l 5,14,15
 696.328125 753.91796875 696.328125 753.91796875 645.202148438 767.068359375 c 132,-1,16
 594.077148438 780.21875 594.077148438 780.21875 540.329101562 780.4375 c 4,17,18
 437.100585938 780.217773438 437.100585938 780.217773438 385.057617188 739.364257812 c 132,-1,19
 333.013671875 698.510742188 333.013671875 698.510742188 333.028320312 617.267578125 c 4,20,21
 333 490.7265625 333 490.7265625 556.926757812 386.237304688 c 6,22,-1
 557.5234375 385.958984375 l 5,23,-1
 838.5 442.704101562 l 5,24,-1
 838.5 274.477539062 l 5,25,26
 578.005859375 243.217773438 578.005859375 243.217773438 159.76953125 13.236328125 c 5,0,-1
EndSplineSet
EndChar

StartChar: uni0627
Encoding: 1575 1575 15
GlifName: uni0627
Width: 1000
VWidth: 2950
GlyphClass: 2
Flags: W
AnchorPoint: "Anchor-10" 458.871 1525.46 basechar 0
AnchorPoint: "Anchor-7" 455.587 -210.365 basechar 0
LayerCount: 2
Fore
SplineSet
376.890625 1396.15039062 m 5,0,-1
 542.205078125 1396.15039062 l 5,1,-1
 542.205078125 0.751953125 l 5,2,-1
 376.890625 0.751953125 l 5,3,-1
 376.890625 1396.15039062 l 5,0,-1
EndSplineSet
Substitution2: "'fina' Terminal Forms in Arabic lookup 9 subtable" uniFE8E
EndChar

StartChar: uni062D
Encoding: 1581 1581 21
GlifName: uni062D_
Width: 1000
VWidth: 2950
GlyphClass: 2
Flags: W
AnchorPoint: "Anchor-10" 481.478 1214.07 basechar 0
AnchorPoint: "Anchor-7" 456.833 -828.619 basechar 0
LayerCount: 2
Fore
SplineSet
634 535 m 1,0,1
 345 652 345 652 258 652 c 4,2,3
 163 652 163 652 36.9296875 503.7109375 c 5,4,-1
 -88.8818359375 610.26171875 l 5,5,6
 63 830 63 830 244 830 c 4,7,8
 352 830 352 830 662 702 c 0,9,10
 905 602 905 602 919 601 c 1,11,-1
 903.064453125 426.818359375 l 1,12,13
 722 416 722 416 612.25 389.517578125 c 0,14,15
 112 267 112 267 112.249023438 -121.301757812 c 4,16,17
 112 -471 112 -471 656.381835938 -471.783203125 c 0,18,19
 727 -472 727 -472 906.306640625 -387.446289062 c 1,20,-1
 906.001953125 -570.739257812 l 1,21,22
 754 -643 754 -643 641.529296875 -643.249023438 c 0,23,24
 144 -643 144 -643 -1.34765625 -367.3046875 c 4,25,26
 -54 -267 -54 -267 -54.0126953125 -136.852539062 c 4,27,28
 -54 381 -54 381 634 535 c 1,0,1
EndSplineSet
Substitution2: "'fina' Terminal Forms in Arabic lookup 9 subtable" uniFEA2
Substitution2: "'medi' Medial Forms in Arabic lookup 11 subtable" uniFEA4
Substitution2: "'init' Initial Forms in Arabic lookup 13 subtable" uniFEA3
EndChar

StartChar: uni062F
Encoding: 1583 1583 23
GlifName: uni062F_
Width: 1000
VWidth: 2950
GlyphClass: 2
Flags: W
AnchorPoint: "Anchor-10" 382.137 1259.03 basechar 0
AnchorPoint: "Anchor-7" 437.24 -241.316 basechar 0
LayerCount: 2
Fore
SplineSet
112.982421875 204.750976562 m 5,0,1
 233 180 233 180 341.662109375 180.107421875 c 4,2,3
 684 180 684 180 683.954101562 350.380859375 c 4,4,5
 684 545 684 545 315.498046875 776.791015625 c 5,6,-1
 386.952148438 939.935546875 l 5,7,8
 857 656 857 656 856.479492188 352.899414062 c 4,9,10
 856 3 856 3 354.806640625 2.259765625 c 4,11,12
 219 2 219 2 112.982421875 25.462890625 c 5,13,-1
 112.982421875 204.750976562 l 5,0,1
EndSplineSet
Substitution2: "'fina' Terminal Forms in Arabic lookup 9 subtable" uniFEAA
EndChar

StartChar: uni0631
Encoding: 1585 1585 25
GlifName: uni0631
Width: 1000
VWidth: 2186
GlyphClass: 2
Flags: W
AnchorPoint: "Anchor-10" 551.256 944.2 basechar 0
AnchorPoint: "Anchor-7" 312.969 -675.998 basechar 0
LayerCount: 2
Fore
SplineSet
605.469726562 159.633789062 m 4,0,1
 605.469726562 308.18359375 605.469726562 308.18359375 513.275390625 441.0234375 c 5,2,-1
 659.998046875 518.564453125 l 5,3,4
 770.618164062 354.22265625 770.618164062 354.22265625 770.618164062 161.043945312 c 4,5,6
 770.618164062 -398.5859375 770.618164062 -398.5859375 90.046875 -465.592773438 c 5,7,-1
 60.650390625 -302.475585938 l 5,8,9
 605.469726562 -257.638671875 605.469726562 -257.638671875 605.469726562 159.633789062 c 4,0,1
EndSplineSet
PairPos2: "'kern' Horizontal Kerning lookup 15-2" uniFBFE dx=60 dy=0 dh=60 dv=0 dx=0 dy=0 dh=0 dv=0
PairPos2: "'kern' Horizontal Kerning lookup 15-1" uniFEE7 dx=-178 dy=0 dh=-178 dv=0 dx=0 dy=0 dh=0 dv=0
PairPos2: "'kern' Horizontal Kerning lookup 15-2" uniFB90 dx=-226 dy=0 dh=-226 dv=0 dx=0 dy=0 dh=0 dv=0
PairPos2: "'kern' Horizontal Kerning lookup 15-2" uniFB8E dx=-226 dy=0 dh=-226 dv=0 dx=0 dy=0 dh=0 dv=0
PairPos2: "'kern' Horizontal Kerning lookup 15-2" uni06A9 dx=-226 dy=0 dh=-226 dv=0 dx=0 dy=0 dh=0 dv=0
PairPos2: "'kern' Horizontal Kerning lookup 15-2" uni064A dx=-60 dy=0 dh=-60 dv=0 dx=0 dy=0 dh=0 dv=0
PairPos2: "'kern' Horizontal Kerning lookup 15-2" afii57414 dx=-60 dy=0 dh=-60 dv=0 dx=0 dy=0 dh=0 dv=0
PairPos2: "'kern' Horizontal Kerning lookup 15-2" uni0649 dx=-60 dy=0 dh=-60 dv=0 dx=0 dy=0 dh=0 dv=0
PairPos2: "'kern' Horizontal Kerning lookup 15-2" uniFEEB dx=-178 dy=0 dh=-178 dv=0 dx=0 dy=0 dh=0 dv=0
PairPos2: "'kern' Horizontal Kerning lookup 15-2" uni0647 dx=-178 dy=0 dh=-178 dv=0 dx=0 dy=0 dh=0 dv=0
PairPos2: "'kern' Horizontal Kerning lookup 15-2" uni0646 dx=-60 dy=0 dh=-60 dv=0 dx=0 dy=0 dh=0 dv=0
PairPos2: "'kern' Horizontal Kerning lookup 15-2" uniFEE3 dx=-178 dy=0 dh=-178 dv=0 dx=0 dy=0 dh=0 dv=0
PairPos2: "'kern' Horizontal Kerning lookup 15-2" uni0645 dx=-178 dy=0 dh=-178 dv=0 dx=0 dy=0 dh=0 dv=0
PairPos2: "'kern' Horizontal Kerning lookup 15-2" uniFEFB dx=-143 dy=0 dh=-143 dv=0 dx=0 dy=0 dh=0 dv=0
PairPos2: "'kern' Horizontal Kerning lookup 15-2" uniFEDF dx=-143 dy=0 dh=-143 dv=0 dx=0 dy=0 dh=0 dv=0
PairPos2: "'kern' Horizontal Kerning lookup 15-2" uni0644 dx=-60 dy=0 dh=-60 dv=0 dx=0 dy=0 dh=0 dv=0
PairPos2: "'kern' Horizontal Kerning lookup 15-2" uniFEDB dx=-226 dy=0 dh=-226 dv=0 dx=0 dy=0 dh=0 dv=0
PairPos2: "'kern' Horizontal Kerning lookup 15-2" uni0643 dx=-143 dy=0 dh=-143 dv=0 dx=0 dy=0 dh=0 dv=0
PairPos2: "'kern' Horizontal Kerning lookup 15-2" uniFED7 dx=-178 dy=0 dh=-178 dv=0 dx=0 dy=0 dh=0 dv=0
PairPos2: "'kern' Horizontal Kerning lookup 15-2" uni0642 dx=-60 dy=0 dh=-60 dv=0 dx=0 dy=0 dh=0 dv=0
PairPos2: "'kern' Horizontal Kerning lookup 15-2" uniFED3 dx=-178 dy=0 dh=-178 dv=0 dx=0 dy=0 dh=0 dv=0
PairPos2: "'kern' Horizontal Kerning lookup 15-2" uni0641 dx=-178 dy=0 dh=-178 dv=0 dx=0 dy=0 dh=0 dv=0
PairPos2: "'kern' Horizontal Kerning lookup 15-2" uniFECF dx=-178 dy=0 dh=-178 dv=0 dx=0 dy=0 dh=0 dv=0
PairPos2: "'kern' Horizontal Kerning lookup 15-2" uniFECB dx=-178 dy=0 dh=-178 dv=0 dx=0 dy=0 dh=0 dv=0
PairPos2: "'kern' Horizontal Kerning lookup 15-2" uniFEC7 dx=-178 dy=0 dh=-178 dv=0 dx=0 dy=0 dh=0 dv=0
PairPos2: "'kern' Horizontal Kerning lookup 15-2" uni0638 dx=-178 dy=0 dh=-178 dv=0 dx=0 dy=0 dh=0 dv=0
PairPos2: "'kern' Horizontal Kerning lookup 15-2" uniFEC3 dx=-178 dy=0 dh=-178 dv=0 dx=0 dy=0 dh=0 dv=0
PairPos2: "'kern' Horizontal Kerning lookup 15-2" uni0637 dx=-178 dy=0 dh=-178 dv=0 dx=0 dy=0 dh=0 dv=0
PairPos2: "'kern' Horizontal Kerning lookup 15-2" uniFEBF dx=-178 dy=0 dh=-178 dv=0 dx=0 dy=0 dh=0 dv=0
PairPos2: "'kern' Horizontal Kerning lookup 15-2" uni0636 dx=-178 dy=0 dh=-178 dv=0 dx=0 dy=0 dh=0 dv=0
PairPos2: "'kern' Horizontal Kerning lookup 15-2" uniFEBB dx=-178 dy=0 dh=-178 dv=0 dx=0 dy=0 dh=0 dv=0
PairPos2: "'kern' Horizontal Kerning lookup 15-2" uni0635 dx=-178 dy=0 dh=-178 dv=0 dx=0 dy=0 dh=0 dv=0
PairPos2: "'kern' Horizontal Kerning lookup 15-2" uniFEB7 dx=-178 dy=0 dh=-178 dv=0 dx=0 dy=0 dh=0 dv=0
PairPos2: "'kern' Horizontal Kerning lookup 15-2" uni0634 dx=-178 dy=0 dh=-178 dv=0 dx=0 dy=0 dh=0 dv=0
PairPos2: "'kern' Horizontal Kerning lookup 15-2" uniFEB3 dx=-178 dy=0 dh=-178 dv=0 dx=0 dy=0 dh=0 dv=0
PairPos2: "'kern' Horizontal Kerning lookup 15-2" uni0633 dx=-178 dy=0 dh=-178 dv=0 dx=0 dy=0 dh=0 dv=0
PairPos2: "'kern' Horizontal Kerning lookup 15-2" uni0630 dx=-178 dy=0 dh=-178 dv=0 dx=0 dy=0 dh=0 dv=0
PairPos2: "'kern' Horizontal Kerning lookup 15-2" uni062F dx=-178 dy=0 dh=-178 dv=0 dx=0 dy=0 dh=0 dv=0
PairPos2: "'kern' Horizontal Kerning lookup 15-2" uniFEA7 dx=-178 dy=0 dh=-178 dv=0 dx=0 dy=0 dh=0 dv=0
PairPos2: "'kern' Horizontal Kerning lookup 15-2" uniFEA3 dx=-178 dy=0 dh=-178 dv=0 dx=0 dy=0 dh=0 dv=0
PairPos2: "'kern' Horizontal Kerning lookup 15-2" uniFE9F dx=-178 dy=0 dh=-178 dv=0 dx=0 dy=0 dh=0 dv=0
PairPos2: "'kern' Horizontal Kerning lookup 15-2" uniFE9B dx=-178 dy=0 dh=-178 dv=0 dx=0 dy=0 dh=0 dv=0
PairPos2: "'kern' Horizontal Kerning lookup 15-2" uni062B dx=-178 dy=0 dh=-178 dv=0 dx=0 dy=0 dh=0 dv=0
PairPos2: "'kern' Horizontal Kerning lookup 15-2" uniFE97 dx=-178 dy=0 dh=-178 dv=0 dx=0 dy=0 dh=0 dv=0
PairPos2: "'kern' Horizontal Kerning lookup 15-2" uni062A dx=-178 dy=0 dh=-178 dv=0 dx=0 dy=0 dh=0 dv=0
PairPos2: "'kern' Horizontal Kerning lookup 15-2" uni0629 dx=-178 dy=0 dh=-178 dv=0 dx=0 dy=0 dh=0 dv=0
PairPos2: "'kern' Horizontal Kerning lookup 15-2" uni0628 dx=-178 dy=0 dh=-178 dv=0 dx=0 dy=0 dh=0 dv=0
PairPos2: "'kern' Horizontal Kerning lookup 15-2" uni0627 dx=-143 dy=0 dh=-143 dv=0 dx=0 dy=0 dh=0 dv=0
PairPos2: "'kern' Horizontal Kerning lookup 15-2" uni0623 dx=-143 dy=0 dh=-143 dv=0 dx=0 dy=0 dh=0 dv=0
PairPos2: "'kern' Horizontal Kerning lookup 15-2" uni0622 dx=-143 dy=0 dh=-143 dv=0 dx=0 dy=0 dh=0 dv=0
PairPos2: "'kern' Horizontal Kerning lookup 15-2" uni0621 dx=-178 dy=0 dh=-178 dv=0 dx=0 dy=0 dh=0 dv=0
PairPos2: "'kern' Horizontal Kerning lookup 15-2" uniFB94 dx=-226 dy=0 dh=-226 dv=0 dx=0 dy=0 dh=0 dv=0
PairPos2: "'kern' Horizontal Kerning lookup 15-2" uniFB92 dx=-226 dy=0 dh=-226 dv=0 dx=0 dy=0 dh=0 dv=0
PairPos2: "'kern' Horizontal Kerning lookup 15-2" uni06AF dx=-226 dy=0 dh=-226 dv=0 dx=0 dy=0 dh=0 dv=0
PairPos2: "'kern' Horizontal Kerning lookup 15-2" afii57506 dx=-178 dy=0 dh=-178 dv=0 dx=0 dy=0 dh=0 dv=0
PairPos2: "'kern' Horizontal Kerning lookup 15-2" afii57440 dx=-178 dy=0 dh=-178 dv=0 dx=0 dy=0 dh=0 dv=0
PairPos2: "'kern' Horizontal Kerning lookup 15-2" uniFE8B dx=-178 dy=0 dh=-178 dv=0 dx=0 dy=0 dh=0 dv=0
Substitution2: "'fina' Terminal Forms in Arabic lookup 9 subtable" uniFEAE
EndChar

StartChar: uni0633
Encoding: 1587 1587 27
GlifName: uni0633
Width: 1000
VWidth: 2950
GlyphClass: 2
Flags: W
AnchorPoint: "Anchor-10" 450.53 1055.1 basechar 0
AnchorPoint: "Anchor-7" -156.098 -674.086 basechar 0
LayerCount: 2
Fore
SplineSet
-127.00390625 -407.998046875 m 4,0,1
 -245 -408 -245 -408 -327.00390625 -366.170898438 c 4,2,3
 -584 -233 -584 -233 -583.247070312 -20.958984375 c 4,4,5
 -583 257 -583 257 -517.54296875 446.122070312 c 5,6,-1
 -359.09765625 400.791992188 l 5,7,8
 -413 233 -413 233 -412.731445312 -19.138671875 c 4,9,10
 -413 -266 -413 -266 -113.6015625 -266.201171875 c 4,11,12
 107 -266 107 -266 107.60546875 45.9453125 c 4,13,14
 108 296 108 296 49.19921875 466.825195312 c 5,15,-1
 215.96875 507.435546875 l 5,16,-1
 246.848632812 376.262695312 l 6,17,18
 293 180 293 180 393.500976562 179.9921875 c 4,19,20
 442.147460938 180 442.147460938 180 460.8125 380.504882812 c 6,21,-1
 475.696289062 540.388671875 l 5,22,-1
 596.747070312 540.388671875 l 5,23,-1
 611.630859375 380.442382812 l 6,24,25
 630 181 630 181 684.919921875 180.418945312 c 12,26,27
 823 179 823 179 821.520507812 420.115234375 c 4,28,29
 821 526 821 526 793.828125 646.545898438 c 5,30,-1
 936.908203125 676.541992188 l 5,31,32
 963 540 963 540 963.130859375 423.862304688 c 4,33,34
 962 1 962 1 690.162109375 0.912109375 c 20,35,36
 602 1 602 1 536.604492188 133.032226562 c 5,37,38
 442 0 442 0 391.807617188 -0.0810546875 c 4,39,40
 340 0 340 0 268.264648438 58.376953125 c 5,41,42
 254 -118 254 -118 174 -231.666992188 c 4,43,44
 49 -408 49 -408 -127.00390625 -407.998046875 c 4,0,1
EndSplineSet
Substitution2: "'fina' Terminal Forms in Arabic lookup 9 subtable" uniFEB2
Substitution2: "'medi' Medial Forms in Arabic lookup 11 subtable" uniFEB4
Substitution2: "'init' Initial Forms in Arabic lookup 13 subtable" uniFEB3
EndChar

StartChar: uni0635
Encoding: 1589 1589 29
GlifName: uni0635
Width: 1000
VWidth: 2950
GlyphClass: 2
Flags: W
AnchorPoint: "Anchor-7" -168.098 -704.086 basechar 0
AnchorPoint: "Anchor-10" 772.53 1210.1 basechar 0
LayerCount: 2
Fore
SplineSet
-140.00390625 -439.998046875 m 4,0,1
 -244 -440 -244 -440 -329.00390625 -396.170898438 c 4,2,3
 -563 -276 -563 -276 -562.247070312 -100.958984375 c 4,4,5
 -562 324 -562 324 -519.54296875 446.122070312 c 5,6,-1
 -361.09765625 400.791992188 l 5,7,8
 -415 233 -415 233 -414.731445312 -89.138671875 c 4,9,10
 -414 -294 -414 -294 -125.6015625 -296.201171875 c 28,11,12
 147 -298 147 -298 147.60546875 -25.0546875 c 4,13,14
 148 295 148 295 89.19921875 465.825195312 c 5,15,-1
 255.96875 506.435546875 l 5,16,-1
 286.848632812 375.262695312 l 6,17,18
 325 213 325 213 375.069335938 209.352539062 c 5,19,20
 384 544 384 544 682.76953125 651.423828125 c 4,21,22
 829 704 829 704 922.798828125 567.892578125 c 4,23,24
 983 481 983 481 982.596679688 425.791015625 c 4,25,26
 982 0 982 0 633.151367188 0 c 6,27,-1
 582.340820312 0 l 6,28,29
 424 0 424 0 307.264648438 58.376953125 c 5,30,31
 292 -121 292 -121 203 -251.666992188 c 4,32,33
 74 -440 74 -440 -140.00390625 -439.998046875 c 4,0,1
652.322265625 488.573242188 m 4,34,35
 558 427 558 427 521.002929688 180.416992188 c 5,36,-1
 638.755859375 180.534179688 l 6,37,38
 809 181 809 181 804.661132812 407.368164062 c 4,39,40
 802.3203125 510.837890625 802.3203125 510.837890625 746.922851562 506 c 4,41,42
 669 499 669 499 652.322265625 488.573242188 c 4,34,35
EndSplineSet
Substitution2: "'fina' Terminal Forms in Arabic lookup 9 subtable" uniFEBA
Substitution2: "'medi' Medial Forms in Arabic lookup 11 subtable" uniFEBC
Substitution2: "'init' Initial Forms in Arabic lookup 13 subtable" uniFEBB
EndChar

StartChar: uni0637
Encoding: 1591 1591 31
GlifName: uni0637
Width: 1000
VWidth: 2950
GlyphClass: 2
Flags: W
AnchorPoint: "Anchor-10" 201.36 1544.58 basechar 0
AnchorPoint: "Anchor-7" 361.602 -238.453 basechar 0
LayerCount: 2
Fore
SplineSet
286.946289062 520.520507812 m 5,0,1
 487 771 487 771 597.846679688 771.423828125 c 4,2,3
 812 771 812 771 917.875976562 617.892578125 c 4,4,5
 978 531 978 531 977.673828125 415.791015625 c 4,6,7
 977 0 977 0 318.228515625 0 c 6,8,-1
 -176.697265625 0 l 5,9,-1
 -176.697265625 180.22265625 l 5,10,-1
 41.8271484375 180.376953125 l 5,11,-1
 43.5546875 180.377929688 l 5,12,-1
 44.70703125 180.37890625 l 5,13,-1
 120.927734375 298.1328125 l 5,14,-1
 121.6328125 299.315429688 l 5,15,-1
 121.6328125 1396.87402344 l 5,16,-1
 286.946289062 1396.87402344 l 5,17,-1
 286.946289062 520.520507812 l 5,0,1
46.107421875 182.795898438 m 5,18,-1
 46.107421875 182.795898438 l 5,18,-1
323.833007812 180.534179688 m 6,19,20
 798.998046875 180.534179688 798.998046875 180.534179688 799.73828125 397.368164062 c 4,21,22
 800 483 800 483 742 536 c 4,23,24
 652.252929688 618.010742188 652.252929688 618.010742188 597.399414062 588.573242188 c 4,25,26
 322 444 322 444 226.114257812 180.534179688 c 5,27,-1
 323.833007812 180.534179688 l 6,19,20
EndSplineSet
Substitution2: "'fina' Terminal Forms in Arabic lookup 9 subtable" uniFEC2
Substitution2: "'medi' Medial Forms in Arabic lookup 11 subtable" uniFEC4
Substitution2: "'init' Initial Forms in Arabic lookup 13 subtable" uniFEC3
EndChar

StartChar: uni0639
Encoding: 1593 1593 33
GlifName: uni0639
Width: 1000
VWidth: 2950
GlyphClass: 2
Flags: W
AnchorPoint: "Anchor-10" 507.478 1324.07 basechar 0
AnchorPoint: "Anchor-7" 406.833 -828.619 basechar 0
LayerCount: 2
Fore
SplineSet
279.1328125 405.220703125 m 5,0,1
 151 553 151 553 150.999023438 694.995117188 c 5,2,3
 150.999023438 837.196289062 150.999023438 837.196289062 257.4296875 949.09765625 c 132,-1,4
 363.860351562 1060.99902344 363.860351562 1060.99902344 538.106445312 1060.99902344 c 132,-1,5
 712.35546875 1060.99804688 712.35546875 1060.99804688 862.213867188 939.09765625 c 5,6,-1
 797.427734375 793.243164062 l 5,7,8
 658.470703125 881.583007812 658.470703125 881.583007812 555.83984375 881.583007812 c 4,9,10
 427.623046875 881.583007812 427.623046875 881.583007812 367.158203125 782.436523438 c 4,11,12
 336.985351562 733.54296875 336.985351562 733.54296875 336.985351562 681.625976562 c 4,13,14
 336.985351562 635.56640625 336.985351562 635.56640625 360.733398438 587.126953125 c 4,15,16
 383.333007812 541.862304688 383.333007812 541.862304688 447.16015625 459.822265625 c 5,17,18
 616.459960938 489.526367188 616.459960938 489.526367188 766.739257812 489.526367188 c 4,19,20
 846.94921875 489.526367188 846.94921875 489.526367188 921.740234375 481.064453125 c 5,21,-1
 921.740234375 309.766601562 l 5,22,23
 857.25 312.184570312 857.25 312.184570312 797.423828125 312.184570312 c 4,24,25
 62.998046875 312.184570312 62.998046875 312.184570312 63.2490234375 -111.301757812 c 4,26,27
 62.9990234375 -471.645507812 62.9990234375 -471.645507812 597.3515625 -471.784179688 c 4,28,29
 787.262695312 -471.784179688 787.262695312 -471.784179688 966.306640625 -387.446289062 c 5,30,-1
 966.001953125 -570.739257812 l 5,31,32
 814.376953125 -643.001953125 814.376953125 -643.001953125 581.529296875 -643.249023438 c 4,33,34
 44.0712890625 -642.912109375 44.0712890625 -642.912109375 -73.390625 -312.837890625 c 4,35,36
 -103.012695312 -229.596679688 -103.012695312 -229.596679688 -103.012695312 -126.852539062 c 4,37,38
 -103.012695312 248.717773438 -103.012695312 248.717773438 279.1328125 405.220703125 c 5,0,1
EndSplineSet
Substitution2: "'fina' Terminal Forms in Arabic lookup 9 subtable" uniFECA
Substitution2: "'medi' Medial Forms in Arabic lookup 11 subtable" uniFECC
Substitution2: "'init' Initial Forms in Arabic lookup 13 subtable" uniFECB
EndChar

StartChar: afii57440
Encoding: 1600 1600 35
GlifName: afii57440
Width: 1000
VWidth: 2950
GlyphClass: 2
Flags: W
AnchorPoint: "Anchor-10" 634.774 918.11 basechar 0
AnchorPoint: "Anchor-7" 642.7 -188.739 basechar 0
LayerCount: 2
Fore
SplineSet
1013.77148438 86.3203125 m 2,0,1
 1013.77148438 0 1013.77148438 0 995.69140625 0 c 2,2,-1
 -6.9384765625 0 l 2,3,4
 -62.7783203125 0 -62.7783203125 0 -62.7783203125 86.3134765625 c 2,5,-1
 -62.7783203125 105.198242188 l 2,6,7
 -62.9999971059 179.999023438 -62.9999971059 179.999023438 -6.9384765625 179.999023438 c 2,8,-1
 995.64453125 179.999023438 l 2,9,10
 1013.77148438 179.999987842 1013.77148438 179.999987842 1013.77148438 105.174804688 c 2,11,-1
 1013.77148438 86.3203125 l 2,0,1
EndSplineSet
EndChar

StartChar: uni0643
Encoding: 1603 1603 38
GlifName: uni0643
Width: 1000
VWidth: 2950
GlyphClass: 2
Flags: W
AnchorPoint: "Anchor-7" 130.268 -238.468 basechar 0
AnchorPoint: "Anchor-10" 244.671 1448.06 basechar 0
LayerCount: 2
Fore
SplineSet
392.133789062 0 m 2,0,1
 392.133789062 0 392.133789062 0 223.061523438 0 c 2,2,3
 -514 0 -514 0 -513.83984375 463.875 c 0,4,5
 -514 563 -514 563 -486.510742188 685 c 1,6,-1
 -330.643554688 655 l 1,7,8
 -349 569 -349 569 -348.575195312 482.515625 c 0,9,10
 -346.998240808 180.663264641 -346.998240808 180.663264641 223.061523438 179.993164062 c 18,11,-1
 405 179.779296875 l 2,12,13
 806 179 806 179 798.829101562 449.983398438 c 1,14,-1
 798.829101562 1396.56640625 l 1,15,-1
 967.709960938 1396.56640625 l 1,16,-1
 967.709960938 452.336914062 l 2,17,18
 968 0 968 0 392.133789062 0 c 2,0,1
29.720703125 611.796875 m 1,19,20
 122 602 122 602 190.09765625 601.272460938 c 0,21,22
 302 601 302 601 350.83203125 623.0625 c 0,23,24
 364 629 364 629 374.674804688 635.883789062 c 0,25,26
 385 643 385 643 391.92578125 651.921875 c 128,-1,27
 399 661 399 661 402.506835938 671.1875 c 0,28,29
 406 682 406 682 406.307617188 693.626953125 c 0,30,31
 406 716 406 716 398.615234375 733.365234375 c 0,32,33
 391 751 391 751 375.103515625 764.049804688 c 0,34,35
 360 778 360 778 336.668945312 786.34375 c 0,36,37
 314 795 314 795 282.94140625 799.435546875 c 0,38,39
 71 832 71 832 74.490234375 1010.44921875 c 0,40,41
 79 1214 79 1214 463.170898438 1243.40429688 c 1,42,-1
 463.170898438 1118.81738281 l 1,43,44
 334 1107 334 1107 268.60546875 1077.80566406 c 0,45,46
 204 1049 204 1049 203.700195312 1002.45507812 c 0,47,48
 204 926 204 926 344.171875 904.786132812 c 0,49,50
 440 890 440 890 487.680664062 838.440429688 c 0,51,52
 535 787 535 787 534.924804688 698.138671875 c 0,53,54
 535 578 535 578 417 514 c 0,55,56
 342 473 342 473 207.55859375 473.094726562 c 0,57,58
 129 473 129 473 29.720703125 488.088867188 c 1,59,-1
 29.720703125 611.796875 l 1,19,20
EndSplineSet
Substitution2: "'fina' Terminal Forms in Arabic lookup 9 subtable" uniFEDA
Substitution2: "'medi' Medial Forms in Arabic lookup 11 subtable" uniFEDC
Substitution2: "'init' Initial Forms in Arabic lookup 13 subtable" uniFEDB
EndChar

StartChar: uni0644
Encoding: 1604 1604 39
GlifName: uni0644
Width: 1000
VWidth: 2950
GlyphClass: 2
Flags: W
AnchorPoint: "Anchor-7" 377.902 -658.086 basechar 0
AnchorPoint: "Anchor-10" 345.908 1003.66 basechar 0
LayerCount: 2
Fore
SplineSet
408.229492188 -246.216796875 m 4,0,1
 795.55859375 -246.999023438 795.55859375 -246.999023438 796.604492188 147.798828125 c 6,2,-1
 799.912109375 1395.99316406 l 5,3,-1
 965.884765625 1395.99316406 l 5,4,-1
 965.185546875 167.32421875 l 6,5,6
 965 -417 965 -417 407.329101562 -416.724609375 c 28,7,8
 184.068359375 -415.298828125 184.068359375 -415.298828125 45 -327.9921875 c 4,9,10
 -157 -201 -157 -201 -156.247070312 99.041015625 c 4,11,12
 -156 257 -156 257 -90.54296875 446.122070312 c 5,13,-1
 68.90234375 400.791992188 l 5,14,15
 15 233 15 233 15.2685546875 100.861328125 c 4,16,17
 15 -246 15 -246 408.229492188 -246.216796875 c 4,0,1
EndSplineSet
Substitution2: "'fina' Terminal Forms in Arabic lookup 9 subtable" uniFEDE
Substitution2: "'medi' Medial Forms in Arabic lookup 11 subtable" uniFEE0
Substitution2: "'init' Initial Forms in Arabic lookup 13 subtable" uniFEDF
EndChar

StartChar: uni0645
Encoding: 1605 1605 40
GlifName: uni0645
Width: 1000
VWidth: 2620
GlyphClass: 2
Flags: W
AnchorPoint: "Anchor-7" 608.983 -292.909 basechar 0
AnchorPoint: "Anchor-10" 581.239 1132.48 basechar 0
LayerCount: 2
Fore
SplineSet
289.346679688 147.747070312 m 4,0,1
 137 146 137 146 137.751953125 -290.002929688 c 4,2,3
 138 -485 138 -485 151.634765625 -644.813476562 c 5,4,-1
 -17.892578125 -644.813476562 l 5,5,6
 -29 -473 -29 -473 -29.0234375 -316 c 4,7,8
 -29 10 -29 10 49.7822265625 166.091796875 c 4,9,10
 130.0390625 324.077148438 130.0390625 324.077148438 258.060546875 346.029296875 c 6,11,-1
 259.381835938 346.255859375 l 5,12,-1
 259.673828125 347.564453125 l 6,13,14
 293 496 293 496 356.586914062 579.44921875 c 4,15,16
 456 709 456 709 617.333007812 709.532226562 c 4,17,18
 785 710 785 710 890.862304688 576.84765625 c 4,19,20
 973 474 973 474 972.474609375 309.612304688 c 4,21,22
 972 162 972 162 880 72 c 4,23,24
 800 -7 800 -7 666.20703125 -7.2431640625 c 4,25,26
 511 -7 511 -7 405.3515625 82.3974609375 c 4,27,28
 328 148 328 148 289.346679688 147.747070312 c 4,0,1
650.724609375 166.75 m 4,29,30
 752 167 752 167 791.7421875 238.0625 c 4,31,32
 809 269 809 269 809.864257812 306.965820312 c 4,33,34
 811 356 811 356 791.57421875 405.76171875 c 4,35,36
 765 474 765 474 712.02734375 505.3359375 c 4,37,38
 672 529 672 529 620.611328125 529.158203125 c 4,39,40
 455.862304688 529 455.862304688 529 427.557617188 310.28515625 c 6,41,-1
 427.4609375 309.538085938 l 5,42,-1
 427.880859375 308.913085938 l 6,43,44
 523 167 523 167 650.724609375 166.75 c 4,29,30
EndSplineSet
Substitution2: "'init' Initial Forms in Arabic lookup 13 subtable" uniFEE3
Substitution2: "'medi' Medial Forms in Arabic lookup 11 subtable" uniFEE4
Substitution2: "'fina' Terminal Forms in Arabic lookup 9 subtable" uniFEE2
EndChar

StartChar: uni0647
Encoding: 1607 1607 42
GlifName: uni0647
Width: 1000
VWidth: 2950
GlyphClass: 2
Flags: W
AnchorPoint: "Anchor-10" 438.775 1227.01 basechar 0
AnchorPoint: "Anchor-7" 470.63 -242.576 basechar 0
LayerCount: 2
Fore
SplineSet
480.549804688 643.671875 m 6,0,1
 290.000976562 476.908203125 290.000976562 476.908203125 289.884765625 348.98828125 c 4,2,3
 290.000976562 181 290.000976562 181 495.345703125 180.9921875 c 4,4,5
 703.006835938 181 703.006835938 181 702.423828125 350.155273438 c 4,6,7
 701.99609375 468.96484375 701.99609375 468.96484375 483.115234375 643.729492188 c 6,8,-1
 481.80859375 644.7734375 l 5,9,-1
 480.549804688 643.671875 l 6,0,1
413 927 m 5,10,11
 869 603 869 603 868.791992188 344.375 c 4,12,13
 869 184 869 184 753 87 c 4,14,15
 653.6953125 4.41015625 653.6953125 4.41015625 496.047851562 4.1943359375 c 4,16,17
 354 4 354 4 259 69 c 4,18,19
 125 160 125 160 123.368164062 343.791992188 c 4,20,21
 122 532 122 532 345.002929688 758.74609375 c 5,22,-1
 343.083007812 760.141601562 l 5,23,-1
 313.448242188 781.692382812 l 5,24,-1
 413 927 l 5,10,11
EndSplineSet
Substitution2: "'fina' Terminal Forms in Arabic lookup 9 subtable" uniFEEA
Substitution2: "'medi' Medial Forms in Arabic lookup 11 subtable" uniFEEC
Substitution2: "'init' Initial Forms in Arabic lookup 13 subtable" uniFEEB
EndChar

StartChar: uni0648
Encoding: 1608 1608 43
GlifName: uni0648
Width: 1000
VWidth: 2142
GlyphClass: 2
Flags: W
AnchorPoint: "Anchor-7" 362.969 -675.998 basechar 0
AnchorPoint: "Anchor-10" 439.256 1142.2 basechar 0
LayerCount: 2
Fore
SplineSet
737.076171875 531.661132812 m 4,0,1
 793 416 793 416 808.404296875 263 c 4,2,3
 814 207 814 207 814.065429688 155 c 4,4,5
 814 -79 814 -79 697 -222.810546875 c 4,6,7
 531 -427 531 -427 137.046875 -465.592773438 c 5,8,-1
 107.650390625 -302.475585938 l 5,9,10
 547 -268 547 -268 628.123046875 0 c 5,11,-1
 570.192382812 0.8115234375 l 6,12,13
 140 7 140 7 140.004882812 332.353515625 c 4,14,15
 140 486 140 486 226.5625 595.634765625 c 4,16,17
 314 705 314 705 458.104492188 705.077148438 c 4,18,19
 653 705 653 705 737.076171875 531.661132812 c 4,0,1
642.625976562 182.731445312 m 6,20,21
 620.534179688 525 620.534179688 525 457.401367188 525.124023438 c 4,22,23
 384 525 384 525 342.392578125 469.725585938 c 4,24,25
 303 416 303 416 303.159179688 344.564453125 c 4,26,27
 303 184.185546875 303 184.185546875 568.935546875 181.36328125 c 6,28,-1
 640.611328125 180.602539062 l 5,29,-1
 642.764648438 180.583007812 l 5,30,-1
 642.625976562 182.731445312 l 6,20,21
EndSplineSet
Substitution2: "'fina' Terminal Forms in Arabic lookup 9 subtable" uniFEEE
EndChar

StartChar: uni0649
Encoding: 1609 1609 44
GlifName: uni0649
Width: 1000
VWidth: 2950
GlyphClass: 2
Flags: MW
AnchorPoint: "Anchor-10" 286.6 1048.22 basechar 0
AnchorPoint: "Anchor-7" 350.902 -632.086 basechar 0
LayerCount: 2
Fore
SplineSet
382.405273438 -227.203125 m 0,0,1
 622 -226 622 -226 737 -133 c 0,2,3
 758 -116 758 -116 772.551757812 31.4140625 c 1,4,5
 773.992306401 96.6515832236 773.992306401 96.6515832236 742.596679688 97.0146484375 c 2,6,-1
 662.034179688 97.9462890625 l 2,7,8
 425 101 425 101 422 316.024414062 c 0,9,10
 419 560 419 560 608.103515625 685.374023438 c 0,11,12
 746 777 746 777 925.373046875 781.505859375 c 1,13,-1
 925.077148438 592.713867188 l 1,14,15
 726 590 726 590 632.436523438 459.66796875 c 0,16,17
 592 404 592 404 593.303710938 329.970703125 c 0,18,19
 593.998957388 280.074825339 593.998957388 280.074825339 655.998046875 280.037109375 c 2,20,-1
 717 280 l 2,21,22
 944 280 944 280 942.649414062 68 c 0,23,24
 942 -101 942 -101 830 -220 c 0,25,26
 665 -397 665 -397 375.326171875 -397.724609375 c 0,27,28
 145 -398 145 -398 -1 -312.764648438 c 4,29,30
 -229 -179 -229 -179 -228.247070312 149.041015625 c 4,31,32
 -228 352 -228 352 -161.4453125 547.330078125 c 5,33,-1
 -3 502 l 5,34,35
 -57 322 -57 322 -56.7314453125 150.861328125 c 4,36,37
 -57 -229 -57 -229 382.405273438 -227.203125 c 0,0,1
EndSplineSet
Substitution2: "'fina' Terminal Forms in Arabic lookup 9 subtable" uniFEF0
Substitution2: "'medi' Medial Forms in Arabic lookup 11 subtable" uniFBE9
Substitution2: "'init' Initial Forms in Arabic lookup 13 subtable" uniFBE8
EndChar

StartChar: uni064B
Encoding: 1611 1611 46
GlifName: uni064B_
Width: -26
VWidth: 2314
GlyphClass: 4
Flags: W
AnchorPoint: "Anchor-10" 593.551 1111.65 mark 0
AnchorPoint: "Anchor-9" 593.551 1111.65 mark 0
AnchorPoint: "Anchor-1" 553.285 1664.25 basemark 0
AnchorPoint: "Anchor-1" 593.551 1111.65 mark 0
LayerCount: 2
Fore
SplineSet
328.700195312 1077.37988281 m 1,0,-1
 328.700195312 1176.63476562 l 1,1,-1
 780.099609375 1361.29882812 l 1,2,-1
 780.099609375 1262.04296875 l 1,3,-1
 328.700195312 1077.37988281 l 1,0,-1
328.700195312 1329.37988281 m 1,4,-1
 328.700195312 1428.63476562 l 1,5,-1
 780.099609375 1613.29882812 l 1,6,-1
 780.099609375 1514.04296875 l 1,7,-1
 328.700195312 1329.37988281 l 1,4,-1
EndSplineSet
EndChar

StartChar: uni064C
Encoding: 1612 1612 47
GlifName: uni064C_
Width: -26
VWidth: 2314
GlyphClass: 4
Flags: W
AnchorPoint: "Anchor-10" 672.906 1228.67 mark 0
AnchorPoint: "Anchor-9" 672.906 1228.67 mark 0
AnchorPoint: "Anchor-1" 571.739 1913.46 basemark 0
AnchorPoint: "Anchor-1" 672.906 1228.67 mark 0
LayerCount: 2
Fore
SplineSet
586.173828125 1716.4921875 m 0,0,1
 566.006835938 1692.74316406 566.006835938 1692.74316406 565.713867188 1662.09765625 c 0,2,3
 566 1604.08984375 566 1604.08984375 632.806640625 1576.00195312 c 1,4,-1
 707.20703125 1550.91699219 l 1,5,-1
 708.70703125 1550.46875 l 1,6,-1
 709.501953125 1551.81738281 l 2,7,8
 713.423828125 1558.46875 713.423828125 1558.46875 716.788085938 1565.15917969 c 128,-1,9
 720.151367188 1571.84960938 720.151367188 1571.84960938 722.95703125 1578.58105469 c 128,-1,10
 725.762695312 1585.3125 725.762695312 1585.3125 728.008789062 1592.08007812 c 128,-1,11
 730.25390625 1598.84765625 730.25390625 1598.84765625 731.940429688 1605.65527344 c 128,-1,12
 733.625976562 1612.46191406 733.625976562 1612.46191406 734.750976562 1619.30371094 c 128,-1,13
 735.875976562 1626.14550781 735.875976562 1626.14550781 736.438476562 1633.02636719 c 128,-1,14
 737.001953125 1639.90722656 737.001953125 1639.90722656 737.001953125 1646.8203125 c 0,15,16
 737 1747.01757812 737 1747.01757812 654.286132812 1746.29394531 c 0,17,18
 611.065429688 1745.99316406 611.065429688 1745.99316406 586.173828125 1716.4921875 c 0,0,1
316.834960938 1510.47949219 m 1,19,20
 319 1397 319 1397 353.145507812 1340.97363281 c 0,21,22
 388 1284 388 1284 452.557617188 1285.27539062 c 0,23,24
 489 1286 489 1286 526.092773438 1304.51953125 c 128,-1,25
 563 1323 563 1323 601.911132812 1360.67773438 c 0,26,27
 624 1383 624 1383 645.416015625 1413.41210938 c 0,28,29
 667.06062069 1445.08871762 667.06062069 1445.08871762 686.413085938 1483.27929688 c 2,30,-1
 687.588867188 1485.59960938 l 1,31,-1
 685.043945312 1486.13964844 l 1,32,-1
 655.4609375 1492.41796875 l 2,33,34
 642 1495 642 1495 624.004882812 1500.30371094 c 0,35,36
 609 1505 609 1505 596.099609375 1509.64355469 c 0,37,38
 583 1515 583 1515 571.752929688 1520.41894531 c 0,39,40
 560 1526 560 1526 550.936523438 1532.62402344 c 0,41,42
 541 1539 541 1539 533.661132812 1546.23730469 c 0,43,44
 526 1553 526 1553 519.903320312 1561.25292969 c 0,45,46
 504 1582 504 1582 495.96484375 1605.43066406 c 0,47,48
 488 1628 488 1628 488 1653.09960938 c 0,49,50
 488 1704 488 1704 504.84765625 1736.78417969 c 0,51,52
 527 1779 527 1779 562.822265625 1800.0859375 c 0,53,54
 599 1821 599 1821 650.19140625 1821.4140625 c 0,55,56
 721 1822 721 1822 763.80078125 1780.84375 c 0,57,58
 811 1735 811 1735 811.390625 1648.359375 c 0,59,60
 811.994958365 1608.33391134 811.994958365 1608.33391134 789.83203125 1539.734375 c 2,61,-1
 789.032226562 1537.25878906 l 1,62,-1
 791.630859375 1537.12207031 l 1,63,-1
 821.76171875 1535.54003906 l 2,64,65
 851 1534 851 1534 878.497070312 1533.55273438 c 1,66,-1
 878.497070312 1459.05859375 l 1,67,68
 840.619192712 1459.98485828 840.619192712 1459.98485828 830.08203125 1460.99804688 c 2,69,-1
 753.91015625 1468.32226562 l 1,70,-1
 752.432617188 1468.46386719 l 1,71,-1
 751.869140625 1467.09082031 l 2,72,73
 737 1430 737 1430 716.833984375 1397.07910156 c 0,74,75
 697 1364 697 1364 668.5 1341 c 128,-1,76
 640 1318 640 1318 610.720703125 1292.63769531 c 4,77,78
 540 1230 540 1230 535.689941406 1228.37646484 c 0,79,80
 496 1211 496 1211 453.668945312 1210.96386719 c 0,81,82
 362 1210 362 1210 315.0625 1285.16308594 c 0,83,84
 268 1360 268 1360 265.181640625 1510.47949219 c 1,85,-1
 316.834960938 1510.47949219 l 1,19,20
EndSplineSet
EndChar

StartChar: uni064D
Encoding: 1613 1613 48
GlifName: uni064D_
Width: -26
VWidth: 2314
GlyphClass: 4
Flags: W
AnchorPoint: "Anchor-7" 532.278 35.7109 mark 0
AnchorPoint: "Anchor-6" 532.278 35.7109 mark 0
AnchorPoint: "Anchor-0" 592.022 -449.025 basemark 0
AnchorPoint: "Anchor-0" 532.278 35.7109 mark 0
LayerCount: 2
Fore
SplineSet
334.099609375 -485.020507812 m 1,0,-1
 334.099609375 -385.765625 l 1,1,-1
 785.5 -201.1015625 l 1,2,-1
 785.5 -300.357421875 l 1,3,-1
 334.099609375 -485.020507812 l 1,0,-1
334.099609375 -233.020507812 m 1,4,-1
 334.099609375 -133.765625 l 1,5,-1
 785.5 50.8984375 l 1,6,-1
 785.5 -48.357421875 l 1,7,-1
 334.099609375 -233.020507812 l 1,4,-1
EndSplineSet
EndChar

StartChar: uni064E
Encoding: 1614 1614 49
GlifName: uni064E_
Width: -26
VWidth: 2314
GlyphClass: 4
Flags: W
AnchorPoint: "Anchor-10" 557.66 1370.63 mark 0
AnchorPoint: "Anchor-9" 557.66 1370.63 mark 0
AnchorPoint: "Anchor-1" 541.396 1689.77 basemark 0
AnchorPoint: "Anchor-1" 557.66 1370.63 mark 0
LayerCount: 2
Fore
SplineSet
298.099609375 1350.07910156 m 1,0,-1
 298.099609375 1449.33496094 l 1,1,-1
 749.5 1633.99902344 l 1,2,-1
 749.5 1534.74316406 l 1,3,-1
 298.099609375 1350.07910156 l 1,0,-1
EndSplineSet
EndChar

StartChar: uni064F
Encoding: 1615 1615 50
GlifName: uni064F_
Width: -26
VWidth: 2314
GlyphClass: 4
Flags: W
AnchorPoint: "Anchor-10" 601.295 1307.37 mark 0
AnchorPoint: "Anchor-9" 601.295 1307.37 mark 0
AnchorPoint: "Anchor-1" 580.134 1918.4 basemark 0
AnchorPoint: "Anchor-1" 601.295 1307.37 mark 0
LayerCount: 2
Fore
SplineSet
820.65234375 1474.00292969 m 1,0,1
 805.640625 1474.02832031 805.640625 1474.02832031 792.26953125 1474.34667969 c 128,-1,2
 778.897460938 1474.66503906 778.897460938 1474.66503906 766.923828125 1475.28710938 c 128,-1,3
 754.94921875 1475.90820312 754.94921875 1475.90820312 744.35546875 1476.828125 c 128,-1,4
 733.76171875 1477.74707031 733.76171875 1477.74707031 724.2578125 1478.98339844 c 2,5,-1
 692.940429688 1483.05664062 l 1,6,-1
 691.748046875 1483.21191406 l 1,7,-1
 691.051757812 1482.23144531 l 2,8,9
 657.923828125 1435.59277344 657.923828125 1435.59277344 618.232421875 1399.84179688 c 128,-1,10
 578.540039062 1364.09082031 578.540039062 1364.09082031 532.23828125 1339.19335938 c 128,-1,11
 485.936523438 1314.29492188 485.936523438 1314.29492188 433.052734375 1300.20605469 c 128,-1,12
 380.16796875 1286.11816406 380.16796875 1286.11816406 320.57421875 1282.78125 c 1,13,-1
 320.57421875 1357.01269531 l 1,14,15
 509.623046875 1365.83203125 509.623046875 1365.83203125 607.5390625 1504.34667969 c 2,16,-1
 609.319335938 1506.86425781 l 1,17,-1
 606.294921875 1507.46289062 l 2,18,19
 563.690429688 1515.90234375 563.690429688 1515.90234375 517.501953125 1541.19042969 c 0,20,21
 432.002929688 1589.16894531 432.002929688 1589.16894531 432.25 1673.52929688 c 0,22,23
 432.435546875 1689.49902344 432.435546875 1689.49902344 434.75 1704.10644531 c 128,-1,24
 437.064453125 1718.71484375 437.064453125 1718.71484375 441.505859375 1731.95800781 c 128,-1,25
 445.947265625 1745.20214844 445.947265625 1745.20214844 452.50390625 1757.08984375 c 128,-1,26
 459.059570312 1768.9765625 459.059570312 1768.9765625 467.739257812 1779.53320312 c 0,27,28
 512.938476562 1834 512.938476562 1834 592.971679688 1833.95996094 c 0,29,30
 623.173828125 1833.97949219 623.173828125 1833.97949219 649.268554688 1825.10546875 c 128,-1,31
 675.36328125 1816.23144531 675.36328125 1816.23144531 697.45703125 1798.44238281 c 0,32,33
 729.323242188 1772.78222656 729.323242188 1772.78222656 743.864257812 1734.50097656 c 0,34,35
 748.924804688 1720.59570312 748.924804688 1720.59570312 751.34765625 1705.32421875 c 128,-1,36
 753.770507812 1690.05371094 753.770507812 1690.05371094 753.545898438 1673.41894531 c 0,37,38
 753.366210938 1654.13867188 753.366210938 1654.13867188 750.466796875 1634.56542969 c 128,-1,39
 747.567382812 1614.99121094 747.567382812 1614.99121094 741.940429688 1595.09863281 c 128,-1,40
 736.313476562 1575.20703125 736.313476562 1575.20703125 727.959960938 1555.01269531 c 2,41,-1
 726.918945312 1552.49707031 l 1,42,-1
 729.629882812 1552.25585938 l 1,43,-1
 749.439453125 1550.49316406 l 2,44,45
 787.512695312 1547.12402344 787.512695312 1547.12402344 820.65234375 1548.20898438 c 1,46,-1
 820.65234375 1474.00292969 l 1,0,1
651.768554688 1566.984375 m 1,47,-1
 657.93359375 1581.20117188 l 2,48,49
 678.998046875 1629.58007812 678.998046875 1629.58007812 679.158203125 1671.72460938 c 0,50,51
 678.99609375 1713.95117188 678.99609375 1713.95117188 653.373046875 1734.9140625 c 0,52,53
 627.756835938 1756.98828125 627.756835938 1756.98828125 596.96484375 1757.47167969 c 0,54,55
 581.719726562 1757.65039062 581.719726562 1757.65039062 568.712890625 1754.11914062 c 128,-1,56
 555.705078125 1750.58789062 555.705078125 1750.58789062 544.954101562 1743.32519531 c 128,-1,57
 534.202148438 1736.06347656 534.202148438 1736.06347656 525.802734375 1725.10351562 c 0,58,59
 517.1171875 1713.34960938 517.1171875 1713.34960938 512.637695312 1699.58691406 c 128,-1,60
 508.159179688 1685.82421875 508.159179688 1685.82421875 507.868164062 1670.04296875 c 0,61,62
 508.00390625 1621.71679688 508.00390625 1621.71679688 574.896484375 1590.97558594 c 0,63,64
 598.305664062 1580.1171875 598.305664062 1580.1171875 649.395507812 1565.85351562 c 2,65,-1
 651.075195312 1565.38476562 l 1,66,-1
 651.768554688 1566.984375 l 1,47,-1
EndSplineSet
EndChar

StartChar: uni0650
Encoding: 1616 1616 51
GlifName: uni0650
Width: -26
VWidth: 2314
GlyphClass: 4
Flags: W
AnchorPoint: "Anchor-7" 563.144 -60.8242 mark 0
AnchorPoint: "Anchor-6" 563.144 -60.8242 mark 0
AnchorPoint: "Anchor-0" 602.091 -318.624 basemark 0
AnchorPoint: "Anchor-0" 563.144 -60.8242 mark 0
LayerCount: 2
Fore
SplineSet
344.900390625 -344.620117188 m 1,0,-1
 344.900390625 -245.365234375 l 1,1,-1
 796.299804688 -60.701171875 l 1,2,-1
 796.299804688 -159.95703125 l 1,3,-1
 344.900390625 -344.620117188 l 1,0,-1
EndSplineSet
EndChar

StartChar: uni0651
Encoding: 1617 1617 52
GlifName: uni0651
Width: -26
VWidth: 2391
GlyphClass: 4
Flags: W
AnchorPoint: "Anchor-10" 598.801 1461.71 mark 0
AnchorPoint: "Anchor-9" 598.801 1461.71 mark 0
AnchorPoint: "Anchor-1" 570.087 1847.1 basemark 0
AnchorPoint: "Anchor-1" 598.801 1461.71 mark 0
LayerCount: 2
Fore
SplineSet
582.95703125 1543.67480469 m 1,0,1
 558 1438 558 1438 431.990234375 1437.88964844 c 0,2,3
 300 1438 300 1438 296.302734375 1604.53027344 c 0,4,5
 295 1663 295 1663 308.534179688 1711.47167969 c 1,6,-1
 382.998046875 1699.09179688 l 1,7,8
 348 1532 348 1532 443.645507812 1531.90234375 c 0,9,10
 528 1531 528 1531 531.948242188 1647.13964844 c 0,11,12
 534 1697 534 1697 533.119140625 1764.46289062 c 1,13,-1
 606.504882812 1764.46289062 l 1,14,15
 608 1724 608 1724 608.623046875 1683.89648438 c 0,16,17
 608 1590 608 1590 676.705078125 1590.25195312 c 0,18,19
 779 1591 779 1591 733.483398438 1809.26269531 c 1,20,-1
 817.732421875 1822.60742188 l 1,21,22
 835 1762 835 1762 834.52734375 1703.04589844 c 0,23,24
 835 1503 835 1503 690.3828125 1501.66601562 c 0,25,26
 618 1501 618 1501 582.95703125 1543.67480469 c 1,0,1
EndSplineSet
EndChar

StartChar: uni0652
Encoding: 1618 1618 53
GlifName: uni0652
Width: -26
VWidth: 2314
GlyphClass: 4
Flags: W
AnchorPoint: "Anchor-10" 603.219 1220.43 mark 0
AnchorPoint: "Anchor-9" 603.219 1220.43 mark 0
AnchorPoint: "Anchor-1" 577.537 1797.66 basemark 0
AnchorPoint: "Anchor-1" 603.219 1220.43 mark 0
LayerCount: 2
Fore
SplineSet
400.139648438 1459.671875 m 0,0,1
 400.139648438 1540.74414062 400.139648438 1540.74414062 456.252929688 1596.85839844 c 128,-1,2
 512.3671875 1652.97167969 512.3671875 1652.97167969 593.439453125 1652.97167969 c 128,-1,3
 674.510742188 1652.97167969 674.510742188 1652.97167969 730.625 1596.85839844 c 0,4,5
 758.708007812 1568.77441406 758.708007812 1568.77441406 772.723632812 1534.51464844 c 128,-1,6
 786.739257812 1500.25488281 786.739257812 1500.25488281 786.739257812 1459.671875 c 0,7,8
 786.739257812 1378.60058594 786.739257812 1378.60058594 730.625 1322.48632812 c 0,9,10
 716.58203125 1308.44335938 716.58203125 1308.44335938 701.00390625 1297.92285156 c 128,-1,11
 685.426757812 1287.40234375 685.426757812 1287.40234375 668.28515625 1280.38964844 c 128,-1,12
 651.14453125 1273.37695312 651.14453125 1273.37695312 632.439453125 1269.87402344 c 128,-1,13
 613.734375 1266.37207031 613.734375 1266.37207031 593.439453125 1266.37207031 c 0,14,15
 552.856445312 1266.37207031 552.856445312 1266.37207031 518.596679688 1280.38769531 c 128,-1,16
 484.336914062 1294.40332031 484.336914062 1294.40332031 456.252929688 1322.48632812 c 128,-1,17
 428.169921875 1350.5703125 428.169921875 1350.5703125 414.155273438 1384.83007812 c 128,-1,18
 400.139648438 1419.08984375 400.139648438 1419.08984375 400.139648438 1459.671875 c 0,0,1
482.5390625 1458.77246094 m 0,19,20
 482.194335938 1411.0703125 482.194335938 1411.0703125 515.525390625 1378.15820312 c 0,21,22
 548.165039062 1345.09863281 548.165039062 1345.09863281 596.13671875 1345.171875 c 0,23,24
 643.421875 1345.09863281 643.421875 1345.09863281 676.758789062 1378.1640625 c 0,25,26
 709.39453125 1411.07128906 709.39453125 1411.07128906 709.739257812 1458.77246094 c 0,27,28
 709.39453125 1506.32714844 709.39453125 1506.32714844 676.752929688 1539.38574219 c 0,29,30
 665.65625 1550.34375 665.65625 1550.34375 652.982421875 1557.66796875 c 128,-1,31
 640.30859375 1564.99316406 640.30859375 1564.99316406 626.090820312 1568.66992188 c 128,-1,32
 611.873046875 1572.34765625 611.873046875 1572.34765625 596.13671875 1572.37207031 c 0,33,34
 548.166015625 1572.29882812 548.166015625 1572.29882812 515.53125 1539.39160156 c 0,35,36
 482.194335938 1506.32714844 482.194335938 1506.32714844 482.5390625 1458.77246094 c 0,19,20
EndSplineSet
EndChar

StartChar: uni0653
Encoding: 1619 1619 54
GlifName: uni0653
Width: -30
VWidth: 2671
GlyphClass: 4
Flags: W
AnchorPoint: "Anchor-10" 461.017 1537.11 mark 0
AnchorPoint: "Anchor-9" 461.017 1537.11 mark 0
AnchorPoint: "Anchor-1" 461.017 1973.25 basemark 0
AnchorPoint: "Anchor-1" 461.017 1537.11 mark 0
LayerCount: 2
Fore
SplineSet
400.62109375 1636.78613281 m 2,0,1
 344.918945312 1644.45214844 344.918945312 1644.45214844 293.795898438 1620.92773438 c 128,-1,2
 242.672851562 1597.40332031 242.672851562 1597.40332031 196.974609375 1543.62792969 c 1,3,-1
 98.2705078125 1647.49316406 l 1,4,5
 216.145507812 1815.12792969 216.145507812 1815.12792969 383.438476562 1788.18359375 c 2,6,-1
 532.178710938 1764.22753906 l 2,7,8
 629.478515625 1748.05957031 629.478515625 1748.05957031 751.0859375 1809.03808594 c 1,9,-1
 815.078125 1676.03417969 l 1,10,11
 751.182617188 1636.5390625 751.182617188 1636.5390625 682.859375 1621.94335938 c 128,-1,12
 614.53515625 1607.34667969 614.53515625 1607.34667969 541.141601562 1617.44726562 c 2,13,-1
 400.62109375 1636.78613281 l 2,0,1
EndSplineSet
EndChar

StartChar: uni0657
Encoding: 1623 1623 57
GlifName: uni0657
Width: -26
VWidth: 2314
GlyphClass: 4
Flags: W
AnchorPoint: "Anchor-10" 573.285 1348.55 mark 0
AnchorPoint: "Anchor-9" 573.285 1348.55 mark 0
AnchorPoint: "Anchor-1" 573.285 2087.85 basemark 0
AnchorPoint: "Anchor-1" 573.285 1348.55 mark 0
LayerCount: 2
Fore
SplineSet
266.529296875 1800.60253906 m 1,0,1
 325.3125 1798.8515625 325.3125 1798.8515625 394.318359375 1791.61230469 c 2,2,-1
 395.48828125 1791.49023438 l 1,3,-1
 396.1640625 1792.45214844 l 1,4,-1
 397.380859375 1794.18457031 l 2,5,6
 545.303710938 2004.95117188 545.303710938 2004.95117188 782.673828125 2028.51074219 c 1,7,-1
 782.673828125 1954.29394531 l 1,8,9
 598.282226562 1924.04882812 598.282226562 1924.04882812 484.698242188 1777.41601562 c 2,10,-1
 482.904296875 1775.10058594 l 1,11,-1
 485.713867188 1774.2734375 l 2,12,13
 547.100585938 1756.1796875 547.100585938 1756.1796875 589.91796875 1724.87207031 c 0,14,15
 656 1675.00390625 656 1675.00390625 655.9765625 1596.87011719 c 0,16,17
 656 1527.81152344 656 1527.81152344 611.818359375 1482.31933594 c 0,18,19
 569.149414062 1438 569.149414062 1438 501.358398438 1438.01367188 c 0,20,21
 464.551757812 1438.00683594 464.551757812 1438.00683594 433.017578125 1450.88671875 c 128,-1,22
 401.484375 1463.76757812 401.484375 1463.76757812 375.107421875 1489.57910156 c 0,23,24
 333.99609375 1530.83105469 333.99609375 1530.83105469 333.635742188 1601.27636719 c 0,25,26
 333.997070312 1644.68945312 333.997070312 1644.68945312 357.283203125 1719.83300781 c 2,27,-1
 358.016601562 1722.19824219 l 1,28,-1
 355.549804688 1722.41699219 l 2,29,30
 342.495117188 1723.57324219 342.495117188 1723.57324219 327.922851562 1724.40820312 c 128,-1,31
 313.350585938 1725.24316406 313.350585938 1725.24316406 297.953125 1725.73046875 c 128,-1,32
 282.555664062 1726.21777344 282.555664062 1726.21777344 266.529296875 1726.36035156 c 1,33,-1
 266.529296875 1800.60253906 l 1,0,1
501.374023438 1512.40234375 m 0,34,35
 543.026367188 1513.01464844 543.026367188 1513.01464844 563.370117188 1540.83984375 c 0,36,37
 571.200195312 1552.12890625 571.200195312 1552.12890625 575.176757812 1565.56933594 c 128,-1,38
 579.153320312 1579.00976562 579.153320312 1579.00976562 579.313476562 1594.62890625 c 0,39,40
 579.267578125 1603.33398438 579.267578125 1603.33398438 577.587890625 1611.49023438 c 128,-1,41
 575.907226562 1619.64648438 575.907226562 1619.64648438 572.611328125 1627.21777344 c 128,-1,42
 569.31640625 1634.7890625 569.31640625 1634.7890625 564.405273438 1641.80859375 c 128,-1,43
 559.495117188 1648.828125 559.495117188 1648.828125 552.997070312 1655.26757812 c 128,-1,44
 546.499023438 1661.70703125 546.499023438 1661.70703125 538.405273438 1667.59082031 c 128,-1,45
 530.311523438 1673.47558594 530.311523438 1673.47558594 520.657226562 1678.78417969 c 128,-1,46
 511.00390625 1684.09277344 511.00390625 1684.09277344 499.7734375 1688.84472656 c 0,47,48
 493.54296875 1691.45703125 493.54296875 1691.45703125 487.321289062 1693.82519531 c 128,-1,49
 481.099609375 1696.19238281 481.099609375 1696.19238281 474.88671875 1698.31542969 c 128,-1,50
 468.672851562 1700.43847656 468.672851562 1700.43847656 462.46875 1702.31640625 c 128,-1,51
 456.264648438 1704.19433594 456.264648438 1704.19433594 450.069335938 1705.82617188 c 128,-1,52
 443.873046875 1707.45898438 443.873046875 1707.45898438 437.686523438 1708.84570312 c 2,53,-1
 436.0625 1709.20996094 l 1,54,-1
 435.409179688 1707.67871094 l 2,55,56
 408 1643.40820312 408 1643.40820312 408.0234375 1602.96679688 c 0,57,58
 408.01171875 1592.30078125 408.01171875 1592.30078125 409.741210938 1582.96679688 c 128,-1,59
 411.470703125 1573.6328125 411.470703125 1573.6328125 414.956054688 1565.64648438 c 128,-1,60
 418.448242188 1557.62890625 418.448242188 1557.62890625 423.635742188 1550.62304688 c 128,-1,61
 428.82421875 1543.6171875 428.82421875 1543.6171875 435.665039062 1537.66210938 c 128,-1,62
 442.504882812 1531.70605469 442.504882812 1531.70605469 450.99609375 1526.78710938 c 0,63,64
 463.706054688 1519.40625 463.706054688 1519.40625 476.307617188 1515.80175781 c 128,-1,65
 488.91015625 1512.19628906 488.91015625 1512.19628906 501.374023438 1512.40234375 c 0,34,35
EndSplineSet
EndChar

StartChar: uni065A
Encoding: 1626 1626 58
GlifName: uni065A_
Width: 1135
VWidth: 2314
GlyphClass: 4
Flags: W
AnchorPoint: "Anchor-10" 573.285 1348.55 mark 0
AnchorPoint: "Anchor-9" 573.285 1348.55 mark 0
AnchorPoint: "Anchor-1" 571.012 1860.38 basemark 0
AnchorPoint: "Anchor-1" 573.285 1348.55 mark 0
LayerCount: 2
Fore
SplineSet
503.500976562 1444.42578125 m 1,0,-1
 312.05078125 1764.49023438 l 1,1,-1
 411.852539062 1764.49023438 l 1,2,-1
 571.62109375 1524.83007812 l 1,3,-1
 573.28515625 1522.33398438 l 1,4,-1
 574.94921875 1524.83007812 l 1,5,-1
 734.71875 1764.49023438 l 1,6,-1
 834.521484375 1764.49023438 l 1,7,-1
 643.068359375 1444.42578125 l 1,8,-1
 503.500976562 1444.42578125 l 1,0,-1
EndSplineSet
EndChar

StartChar: afii57392
Encoding: 1632 1632 59
GlifName: afii57392
Width: 1000
VWidth: 2952
GlyphClass: 2
Flags: W
LayerCount: 2
Fore
SplineSet
349.290039062 543.262695312 m 132,-1,1
 349.290039062 483.686523438 349.290039062 483.686523438 390.400390625 442.579101562 c 4,2,3
 410.923828125 422.0546875 410.923828125 422.0546875 436.515625 411.638671875 c 132,-1,4
 462.106445312 401.22265625 462.106445312 401.22265625 492.592773438 400.966796875 c 4,5,6
 552.68359375 401.48046875 552.68359375 401.48046875 593.782226562 442.579101562 c 4,7,8
 614.297851562 463.094726562 614.297851562 463.094726562 624.594726562 488.3203125 c 132,-1,9
 634.890625 513.545898438 634.890625 513.545898438 634.890625 543.262695312 c 132,-1,10
 634.890625 572.98046875 634.890625 572.98046875 624.594726562 598.20703125 c 132,-1,11
 614.298828125 623.432617188 614.298828125 623.432617188 593.782226562 643.94921875 c 4,12,13
 552.68359375 685.046875 552.68359375 685.046875 491.587890625 685.560546875 c 4,14,15
 461.594726562 685.3046875 461.594726562 685.3046875 436.258789062 674.887695312 c 132,-1,16
 410.922851562 664.470703125 410.922851562 664.470703125 390.400390625 643.94921875 c 4,17,0
 349.290039062 602.83984375 349.290039062 602.83984375 349.290039062 543.262695312 c 132,-1,1
263.629882812 767.463867188 m 4,18,19
 286.936523438 790.76953125 286.936523438 790.76953125 312.502929688 808.217773438 c 132,-1,20
 338.0703125 825.666992188 338.0703125 825.666992188 365.919921875 837.284179688 c 4,21,22
 421.620117188 860.51953125 421.620117188 860.51953125 486.678710938 860.51953125 c 4,23,24
 530.053710938 860.51953125 530.053710938 860.51953125 569.258789062 850.193359375 c 132,-1,25
 608.46484375 839.8671875 608.46484375 839.8671875 643.568359375 819.192382812 c 132,-1,26
 678.672851562 798.518554688 678.672851562 798.518554688 709.727539062 767.463867188 c 4,27,28
 756.303710938 720.887695312 756.303710938 720.887695312 779.543945312 665.178710938 c 132,-1,29
 802.784179688 609.469726562 802.784179688 609.469726562 802.784179688 544.4140625 c 4,30,31
 802.784179688 414.420898438 802.784179688 414.420898438 709.727539062 321.364257812 c 4,32,33
 686.422851562 298.059570312 686.422851562 298.059570312 660.858398438 280.65234375 c 132,-1,34
 635.29296875 263.244140625 635.29296875 263.244140625 607.446289062 251.705078125 c 132,-1,35
 579.586914062 240.16015625 579.586914062 240.16015625 549.411132812 234.466796875 c 132,-1,36
 519.235351562 228.774414062 519.235351562 228.774414062 486.625 228.923828125 c 4,37,38
 421.583007812 228.625 421.583007812 228.625 365.895507812 251.70703125 c 4,39,40
 347.336914062 259.399414062 347.336914062 259.399414062 329.796875 269.6953125 c 132,-1,41
 312.256835938 279.991210938 312.256835938 279.991210938 295.711914062 292.909179688 c 132,-1,42
 279.166992188 305.827148438 279.166992188 305.827148438 263.629882812 321.364257812 c 4,43,44
 217.055664062 367.939453125 217.055664062 367.939453125 193.81640625 423.6484375 c 132,-1,45
 170.577148438 479.357421875 170.577148438 479.357421875 170.577148438 544.415039062 c 132,-1,46
 170.577148438 609.475585938 170.577148438 609.475585938 193.811523438 665.17578125 c 132,-1,47
 217.049804688 720.883789062 217.049804688 720.883789062 263.629882812 767.463867188 c 4,18,19
EndSplineSet
EndChar

StartChar: afii57393
Encoding: 1633 1633 60
GlifName: afii57393
Width: 1000
VWidth: 2952
GlyphClass: 2
Flags: W
LayerCount: 2
Fore
SplineSet
409.71875 1366.01269531 m 5,0,1
 614.115234375 917.747070312 614.115234375 917.747070312 614.115234375 278.771484375 c 6,2,-1
 614.115234375 11.5537109375 l 5,3,-1
 434.796875 11.5537109375 l 5,4,-1
 434.791992188 281.91796875 l 6,5,6
 435 923 435 923 244.876953125 1307.90820312 c 5,7,-1
 409.71875 1366.01269531 l 5,0,1
EndSplineSet
EndChar

StartChar: afii57394
Encoding: 1634 1634 61
GlifName: afii57394
Width: 1000
VWidth: 2952
GlyphClass: 2
Flags: W
LayerCount: 2
Fore
SplineSet
364.4296875 771.508789062 m 1,0,1
 398.115234375 512.112635644 398.115234375 512.112635644 398.115234375 278.771484375 c 2,2,-1
 398.115234375 11.5537109375 l 1,3,-1
 218.796875 11.5537109375 l 1,4,-1
 218.791992188 281.91796875 l 2,5,6
 219 923 219 923 28.876953125 1307.90820312 c 1,7,-1
 193.497070312 1365.9375 l 1,8,-1
 295.250976562 1084.26855469 l 1,9,10
 356 912 356 912 559.032226562 911.76953125 c 0,11,12
 647 912 647 912 698 1012 c 128,-1,13
 749 1112 749 1112 749.948242188 1354.54394531 c 1,14,-1
 929.693359375 1353.99023438 l 1,15,16
 926 983 926 983 822.633789062 853.705078125 c 0,17,18
 719 724 719 724 563.243164062 724.568359375 c 0,19,20
 438 725 438 725 364.4296875 771.508789062 c 1,0,1
EndSplineSet
EndChar

StartChar: afii57395
Encoding: 1635 1635 62
GlifName: afii57395
Width: 1000
VWidth: 2952
GlyphClass: 2
Flags: W
LayerCount: 2
Fore
SplineSet
330.080078125 774.03515625 m 1,0,1
 364.115234375 476.99429526 364.115234375 476.99429526 364.115234375 278.771484375 c 2,2,-1
 364.115234375 11.5537109375 l 1,3,-1
 214.796875 11.5537109375 l 5,4,-1
 214.791992188 281.916992188 l 6,5,6
 215 955 215 955 38.876953125 1307.90820312 c 1,7,-1
 179.466796875 1365.92675781 l 1,8,-1
 269.159179688 1051.63671875 l 2,9,10
 304 929 304 929 400.522460938 927.631835938 c 0,11,12
 520.313721964 926.998340937 520.313721964 926.998340937 514.365234375 1184.56054688 c 2,13,-1
 511.662109375 1301.60253906 l 1,14,-1
 630.317382812 1306.65332031 l 1,15,-1
 634.010742188 1162.3984375 l 2,16,17
 640 923 640 923 740.541992188 920.891601562 c 0,18,19
 770 920 770 920 799.5390625 985.587890625 c 128,-1,20
 829.078331056 1051.17391842 829.078331056 1051.17391842 829.518554688 1238.29785156 c 2,21,-1
 829.831054688 1371.13085938 l 1,22,-1
 966.633789062 1371.29394531 l 1,23,-1
 966.0546875 1240.61523438 l 2,24,25
 966 1182 966 1182 958.708984375 1093.52148438 c 0,26,27
 930 734 930 734 746.673828125 737.768554688 c 0,28,29
 687 739 687 739 587.467773438 853.89453125 c 1,30,31
 492 737 492 737 418.388671875 737 c 0,32,33
 375 737 375 737 330.080078125 774.03515625 c 1,0,1
EndSplineSet
EndChar

StartChar: afii57396
Encoding: 1636 1636 63
GlifName: afii57396
Width: 1000
VWidth: 2952
GlyphClass: 2
Flags: W
LayerCount: 2
Fore
SplineSet
139.309570312 298.82421875 m 0,0,1
 131 533 131 533 531.677734375 710.083007812 c 5,2,3
 221 773 221 773 221.663085938 1017.95703125 c 4,4,5
 222 1109 222 1109 269.499023438 1177.296875 c 4,6,7
 382 1341 382 1341 666 1344.328125 c 4,8,9
 733 1345 733 1345 810.08203125 1335.38085938 c 5,10,-1
 797.461914062 1153.27636719 l 5,11,12
 747 1159 747 1159 704 1159.45898438 c 4,13,14
 422 1160 422 1160 420.830078125 1000.08496094 c 4,15,16
 420 859 420 859 777.768554688 829.708984375 c 5,17,-1
 780.048828125 646.10546875 l 5,18,19
 316 460 316 460 325.516601562 307.264648438 c 0,20,21
 333.021138397 180.643339549 333.021138397 180.643339549 713.831054688 183.053710938 c 2,22,-1
 907.767578125 184.28125 l 1,23,-1
 909.984375 0.01953125 l 1,24,-1
 707.081054688 0.46875 l 2,25,26
 150 2 150 2 139.309570312 298.82421875 c 0,0,1
EndSplineSet
EndChar

StartChar: afii57397
Encoding: 1637 1637 64
GlifName: afii57397
Width: 1000
VWidth: 2952
GlyphClass: 2
Flags: W
LayerCount: 2
Fore
SplineSet
515.591796875 1015.64550781 m 5,0,1
 245 727 245 727 244.721679688 488.224609375 c 4,2,3
 245 335 245 335 348.696289062 255.071289062 c 4,4,5
 433 190 433 190 569.083984375 190.291015625 c 4,6,7
 659 190 659 190 740.265625 286.330078125 c 4,8,9
 802 359 802 359 801.259765625 495.30859375 c 4,10,11
 801 801 801 801 515.591796875 1015.64550781 c 5,0,1
312.208984375 1175.90136719 m 5,12,-1
 421.911132812 1334.72949219 l 5,13,14
 946 998 946 998 946.706054688 472.263671875 c 4,15,16
 947 178 947 178 796.158203125 83.97265625 c 4,17,18
 673 8 673 8 565.247070312 8.388671875 c 4,19,20
 399 9 399 9 268.077148438 80.3515625 c 4,21,22
 66 190 66 190 68.62890625 470.9453125 c 4,23,24
 72 806 72 806 366.9921875 1133.9296875 c 5,25,-1
 312.208984375 1175.90136719 l 5,12,-1
EndSplineSet
EndChar

StartChar: afii57398
Encoding: 1638 1638 65
GlifName: afii57398
Width: 1000
VWidth: 2952
GlyphClass: 2
Flags: W
LayerCount: 2
Fore
SplineSet
784.34765625 11.5537109375 m 1,0,1
 663 509 663 509 651.403320312 1117.33789062 c 1,2,3
 482 1071 482 1071 426.151367188 1070.50097656 c 4,4,5
 246 1070 246 1070 61.41796875 1153.32128906 c 1,6,-1
 61.41796875 1363.89746094 l 1,7,8
 259 1272 259 1272 472.328125 1272.2421875 c 4,9,10
 582 1272 582 1272 815.52734375 1365.73535156 c 1,11,12
 827 498 827 498 973.075195312 11.5537109375 c 1,13,-1
 784.34765625 11.5537109375 l 1,0,1
EndSplineSet
EndChar

StartChar: afii57399
Encoding: 1639 1639 66
GlifName: afii57399
Width: 1000
VWidth: 2952
GlyphClass: 2
Flags: W
LayerCount: 2
Fore
SplineSet
972.606445312 1310.14648438 m 5,0,1
 806 975 806 975 594.271484375 11.5537109375 c 5,2,-1
 446.603515625 11.5537109375 l 5,3,4
 262 850 262 850 38.2646484375 1300.1328125 c 5,5,-1
 176.727539062 1365.70214844 l 5,6,7
 391 907 391 907 520.446289062 327.130859375 c 5,8,9
 668 989 668 989 844.1640625 1365.703125 c 5,10,-1
 972.606445312 1310.14648438 l 5,0,1
EndSplineSet
EndChar

StartChar: afii57400
Encoding: 1640 1640 67
GlifName: afii57400
Width: 1000
VWidth: 2952
GlyphClass: 2
Flags: W
LayerCount: 2
Fore
SplineSet
38.2646484375 68.1103515625 m 5,0,1
 204.87109375 403.256835938 204.87109375 403.256835938 416.599609375 1366.703125 c 5,2,-1
 564.267578125 1366.703125 l 5,3,4
 748.87109375 528.256835938 748.87109375 528.256835938 972.606445312 78.1240234375 c 5,5,-1
 834.143554688 12.5546875 l 5,6,7
 619.87109375 471.256835938 619.87109375 471.256835938 490.424804688 1051.12597656 c 5,8,9
 342.87109375 389.256835938 342.87109375 389.256835938 166.70703125 12.5537109375 c 5,10,-1
 38.2646484375 68.1103515625 l 5,0,1
EndSplineSet
EndChar

StartChar: afii57401
Encoding: 1641 1641 68
GlifName: afii57401
Width: 1000
VWidth: 2952
GlyphClass: 2
Flags: W
LayerCount: 2
Fore
SplineSet
459.53125 573.165039062 m 6,0,1
 72 573.165039062 72 573.165039062 71.9462890625 915.935546875 c 4,2,3
 72 1061 72 1061 142.5 1174.5 c 4,4,5
 264 1370 264 1370 475.064453125 1370.31542969 c 4,6,7
 844 1370 844 1370 868.947265625 871.424804688 c 4,8,9
 892 419 892 419 901.782226562 11.5537109375 c 5,10,-1
 729.748046875 11.5537109375 l 5,11,-1
 716.065429688 632.900390625 l 5,12,13
 596.331054688 573.165039062 596.331054688 573.165039062 460.260742188 573.165039062 c 6,14,-1
 459.53125 573.165039062 l 6,0,1
462.727539062 754.890625 m 4,15,16
 569 755 569 755 698.341796875 819.395507812 c 5,17,-1
 696.405273438 842.450195312 l 6,18,19
 668 1179 668 1179 483.736328125 1178.7265625 c 4,20,21
 371 1179 371 1179 305.901367188 1090.36914062 c 4,22,23
 247 1010 247 1010 247.008789062 925.302734375 c 4,24,25
 247 755 247 755 462.727539062 754.890625 c 4,15,16
EndSplineSet
EndChar

StartChar: afii57381
Encoding: 1642 1642 69
GlifName: afii57381
Width: 1000
VWidth: 4038
GlyphClass: 2
Flags: W
LayerCount: 2
Fore
SplineSet
619.512695312 345.344726562 m 132,-1,1
 619.512695312 415.227539062 619.512695312 415.227539062 669.518554688 464.306640625 c 4,2,3
 718.588867188 513.376953125 718.588867188 513.376953125 788.5 513.83984375 c 4,4,5
 823.512695312 514.071289062 823.512695312 514.071289062 853.178710938 501.719726562 c 132,-1,6
 882.844726562 489.368164062 882.844726562 489.368164062 907.442382812 464.306640625 c 4,7,8
 932.016601562 439.731445312 932.016601562 439.731445312 944.259765625 410.045898438 c 132,-1,9
 956.50390625 380.360351562 956.50390625 380.360351562 956.50390625 345.344726562 c 4,10,11
 956.50390625 275.443359375 956.50390625 275.443359375 907.442382812 226.380859375 c 132,-1,12
 858.379882812 177.318359375 858.379882812 177.318359375 788.48046875 177.318359375 c 132,-1,13
 718.580078125 177.318359375 718.580078125 177.318359375 669.499023438 226.400390625 c 4,14,0
 619.512695312 275.459960938 619.512695312 275.459960938 619.512695312 345.344726562 c 132,-1,1
70.96875 1199.37011719 m 4,15,16
 71 1269 71 1269 120.965820312 1318.32324219 c 4,17,18
 170 1367 170 1367 239.958007812 1367.86523438 c 4,19,20
 310 1368 310 1368 358.895507812 1318.33496094 c 4,21,22
 408 1269 408 1269 407.959960938 1199.37011719 c 4,23,24
 408 1129 408 1129 358.888671875 1080.3984375 c 4,25,26
 334 1056 334 1056 304.78125 1043.51464844 c 4,27,28
 275 1031 275 1031 239.9296875 1031.34472656 c 4,29,30
 170 1031 170 1031 120.963867188 1080.41894531 c 4,31,32
 71 1129 71 1129 70.96875 1199.37011719 c 4,15,16
742.728515625 1406.96582031 m 5,33,-1
 896 1328 l 5,34,-1
 224.951171875 33.673828125 l 5,35,-1
 72.111328125 117.6640625 l 5,36,-1
 742.728515625 1406.96582031 l 5,33,-1
EndSplineSet
EndChar

StartChar: uni066B
Encoding: 1643 1643 70
GlifName: uni066B_
Width: 1000
VWidth: 2952
GlyphClass: 2
Flags: W
LayerCount: 2
Fore
SplineSet
632.755859375 818.005859375 m 5,0,-1
 764.05859375 762.266601562 l 5,1,-1
 299.7890625 -309.061523438 l 5,2,-1
 166.364257812 -250.9921875 l 5,3,-1
 632.755859375 818.005859375 l 5,0,-1
EndSplineSet
EndChar

StartChar: uni066C
Encoding: 1644 1644 71
GlifName: uni066C_
Width: 1000
VWidth: 2842
GlyphClass: 2
Flags: W
LayerCount: 2
Fore
SplineSet
357.02734375 140.623046875 m 4,0,1
 358 189 358 189 375.67578125 221.4453125 c 4,2,3
 412 286 412 286 500.584960938 286.182617188 c 4,4,5
 647 287 647 287 673.669921875 157.809570312 c 4,6,7
 688 90 688 90 661.774414062 -9.224609375 c 4,8,9
 603 -233 603 -233 398.64453125 -401.0546875 c 5,10,-1
 327.49609375 -368.359375 l 5,11,12
 522 -192 522 -192 534.28125 0.2177734375 c 5,13,-1
 530.977539062 0.138671875 l 5,14,-1
 523.798828125 -0.0322265625 l 6,15,16
 496 -1 496 -1 476.815429688 3.404296875 c 4,17,18
 355 28 355 28 357.02734375 140.623046875 c 4,0,1
EndSplineSet
EndChar

StartChar: afii63167
Encoding: 1645 1645 72
GlifName: afii63167
Width: 1584
VWidth: 2950
GlyphClass: 2
Flags: W
LayerCount: 2
Fore
SplineSet
238.715820312 1034.65136719 m 1,0,-1
 662.741210938 1034.65136719 l 1,1,-1
 664.913085938 1034.65136719 l 1,2,-1
 666.360351562 1034.65136719 l 1,3,-1
 666.8125 1036.02636719 l 1,4,-1
 667.4921875 1038.09082031 l 1,5,-1
 799.995117188 1441.51953125 l 1,6,-1
 932.500976562 1038.08984375 l 1,7,-1
 933.1796875 1036.02636719 l 1,8,-1
 933.631835938 1034.65136719 l 1,9,-1
 935.079101562 1034.65136719 l 1,10,-1
 937.250976562 1034.65136719 l 1,11,-1
 1361.27636719 1034.65136719 l 1,12,-1
 1018.68066406 784.201171875 l 1,13,-1
 1016.92578125 782.91796875 l 1,14,-1
 1015.75585938 782.0625 l 1,15,-1
 1016.20507812 780.684570312 l 1,16,-1
 1016.87792969 778.6171875 l 1,17,-1
 1147.90039062 376.108398438 l 1,18,-1
 802.923828125 625.388671875 l 1,19,-1
 801.166992188 626.658203125 l 1,20,-1
 799.995117188 627.504882812 l 1,21,-1
 798.823242188 626.658203125 l 1,22,-1
 797.06640625 625.388671875 l 1,23,-1
 452.092773438 376.108398438 l 1,24,-1
 583.11328125 778.6171875 l 1,25,-1
 583.786132812 780.684570312 l 1,26,-1
 584.235351562 782.0625 l 1,27,-1
 583.065429688 782.91796875 l 1,28,-1
 581.310546875 784.201171875 l 1,29,-1
 238.715820312 1034.65136719 l 1,0,-1
EndSplineSet
EndChar

StartChar: uni066E
Encoding: 1646 1646 73
GlifName: uni066E_
Width: 1000
VWidth: 2950
GlyphClass: 2
Flags: W
AnchorPoint: "Anchor-10" 277.36 1413.35 basechar 0
AnchorPoint: "Anchor-7" 418.36 -259.261 basechar 0
LayerCount: 2
Fore
SplineSet
2.4248046875 352.515625 m 4,0,1
 4 180 4 180 386.999023438 180.168945312 c 24,2,3
 799 181 799 181 796.379882812 353.419921875 c 4,4,5
 794 570 794 570 765.463867188 666.631835938 c 1,6,-1
 923.450195312 696.629882812 l 1,7,8
 963 577 963 577 962.90625 357.712890625 c 4,9,10
 962 0 962 0 385.356445312 0 c 2,11,-1
 381.911132812 0 l 2,12,13
 -162 0 -162 0 -162.83984375 333.875 c 4,14,15
 -163 563 -163 563 -135.510742188 685 c 1,16,-1
 20.3564453125 655 l 1,17,18
 1 564 1 564 2.4248046875 352.515625 c 4,0,1
EndSplineSet
Substitution2: "'init' Initial Forms in Arabic lookup 13 subtable" uni066E.init
Substitution2: "'medi' Medial Forms in Arabic lookup 11 subtable" uni066E.medi
Substitution2: "'fina' Terminal Forms in Arabic lookup 9 subtable" uni066E.fina
EndChar

StartChar: uni066F
Encoding: 1647 1647 74
GlifName: uni066F_
Width: 1000
VWidth: 2950
GlyphClass: 2
Flags: W
AnchorPoint: "Anchor-10" -198.191 1350.22 basechar 0
AnchorPoint: "Anchor-7" 15.219 -723.353 basechar 0
LayerCount: 2
Fore
SplineSet
374.3984375 -229.201171875 m 4,0,1
 765 -228 765 -228 802.991210938 77.1328125 c 5,2,-1
 722.247070312 77.6884765625 l 6,3,4
 322 80 322 80 322.765625 377.403320312 c 4,5,6
 323 492 323 492 370.645507812 581.565429688 c 4,7,8
 461 751 461 751 632.9765625 750.970703125 c 4,9,10
 851 751 851 751 925.452148438 539.38671875 c 4,11,12
 974 401 974 401 974.205078125 161 c 4,13,14
 974 -3 974 -3 915 -128.631835938 c 4,15,16
 786 -401 786 -401 360.99609375 -400.998046875 c 4,17,18
 180 -401 180 -401 40.99609375 -329.170898438 c 4,19,20
 -216 -196 -216 -196 -215.247070312 166.041015625 c 4,21,22
 -215 324 -215 324 -149.54296875 513.122070312 c 5,23,-1
 8.90234375 467.791992188 l 5,24,25
 -45 300 -45 300 -44.7314453125 167.861328125 c 4,26,27
 -45 -230 -45 -230 374.3984375 -229.201171875 c 4,0,1
805.387695312 252.623046875 m 6,28,29
 784.831054688 571.036132812 784.831054688 571.036132812 632.58984375 571.036132812 c 4,30,31
 549.471679688 571.036132812 549.471679688 571.036132812 507.614257812 486.565429688 c 4,32,33
 486.129882812 443.2109375 486.129882812 443.2109375 485.920898438 390.450195312 c 4,34,35
 486.203125 255.565429688 486.203125 255.565429688 721.682617188 251.254882812 c 4,36,37
 763.05859375 250.567382812 763.05859375 250.567382812 803.387695312 250.494140625 c 6,38,-1
 805.525390625 250.490234375 l 5,39,-1
 805.387695312 252.623046875 l 6,28,29
EndSplineSet
Substitution2: "'init' Initial Forms in Arabic lookup 13 subtable" uni066F.init
Substitution2: "'medi' Medial Forms in Arabic lookup 11 subtable" uni066F.medi
Substitution2: "'fina' Terminal Forms in Arabic lookup 9 subtable" uni066F.fina
EndChar

StartChar: uni0670
Encoding: 1648 1648 75
GlifName: uni0670
Width: -29
VWidth: 2572
GlyphClass: 4
Flags: W
AnchorPoint: "Anchor-10" 636.984 1498.61 mark 0
AnchorPoint: "Anchor-9" 636.984 1498.61 mark 0
AnchorPoint: "Anchor-1" 636.984 2005.18 basemark 0
AnchorPoint: "Anchor-1" 636.984 1498.61 mark 0
LayerCount: 2
Fore
SplineSet
595.435546875 1568.26757812 m 1,0,-1
 595.435546875 1935.51660156 l 5,1,-1
 678.533203125 1935.51660156 l 5,2,-1
 678.533203125 1568.26757812 l 1,3,-1
 595.435546875 1568.26757812 l 1,0,-1
EndSplineSet
EndChar

StartChar: uni0674
Encoding: 1652 1652 76
GlifName: uni0674
Width: 711
VWidth: 2535
GlyphClass: 2
Flags: W
LayerCount: 2
Fore
SplineSet
255.850585938 1990.08105469 m 2,0,1
 162.998046875 2061.98242188 162.998046875 2061.98242188 162.783203125 2168.51367188 c 0,2,3
 162.998046875 2256.20117188 162.998046875 2256.20117188 221.145507812 2317.62304688 c 0,4,5
 289.859375 2390 289.859375 2390 397.013671875 2390.015625 c 0,6,7
 443.786132812 2390.0078125 443.786132812 2390.0078125 486.26953125 2379.4609375 c 128,-1,8
 528.751953125 2368.91308594 528.751953125 2368.91308594 565.869140625 2348.30175781 c 1,9,-1
 566.548828125 2221.02929688 l 1,10,11
 475.375 2261.00292969 475.375 2261.00292969 410.991210938 2261.26171875 c 0,12,13
 379.16015625 2261.12988281 379.16015625 2261.12988281 354.530273438 2252.41210938 c 128,-1,14
 329.900390625 2243.69433594 329.900390625 2243.69433594 312.573242188 2226.33203125 c 0,15,16
 283.990234375 2196.79882812 283.990234375 2196.79882812 284.4921875 2155.95996094 c 0,17,18
 285.262695312 2117.66992188 285.262695312 2117.66992188 314.331054688 2088.66210938 c 128,-1,19
 343.400390625 2059.65429688 343.400390625 2059.65429688 400.265625 2039.91796875 c 0,20,21
 411.763671875 2035.96679688 411.763671875 2035.96679688 425.21484375 2037.30566406 c 0,22,23
 473.719726562 2042.95410156 473.719726562 2042.95410156 592.747070312 2064.15625 c 1,24,-1
 592.747070312 1932.61621094 l 1,25,-1
 160.286132812 1835.52636719 l 1,26,-1
 160.286132812 1964.6796875 l 1,27,-1
 255.075195312 1986.55078125 l 1,28,-1
 259.184570312 1987.49902344 l 1,29,-1
 255.850585938 1990.08105469 l 2,0,1
EndSplineSet
EndChar

StartChar: uni06A1
Encoding: 1697 1697 80
GlifName: uni06A_1
Width: 1000
VWidth: 2950
GlyphClass: 2
Flags: W
AnchorPoint: "Anchor-10" 0.853 1628.62 basechar 0
AnchorPoint: "Anchor-7" -36.818 -354.248 basechar 0
LayerCount: 2
Fore
SplineSet
810.184570312 530.057617188 m 6,0,1
 789.627929688 848.470703125 789.627929688 848.470703125 637.38671875 848.470703125 c 4,2,3
 570.064453125 848.470703125 570.064453125 848.470703125 529.932617188 793.025390625 c 4,4,5
 491 739 491 739 490.717773438 667.884765625 c 4,6,7
 491 533 491 533 726.479492188 528.689453125 c 4,8,9
 767.85546875 528.001953125 767.85546875 528.001953125 808.184570312 527.928710938 c 6,10,-1
 810.322265625 527.924804688 l 5,11,-1
 810.184570312 530.057617188 l 6,0,1
423.868164062 0 m 6,12,-1
 180.911132812 0 l 6,13,14
 -563 0 -563 0 -563.83984375 463.875 c 4,15,16
 -564 563 -564 563 -536.510742188 685 c 5,17,-1
 -380.643554688 655 l 5,18,19
 -399 569 -399 569 -398.575195312 482.515625 c 4,20,21
 -397.001953125 180.434570312 -397.001953125 180.434570312 171.866210938 180.13671875 c 6,22,-1
 435.008789062 179.999023438 l 6,23,24
 797 180 797 180 807.788085938 354.567382812 c 5,25,-1
 727.043945312 355.123046875 l 6,26,27
 327 358 327 358 327.5625 654.837890625 c 4,28,29
 328 808 328 808 414.129882812 918.97265625 c 4,30,31
 499 1028 499 1028 657.7734375 1028.40527344 c 4,32,33
 856 1028 856 1028 930.249023438 816.821289062 c 4,34,35
 980 676 980 676 979.825195312 482 c 4,36,37
 980 293 980 293 919 196.8359375 c 4,38,39
 795 0 795 0 423.868164062 0 c 6,12,-1
EndSplineSet
Substitution2: "'init' Initial Forms in Arabic lookup 13 subtable" uni06A1.init
Substitution2: "'medi' Medial Forms in Arabic lookup 11 subtable" uni06A1.medi
Substitution2: "'fina' Terminal Forms in Arabic lookup 9 subtable" uni06A1.fina
EndChar

StartChar: uni06A9
Encoding: 1705 1705 81
GlifName: uni06A_9
Width: 1000
VWidth: 2950
GlyphClass: 2
Flags: W
AnchorPoint: "Anchor-7" 130.268 -238.468 basechar 0
AnchorPoint: "Anchor-10" 313.878 1360.89 basechar 0
LayerCount: 2
Fore
SplineSet
-348.575195312 482.515625 m 4,0,1
 -347 179.995117188 -347 179.995117188 223.061523438 179.993164062 c 6,2,-1
 464.782226562 179.9921875 l 6,3,4
 808 180 808 180 810.724609375 383.111328125 c 4,5,6
 812 479 812 479 729.719726562 561.404296875 c 4,7,8
 681 610 681 610 430.224609375 804.581054688 c 4,9,10
 320 890 320 890 319.918945312 982.454101562 c 4,11,12
 320 1044 320 1044 357.129882812 1092.66699219 c 4,13,14
 387.315429688 1132.41601562 387.315429688 1132.41601562 458.852539062 1161.98632812 c 6,15,-1
 1129.37109375 1439.15429688 l 5,16,-1
 1129.37109375 1258.82714844 l 5,17,-1
 474.654296875 987.172851562 l 5,18,-1
 819.502929688 706.112304688 l 6,19,20
 979 576 979 576 976.217773438 378.377929688 c 4,21,22
 971 0 971 0 465.612304688 0 c 6,23,-1
 223.061523438 0 l 6,24,25
 -514 0 -514 0 -513.83984375 463.875 c 4,26,27
 -514 563 -514 563 -486.510742188 685 c 5,28,-1
 -330.643554688 655 l 5,29,30
 -349 569 -349 569 -348.575195312 482.515625 c 4,0,1
EndSplineSet
Substitution2: "'init' Initial Forms in Arabic lookup 13 subtable" uniFB90
Substitution2: "'medi' Medial Forms in Arabic lookup 11 subtable" uniFB91
Substitution2: "'fina' Terminal Forms in Arabic lookup 9 subtable" uniFB8F
EndChar

StartChar: afii57514
Encoding: 1722 1722 83
GlifName: afii57514
Width: 1000
VWidth: 2950
GlyphClass: 2
Flags: W
AnchorPoint: "Anchor-10" 367.479 1235.75 basechar 0
AnchorPoint: "Anchor-7" 398.023 -685.042 basechar 0
LayerCount: 2
Fore
SplineSet
914.97265625 573.43359375 m 5,0,1
 971 404 971 404 970.625 213 c 4,2,3
 970 -33 970 -33 869 -180.47265625 c 4,4,5
 718 -401 718 -401 351 -401 c 4,6,7
 170 -401 170 -401 31 -329.172851562 c 4,8,9
 -226 -196 -226 -196 -225.243164062 166.0390625 c 4,10,11
 -225 324 -225 324 -159.5390625 513.120117188 c 5,12,-1
 -2.09375 467.790039062 l 5,13,14
 -56 300 -56 300 -55.7275390625 167.859375 c 4,15,16
 -55 -228 -55 -228 363.40234375 -229.203125 c 4,17,18
 628 -230 628 -230 733.680664062 -68.43359375 c 4,19,20
 806 42 806 42 806.609375 231.943359375 c 4,21,22
 807 362 807 362 748.203125 532.823242188 c 5,23,-1
 914.97265625 573.43359375 l 5,0,1
EndSplineSet
Substitution2: "'init' Initial Forms in Arabic lookup 13 subtable" uni06BA.init
Substitution2: "'medi' Medial Forms in Arabic lookup 11 subtable" uni06BA.medi
Substitution2: "'fina' Terminal Forms in Arabic lookup 9 subtable" uniFB9F
EndChar

StartChar: uni06F3
Encoding: 1779 1779 89
GlifName: uni06F_3
Width: 1000
VWidth: 2952
GlyphClass: 2
Flags: W
LayerCount: 2
Fore
SplineSet
330.080078125 774.03515625 m 1,0,1
 364.115234375 476.99429526 364.115234375 476.99429526 364.115234375 278.771484375 c 2,2,-1
 364.115234375 11.5537109375 l 1,3,-1
 214.796875 11.5537109375 l 5,4,-1
 214.791992188 281.916992188 l 6,5,6
 215 955 215 955 38.876953125 1307.90820312 c 1,7,-1
 179.466796875 1365.92675781 l 1,8,-1
 269.159179688 1051.63671875 l 2,9,10
 304 929 304 929 400.522460938 927.631835938 c 0,11,12
 520.313721964 926.998340937 520.313721964 926.998340937 514.365234375 1184.56054688 c 2,13,-1
 511.662109375 1301.60253906 l 1,14,-1
 630.317382812 1306.65332031 l 1,15,-1
 634.010742188 1162.3984375 l 2,16,17
 640 923 640 923 740.541992188 920.891601562 c 0,18,19
 770 920 770 920 799.5390625 985.587890625 c 128,-1,20
 829.078331056 1051.17391842 829.078331056 1051.17391842 829.518554688 1238.29785156 c 2,21,-1
 829.831054688 1371.13085938 l 1,22,-1
 966.633789062 1371.29394531 l 1,23,-1
 966.0546875 1240.61523438 l 2,24,25
 966 1182 966 1182 958.708984375 1093.52148438 c 0,26,27
 930 734 930 734 746.673828125 737.768554688 c 0,28,29
 687 739 687 739 587.467773438 853.89453125 c 1,30,31
 492 737 492 737 418.388671875 737 c 0,32,33
 375 737 375 737 330.080078125 774.03515625 c 1,0,1
EndSplineSet
PairPos2: "'kern' Horizontal Kerning lookup 15-4" uni06F6 dx=-43 dy=0 dh=-43 dv=0 dx=0 dy=0 dh=0 dv=0
PairPos2: "'kern' Horizontal Kerning lookup 15-4" uni06F8 dx=-100 dy=0 dh=-100 dv=0 dx=0 dy=0 dh=0 dv=0
PairPos2: "'kern' Horizontal Kerning lookup 15-4" uni06F7 dx=-43 dy=0 dh=-43 dv=0 dx=0 dy=0 dh=0 dv=0
PairPos2: "'kern' Horizontal Kerning lookup 15-4" uni06F5 dx=-64 dy=0 dh=-64 dv=0 dx=0 dy=0 dh=0 dv=0
PairPos2: "'kern' Horizontal Kerning lookup 15-4" uni06F4 dx=-46 dy=0 dh=-46 dv=0 dx=0 dy=0 dh=0 dv=0
EndChar

StartChar: uni06F4
Encoding: 1780 1780 90
GlifName: uni06F_4
Width: 1244
VWidth: 2952
GlyphClass: 2
Flags: W
LayerCount: 2
Fore
SplineSet
1083.33496094 1330.42285156 m 5,0,-1
 1040.33984375 1158.03417969 l 5,1,2
 963 1189 963 1189 880.235351562 1188.92675781 c 4,3,4
 777 1189 777 1189 707.057617188 1137.72753906 c 4,5,6
 591 1051 591 1051 576.663085938 917.193359375 c 4,7,8
 572 872 572 872 657.494140625 827.66796875 c 4,9,10
 728 791 728 791 852.942382812 790.590820312 c 4,11,12
 993 791 993 791 1115.12207031 840.52734375 c 5,13,-1
 1138.44921875 665.890625 l 5,14,15
 1014 611 1014 611 874.0078125 611.180664062 c 4,16,-1
 873.217773438 611.181640625 l 6,17,18
 597 612 597 612 477.182617188 756.000976562 c 5,19,-1
 478.708984375 745.439453125 l 6,20,21
 514.115234375 499.19857614 514.115234375 499.19857614 514.115234375 278.771484375 c 6,22,-1
 514.115234375 11.5537109375 l 1,23,-1
 334.796875 11.5537109375 l 1,24,-1
 334.791992188 281.91796875 l 6,25,26
 335 923 335 923 144.876953125 1307.90820312 c 5,27,-1
 309.573242188 1365.96386719 l 5,28,29
 365 1206 365 1206 431.536132812 1006.83789062 c 5,30,-1
 446.734375 1057 l 6,31,32
 491 1203 491 1203 596 1290 c 4,33,34
 704 1380 704 1380 855.047851562 1379.43164062 c 4,35,36
 976 1379 976 1379 1083.33496094 1330.42285156 c 5,0,-1
EndSplineSet
PairPos2: "'kern' Horizontal Kerning lookup 15-4" uni06F6 dx=-43 dy=0 dh=-43 dv=0 dx=0 dy=0 dh=0 dv=0
PairPos2: "'kern' Horizontal Kerning lookup 15-4" uni06F8 dx=-100 dy=0 dh=-100 dv=0 dx=0 dy=0 dh=0 dv=0
PairPos2: "'kern' Horizontal Kerning lookup 15-4" uni06F7 dx=-43 dy=0 dh=-43 dv=0 dx=0 dy=0 dh=0 dv=0
PairPos2: "'kern' Horizontal Kerning lookup 15-4" uni06F5 dx=-64 dy=0 dh=-64 dv=0 dx=0 dy=0 dh=0 dv=0
EndChar

StartChar: uni06F5
Encoding: 1781 1781 91
GlifName: uni06F_5
Width: 1288
VWidth: 2952
GlyphClass: 2
Flags: W
LayerCount: 2
Fore
SplineSet
283.965820312 339.41015625 m 0,0,1
 284 198 284 198 378.05078125 197.844726562 c 0,2,3
 527 198 527 198 589.71484375 492.583007812 c 1,4,-1
 714.022460938 492.477539062 l 1,5,6
 764 194 764 194 899.256835938 194.079101562 c 0,7,8
 1004 194 1004 194 1003.97851562 339.67578125 c 0,9,10
 1004 664 1004 664 629 1040.5703125 c 5,11,12
 284 586 284 586 283.965820312 339.41015625 c 0,0,1
363.447265625 11.9833984375 m 0,13,14
 109 12 109 12 109.2421875 339.344726562 c 0,15,16
 109.000154115 652.800406682 109.000154115 652.800406682 493.814453125 1169.56445312 c 6,17,-1
 495.415039062 1171.71386719 l 5,18,-1
 493.458007812 1173.54589844 l 5,19,-1
 439.18359375 1224.34960938 l 5,20,-1
 563.442382812 1376.19042969 l 5,21,-1
 688.700195312 1257.3671875 l 5,22,23
 1180 775 1180 775 1179.44238281 349.259765625 c 0,24,25
 1179 12 1179 12 914.309570312 11.943359375 c 0,26,27
 728 12 728 12 652.232421875 223.266601562 c 1,28,29
 581 12 581 12 363.447265625 11.9833984375 c 0,13,14
EndSplineSet
PairPos2: "'kern' Horizontal Kerning lookup 15-4" uni06F9 dx=-35 dy=0 dh=-35 dv=0 dx=0 dy=0 dh=0 dv=0
PairPos2: "'kern' Horizontal Kerning lookup 15-4" uni06F8 dx=-38 dy=0 dh=-38 dv=0 dx=0 dy=0 dh=0 dv=0
PairPos2: "'kern' Horizontal Kerning lookup 15-4" uni06F7 dx=-100 dy=0 dh=-100 dv=0 dx=0 dy=0 dh=0 dv=0
PairPos2: "'kern' Horizontal Kerning lookup 15-4" uni06F6 dx=-42 dy=0 dh=-42 dv=0 dx=0 dy=0 dh=0 dv=0
PairPos2: "'kern' Horizontal Kerning lookup 15-4" uni06F4 dx=-42 dy=0 dh=-42 dv=0 dx=0 dy=0 dh=0 dv=0
PairPos2: "'kern' Horizontal Kerning lookup 15-4" uni06F3 dx=-100 dy=0 dh=-100 dv=0 dx=0 dy=0 dh=0 dv=0
PairPos2: "'kern' Horizontal Kerning lookup 15-4" uni06F2 dx=-100 dy=0 dh=-100 dv=0 dx=0 dy=0 dh=0 dv=0
EndChar

StartChar: uni06F6
Encoding: 1782 1782 92
GlifName: uni06F_6
Width: 1104
VWidth: 2952
GlyphClass: 2
Flags: W
LayerCount: 2
Fore
SplineSet
752.499023438 1174.92382812 m 5,0,1
 700 1180 700 1180 637.673828125 1180.46582031 c 4,2,3
 446 1180 446 1180 369 1093.24804688 c 4,4,5
 312 1029 312 1029 311.594726562 953.765625 c 4,6,7
 312 743 312 743 685.764648438 742.364257812 c 5,8,-1
 687.079101562 742.666992188 l 5,9,10
 888 852 888 852 970.879882812 885.765625 c 5,11,-1
 981.556640625 695.63671875 l 5,12,13
 533 494 533 494 318.25390625 -28.4091796875 c 1,14,-1
 149.010742188 28.2734375 l 1,15,16
 272 336 272 336 524.650390625 585.670898438 c 5,17,18
 126 624 126 624 127.64453125 958.891601562 c 4,19,20
 128 1053 128 1053 166.403320312 1132.42578125 c 4,21,22
 283 1368 283 1368 606.01171875 1366.40820312 c 4,23,24
 686 1366 686 1366 778.365234375 1352.23242188 c 5,25,-1
 752.499023438 1174.92382812 l 5,0,1
EndSplineSet
PairPos2: "'kern' Horizontal Kerning lookup 15-4" uni06F8 dx=-43 dy=0 dh=-43 dv=0 dx=0 dy=0 dh=0 dv=0
PairPos2: "'kern' Horizontal Kerning lookup 15-4" uni06F7 dx=-43 dy=0 dh=-43 dv=0 dx=0 dy=0 dh=0 dv=0
PairPos2: "'kern' Horizontal Kerning lookup 15-4" uni06F5 dx=-43 dy=0 dh=-43 dv=0 dx=0 dy=0 dh=0 dv=0
EndChar

StartChar: uni06F7
Encoding: 1783 1783 93
GlifName: uni06F_7
Width: 1000
VWidth: 2952
GlyphClass: 2
Flags: W
LayerCount: 2
Fore
SplineSet
972.606445312 1310.14648438 m 5,0,1
 806 975 806 975 594.271484375 11.5537109375 c 5,2,-1
 446.603515625 11.5537109375 l 5,3,4
 262 850 262 850 38.2646484375 1300.1328125 c 5,5,-1
 176.727539062 1365.70214844 l 5,6,7
 391 907 391 907 520.446289062 327.130859375 c 5,8,9
 668 989 668 989 844.1640625 1365.703125 c 5,10,-1
 972.606445312 1310.14648438 l 5,0,1
EndSplineSet
PairPos2: "'kern' Horizontal Kerning lookup 15-4" uni06F9 dx=-43 dy=0 dh=-43 dv=0 dx=0 dy=0 dh=0 dv=0
PairPos2: "'kern' Horizontal Kerning lookup 15-4" uni06F8 dx=-160 dy=0 dh=-160 dv=0 dx=0 dy=0 dh=0 dv=0
PairPos2: "'kern' Horizontal Kerning lookup 15-4" uni06F6 dx=-43 dy=0 dh=-43 dv=0 dx=0 dy=0 dh=0 dv=0
PairPos2: "'kern' Horizontal Kerning lookup 15-4" uni06F5 dx=-100 dy=0 dh=-100 dv=0 dx=0 dy=0 dh=0 dv=0
PairPos2: "'kern' Horizontal Kerning lookup 15-4" uni06F4 dx=-43 dy=0 dh=-43 dv=0 dx=0 dy=0 dh=0 dv=0
EndChar

StartChar: uni06F8
Encoding: 1784 1784 94
GlifName: uni06F_8
Width: 1000
VWidth: 2952
GlyphClass: 2
Flags: W
LayerCount: 2
Fore
SplineSet
38.2646484375 68.1103515625 m 5,0,1
 204.87109375 403.256835938 204.87109375 403.256835938 416.599609375 1366.703125 c 5,2,-1
 564.267578125 1366.703125 l 5,3,4
 748.87109375 528.256835938 748.87109375 528.256835938 972.606445312 78.1240234375 c 5,5,-1
 834.143554688 12.5546875 l 5,6,7
 619.87109375 471.256835938 619.87109375 471.256835938 490.424804688 1051.12597656 c 5,8,9
 342.87109375 389.256835938 342.87109375 389.256835938 166.70703125 12.5537109375 c 5,10,-1
 38.2646484375 68.1103515625 l 5,0,1
EndSplineSet
PairPos2: "'kern' Horizontal Kerning lookup 15-4" uni06F9 dx=-43 dy=0 dh=-43 dv=0 dx=0 dy=0 dh=0 dv=0
PairPos2: "'kern' Horizontal Kerning lookup 15-4" uni06F7 dx=-160 dy=0 dh=-160 dv=0 dx=0 dy=0 dh=0 dv=0
PairPos2: "'kern' Horizontal Kerning lookup 15-4" uni06F6 dx=-110 dy=0 dh=-110 dv=0 dx=0 dy=0 dh=0 dv=0
PairPos2: "'kern' Horizontal Kerning lookup 15-4" uni06F4 dx=-100 dy=0 dh=-100 dv=0 dx=0 dy=0 dh=0 dv=0
PairPos2: "'kern' Horizontal Kerning lookup 15-4" uni06F3 dx=-150 dy=0 dh=-150 dv=0 dx=0 dy=0 dh=0 dv=0
PairPos2: "'kern' Horizontal Kerning lookup 15-4" uni06F2 dx=-150 dy=0 dh=-150 dv=0 dx=0 dy=0 dh=0 dv=0
EndChar

StartChar: uni06F9
Encoding: 1785 1785 95
GlifName: uni06F_9
Width: 1000
VWidth: 2952
GlyphClass: 2
Flags: W
LayerCount: 2
Fore
SplineSet
459.53125 574.165039062 m 6,0,1
 72 574.165039062 72 574.165039062 71.9462890625 916.935546875 c 4,2,3
 72 1062 72 1062 142.5 1175.5 c 4,4,5
 264 1371 264 1371 475.064453125 1371.31542969 c 4,6,7
 844 1371 844 1371 868.947265625 872.424804688 c 4,8,9
 892 420 892 420 901.782226562 12.5537109375 c 5,10,-1
 729.748046875 12.5537109375 l 5,11,-1
 716.065429688 633.900390625 l 5,12,13
 596.331054688 574.165039062 596.331054688 574.165039062 460.260742188 574.165039062 c 6,14,-1
 459.53125 574.165039062 l 6,0,1
462.727539062 755.890625 m 4,15,16
 569 756 569 756 698.341796875 820.395507812 c 5,17,-1
 696.405273438 843.450195312 l 6,18,19
 668 1180 668 1180 483.736328125 1179.7265625 c 4,20,21
 371 1180 371 1180 305.901367188 1091.36914062 c 4,22,23
 247 1011 247 1011 247.008789062 926.302734375 c 4,24,25
 247 756 247 756 462.727539062 755.890625 c 4,15,16
EndSplineSet
PairPos2: "'kern' Horizontal Kerning lookup 15-4" uni06F9 dx=-43 dy=0 dh=-43 dv=0 dx=0 dy=0 dh=0 dv=0
PairPos2: "'kern' Horizontal Kerning lookup 15-4" uni06F8 dx=-150 dy=0 dh=-150 dv=0 dx=0 dy=0 dh=0 dv=0
PairPos2: "'kern' Horizontal Kerning lookup 15-4" uni06F7 dx=-43 dy=0 dh=-43 dv=0 dx=0 dy=0 dh=0 dv=0
PairPos2: "'kern' Horizontal Kerning lookup 15-4" uni06F5 dx=-43 dy=0 dh=-43 dv=0 dx=0 dy=0 dh=0 dv=0
EndChar

StartChar: uniFB8F
Encoding: 64399 64399 107
GlifName: uniF_B_8F_
Width: 1000
VWidth: 2950
GlyphClass: 2
Flags: W
AnchorPoint: "Anchor-10" 103.878 1360.89 basechar 0
AnchorPoint: "Anchor-7" -79.732 -238.468 basechar 0
LayerCount: 2
Fore
SplineSet
13.0615234375 179.993164062 m 6,0,1
 13.0615234375 179.993164062 13.0615234375 179.993164062 254.782226562 179.9921875 c 6,2,3
 598 180 598 180 600.724609375 383.111328125 c 0,4,5
 602 479 602 479 519.719726562 561.404296875 c 0,6,7
 471 610 471 610 220.224609375 804.581054688 c 0,8,9
 110 890 110 890 109.918945312 982.454101562 c 0,10,11
 110 1044 110 1044 146.365234375 1092.49023438 c 0,12,13
 177.325195312 1132.41992188 177.325195312 1132.41992188 248.852539062 1161.98632812 c 2,14,-1
 919.37109375 1439.15429688 l 1,15,-1
 919.37109375 1258.82714844 l 1,16,-1
 267.845703125 988.420898438 l 1,17,-1
 264.654296875 987.172851562 l 1,18,-1
 267.310546875 985.0078125 l 1,19,-1
 609.500976562 706.114257812 l 2,20,21
 759 584 759 584 766.21875 378.2890625 c 0,22,23
 774 179.993164062 774 179.993164062 987.9140625 179.993164062 c 2,24,-1
 1004.24804688 179.993164062 l 2,25,26
 1022.32421875 180 1022.32421875 180 1022.32421875 105.174804688 c 2,27,-1
 1022.32421875 86.3125 l 2,28,29
 1022 0 1022 0 1004.24609375 0 c 2,30,-1
 987.807617188 0 l 2,31,32
 760 0 760 0 687.344726562 145.899414062 c 1,33,34
 584 0 584 0 255.612304688 0 c 2,35,-1
 13.0615234375 0 l 2,36,37
 -494 0 -494 0 -493.83984375 333.875 c 0,38,39
 -494 423 -494 423 -466.510742188 545 c 1,40,-1
 -310.643554688 515 l 1,41,42
 -330 429 -330 429 -328.575195312 352.515625 c 0,43,44
 -327 180 -327 180 13.0615234375 179.993164062 c 6,0,1
EndSplineSet
EndChar

StartChar: uniFB9F
Encoding: 64415 64415 115
GlifName: uniF_B_9F_
Width: 1000
VWidth: 2950
GlyphClass: 2
Flags: W
AnchorPoint: "Anchor-10" 203.458 1364.61 basechar 0
AnchorPoint: "Anchor-7" 95.902 -802.086 basechar 0
LayerCount: 2
Fore
SplineSet
806.848632812 375.262695312 m 6,0,1
 830.302734375 275.6328125 830.302734375 275.6328125 857.958007812 242.108398438 c 4,2,3
 910.000976562 179.999023438 910.000976562 179.999023438 989.020507812 179.999023438 c 6,4,-1
 1008.13476562 179.999023438 l 6,5,6
 1026.21875 180 1026.21875 180 1026.21875 109.889648438 c 6,7,-1
 1026.21875 86.31640625 l 6,8,9
 1026 0 1026 0 1008.13671875 0 c 6,10,-1
 993.418945312 0 l 6,11,12
 890 0 890 0 828.264648438 58.376953125 c 5,13,14
 813 -124 813 -124 724 -251.666992188 c 4,15,16
 571 -468 571 -468 210.99609375 -467.998046875 c 4,17,18
 30 -468 30 -468 -109.00390625 -396.170898438 c 4,19,20
 -366 -263 -366 -263 -365.247070312 99.041015625 c 4,21,22
 -365 257 -365 257 -299.54296875 446.122070312 c 5,23,-1
 -141.09765625 400.791992188 l 5,24,25
 -195 233 -195 233 -194.731445312 100.861328125 c 4,26,27
 -194 -295 -194 -295 224.3984375 -296.201171875 c 4,28,29
 489 -297 489 -297 594.676757812 -135.431640625 c 4,30,31
 667 -25 667 -25 667.60546875 164.9453125 c 4,32,33
 668 295 668 295 609.19921875 465.825195312 c 5,34,-1
 775.96875 506.435546875 l 5,35,-1
 806.848632812 375.262695312 l 6,0,1
EndSplineSet
EndChar

StartChar: uniFBE8
Encoding: 64488 64488 118
GlifName: uniF_B_E_8
Width: 1000
VWidth: 2950
GlyphClass: 2
Flags: W
AnchorPoint: "Anchor-10" 641.38 1351 basechar 0
AnchorPoint: "Anchor-7" 633.42 -225.625 basechar 0
LayerCount: 2
Fore
SplineSet
458.673828125 1 m 6,0,-1
 -6.9384765625 0 l 2,1,2
 -62.7783203125 0 -62.7783203125 0 -62.7783203125 86.3134765625 c 2,3,-1
 -62.7783203125 105.182617188 l 2,4,5
 -62.9996305067 179.875295186 -62.9996305067 179.875295186 -6.9384765625 179.993164062 c 2,6,-1
 468.684570312 180.993164062 l 6,7,8
 700 181 700 181 700.032226562 460.203125 c 4,9,10
 700 566 700 566 672.33984375 686.633789062 c 5,11,-1
 835.419921875 716.629882812 l 5,12,13
 862 580 862 580 861.642578125 463.950195312 c 4,14,15
 862 2 862 2 458.673828125 1 c 6,0,-1
EndSplineSet
EndChar

StartChar: uniFBE9
Encoding: 64489 64489 119
GlifName: uniF_B_E_9
Width: 1000
VWidth: 2950
GlyphClass: 2
Flags: W
AnchorPoint: "Anchor-10" 675.665 1295.09 basechar 0
AnchorPoint: "Anchor-7" 400.537 -179.742 basechar 0
LayerCount: 2
Fore
SplineSet
492.668945312 132.932617188 m 5,0,1
 399 0 399 0 105.759765625 0 c 2,2,-1
 -8.1171875 0 l 2,3,4
 -62.7783203125 0 -62.7783203125 0 -62.7783203125 86.3134765625 c 2,5,-1
 -62.7783203125 105.192382812 l 2,6,7
 -62.9999797429 179.993164062 -62.9999797429 179.993164062 -8.1171875 179.993164062 c 2,8,-1
 101.012695312 179.993164062 l 2,9,10
 396.936114714 179.999998525 396.936114714 179.999998525 411.506835938 373.569335938 c 6,11,-1
 426.401367188 571.440429688 l 5,12,-1
 547.427734375 571.440429688 l 5,13,-1
 562.323242188 371.49609375 l 6,14,15
 577.000523924 179.993164062 577.000523924 179.993164062 986.57421875 179.993164062 c 2,16,-1
 994.65234375 179.993164062 l 2,17,18
 1012.73144531 179.999899942 1012.73144531 179.999899942 1012.73144531 96.322265625 c 2,19,-1
 1012.73144531 86.3408203125 l 2,20,21
 1013 0 1013 0 994.650390625 0 c 2,22,-1
 985.006835938 0 l 2,23,24
 563 0 563 0 492.668945312 132.932617188 c 5,0,1
EndSplineSet
EndChar

StartChar: uniFE73
Encoding: 65139 65139 127
GlifName: uniF_E_73
Width: 1000
VWidth: 2950
GlyphClass: 2
Flags: W
AnchorPoint: "Anchor-10" 504.943 1226.47 basechar 0
AnchorPoint: "Anchor-7" 564.943 -226.304 basechar 0
LayerCount: 2
Fore
SplineSet
478.336914062 444.018554688 m 2,0,1
 478.336914062 316.768582266 478.336914062 316.768582266 595.125 236.549804688 c 0,2,3
 664.506665493 188.342773438 664.506665493 188.342773438 798.00390625 188.342773438 c 2,4,-1
 1016.67480469 188.342773438 l 5,5,-1
 1016.67480469 1.5537109375 l 5,6,-1
 718.006835938 1.5537109375 l 2,7,8
 528 2 528 2 409.654296875 120.1171875 c 0,9,10
 291.544921875 238.455962007 291.544921875 238.455962007 291.544921875 426.563476562 c 2,11,-1
 291.544921875 448.69140625 l 1,12,-1
 478.336914062 448.69140625 l 1,13,-1
 478.336914062 444.018554688 l 2,0,1
EndSplineSet
EndChar

StartChar: uniFE8E
Encoding: 65166 65166 153
GlifName: uniF_E_8E_
Width: 1000
VWidth: 2950
GlyphClass: 2
Flags: W
AnchorPoint: "Anchor-10" 242.697 1529.11 basechar 0
AnchorPoint: "Anchor-7" 316.078 -221.903 basechar 0
LayerCount: 2
Fore
SplineSet
1016.61816406 86.294921875 m 5,0,1
 1018 0 1018 0 998.537109375 0 c 6,2,-1
 517.658203125 0 l 2,3,4
 166.283203125 0 166.283203125 0 166.283203125 436.395507812 c 2,5,-1
 166.283203125 1396.171875 l 1,6,-1
 331.598632812 1396.171875 l 1,7,-1
 331.598632812 438.447265625 l 2,8,9
 332.000010616 179.993164062 332.000010616 179.993164062 520.712890625 179.993164062 c 2,10,-1
 998.5390625 179.993164062 l 6,11,12
 1016.61816406 179.999858609 1016.61816406 179.999858609 1016.61816406 105.174804688 c 6,13,-1
 1016.61816406 86.294921875 l 5,0,1
EndSplineSet
EndChar

StartChar: uniFEA2
Encoding: 65186 65186 173
GlifName: uniF_E_A_2
Width: 1000
VWidth: 2950
GlyphClass: 2
Flags: W
AnchorPoint: "Anchor-10" 311.478 1214.07 basechar 0
AnchorPoint: "Anchor-7" 286.833 -828.619 basechar 0
LayerCount: 2
Fore
SplineSet
869 601 m 5,0,-1
 853.064453125 426.817382812 l 5,1,2
 728 419 728 419 657.759765625 408.728515625 c 5,3,-1
 657.759765625 396.134765625 l 6,4,5
 658 180 658 180 960.638671875 180 c 6,6,-1
 1003.88769531 180 l 6,7,8
 1021.97851562 180 1021.97851562 180 1021.97851562 109.889648438 c 6,9,-1
 1021.97851562 86.3115234375 l 6,10,11
 1022 0 1022 0 1003.8984375 0 c 6,12,-1
 961.495117188 0 l 6,13,14
 516.666015625 0 516.666015625 0 511.192382812 362.032226562 c 6,15,-1
 510.9609375 377.33984375 l 5,16,17
 -47 231 -47 231 -46.7509765625 -121.301757812 c 4,18,19
 -47 -472 -47 -472 486.381835938 -471.783203125 c 4,20,21
 677 -472 677 -472 856.306640625 -387.446289062 c 5,22,-1
 856.001953125 -570.739257812 l 5,23,24
 704 -643 704 -643 471.529296875 -643.249023438 c 4,25,26
 -17 -643 -17 -643 -160.345703125 -369.0859375 c 4,27,28
 -214 -267 -214 -267 -213.012695312 -136.852539062 c 4,29,30
 -213 385 -213 385 464 535 c 5,31,32
 175 652 175 652 99 652 c 4,33,34
 4 652 4 652 -122.0703125 503.7109375 c 5,35,-1
 -247.881835938 610.26171875 l 5,36,37
 -96 830 -96 830 85 830 c 4,38,39
 175 830 175 830 492 702 c 4,40,41
 719 610 719 610 869 601 c 5,0,-1
EndSplineSet
EndChar

StartChar: uniFEA3
Encoding: 65187 65187 174
GlifName: uniF_E_A_3
Width: 1000
VWidth: 2186
GlyphClass: 2
Flags: W
AnchorPoint: "Anchor-10" 503.825 1186.07 basechar 0
AnchorPoint: "Anchor-7" 443.524 -236.745 basechar 0
LayerCount: 2
Fore
SplineSet
-16.9384765625 179.999023438 m 6,0,-1
 147.599609375 179.98046875 l 6,1,2
 382 180 382 180 791 460 c 5,3,4
 535 606 535 606 382 622 c 4,5,6
 322 628 322 628 190.9296875 473.7109375 c 5,7,-1
 65.1181640625 580.26171875 l 5,8,9
 217 800 217 800 368 800 c 4,10,11
 401 800 401 800 705 672 c 4,12,13
 875 601 875 601 972 571 c 5,14,-1
 964 405 l 5,15,16
 934 399 934 399 874 352 c 4,17,18
 739 246 739 246 612 155 c 4,19,20
 397 0 397 0 141.254882812 0 c 6,21,-1
 -16.9384765625 0 l 6,22,23
 -72.7783203125 0 -72.7783203125 0 -72.7783203125 86.3134765625 c 6,24,-1
 -72.7783203125 105.198242188 l 6,25,26
 -73 180 -73 180 -16.9384765625 179.999023438 c 6,0,-1
EndSplineSet
EndChar

StartChar: uniFEA4
Encoding: 65188 65188 175
GlifName: uniF_E_A_4
Width: 1000
VWidth: 2950
GlyphClass: 2
Flags: W
AnchorPoint: "Anchor-10" 373.825 1186.07 basechar 0
AnchorPoint: "Anchor-7" 313.524 -236.745 basechar 0
LayerCount: 2
Fore
SplineSet
57.599609375 179.98046875 m 2,0,1
 275.935406358 179.955847384 275.935406358 179.955847384 671 450 c 1,2,3
 536 572 536 572 322 572 c 0,4,5
 184 572 184 572 100.9296875 473.7109375 c 1,6,-1
 -4.8818359375 580.26171875 l 5,7,8
 143 793 143 793 288 760 c 0,9,10
 483 715 483 715 585 662 c 0,11,12
 749 577 749 577 882 571 c 1,13,-1
 864 405 l 1,14,15
 800 356 800 356 794 352 c 0,16,17
 789 349 789 349 738 313.547851562 c 1,18,19
 782.905888719 180.279296875 782.905888719 180.279296875 956.611328125 180.279296875 c 2,20,-1
 1000.38378906 180.279296875 l 2,21,22
 1018.50585938 180.007413535 1018.50585938 180.007413535 1018.50585938 109.889648438 c 2,23,-1
 1018.50585938 86.31640625 l 2,24,25
 1019 0 1019 0 1000.42773438 0 c 2,26,-1
 951.096679688 0 l 2,27,28
 681 0 681 0 606 235.540039062 c 1,29,30
 540 196 540 196 472 155 c 0,31,32
 216 0 216 0 51.2548828125 0 c 2,33,-1
 -106.938476562 0 l 2,34,35
 -162.778320312 0 -162.778320312 0 -162.778320312 86.3134765625 c 2,36,-1
 -162.778320312 105.198242188 l 2,37,38
 -163.000015841 180.005345404 -163.000015841 180.005345404 -106.938476562 179.999023438 c 2,39,-1
 57.599609375 179.98046875 l 2,0,1
EndSplineSet
EndChar

StartChar: uniFEAA
Encoding: 65194 65194 181
GlifName: uniF_E_A_A_
Width: 1041
VWidth: 2950
GlyphClass: 2
Flags: W
AnchorPoint: "Anchor-7" 461.24 -233.316 basechar 0
AnchorPoint: "Anchor-10" 542.848 1203.53 basechar 0
LayerCount: 2
Fore
SplineSet
327.564453125 0.8193359375 m 0,0,1
 255 1 255 1 104.096679688 29.201171875 c 1,2,-1
 104.096679688 214.793945312 l 1,3,4
 247 185 247 185 332.981445312 185.068359375 c 0,5,6
 655 185 655 185 655.088867188 327.067382812 c 0,7,8
 654.999677 388.221467793 654.999677 388.221467793 563.69921875 607.143554688 c 2,9,-1
 462 851 l 1,10,-1
 629.620117188 915.993164062 l 1,11,-1
 790.69140625 489.153320312 l 2,12,13
 907.002571793 179.993164062 907.002571793 179.993164062 1028.87988281 179.993164062 c 2,14,-1
 1048.51953125 179.993164062 l 2,15,16
 1066.59765625 179.999851173 1066.59765625 179.999851173 1066.59765625 105.174804688 c 2,17,-1
 1066.59765625 86.306640625 l 2,18,19
 1066.95912827 41.1103550689 1066.95912827 41.1103550689 1062.20703125 21.494140625 c 0,20,21
 1057 0 1057 0 1048.51757812 0 c 2,22,-1
 1028.53222656 0 l 2,23,24
 870.796447856 1.13686837722e-13 870.796447856 1.13686837722e-13 773.689453125 153.071289062 c 2,25,-1
 772.205078125 155.411132812 l 1,26,-1
 770.451171875 153.265625 l 2,27,28
 645 -0 645 -0 327.564453125 0.8193359375 c 0,0,1
EndSplineSet
EndChar

StartChar: uniFEAE
Encoding: 65198 65198 185
GlifName: uniF_E_A_E_
Width: 1000
VWidth: 2142
GlyphClass: 2
Flags: W
AnchorPoint: "Anchor-7" 312.969 -675.998 basechar 0
AnchorPoint: "Anchor-10" 551.256 944.2 basechar 0
LayerCount: 2
Fore
SplineSet
762.671875 48 m 1,0,1
 758 12 758 12 748 -26.626953125 c 0,2,3
 649 -411 649 -411 90.046875 -465.592773438 c 1,4,-1
 60.650390625 -302.475585938 l 1,5,6
 607 -258 607 -258 605.469726562 159.633789062 c 0,7,8
 605 308 605 308 513.275390625 441.0234375 c 1,9,-1
 659.998046875 518.564453125 l 1,10,11
 688 450 688 450 757 298 c 8,12,13
 811.000446901 179.999023438 811.000446901 179.999023438 975.31640625 179.999023438 c 6,14,-1
 1002.57421875 179.999023438 l 6,15,16
 1020.63867188 179.99998085 1020.63867188 179.99998085 1020.63867188 110.322265625 c 6,17,-1
 1020.63867188 86.201171875 l 6,18,19
 1021 0 1021 0 1002.57421875 0 c 6,20,-1
 985.80078125 0 l 6,21,22
 806 0 806 0 762.671875 48 c 1,0,1
EndSplineSet
PairPos2: "'kern' Horizontal Kerning lookup 15-2" uniFBFE dx=60 dy=0 dh=60 dv=0 dx=0 dy=0 dh=0 dv=0
PairPos2: "'kern' Horizontal Kerning lookup 15-1" uniFEE7 dx=-178 dy=0 dh=-178 dv=0 dx=0 dy=0 dh=0 dv=0
PairPos2: "'kern' Horizontal Kerning lookup 15-2" uniFB90 dx=-226 dy=0 dh=-226 dv=0 dx=0 dy=0 dh=0 dv=0
PairPos2: "'kern' Horizontal Kerning lookup 15-2" uniFB8E dx=-226 dy=0 dh=-226 dv=0 dx=0 dy=0 dh=0 dv=0
PairPos2: "'kern' Horizontal Kerning lookup 15-2" uni06A9 dx=-226 dy=0 dh=-226 dv=0 dx=0 dy=0 dh=0 dv=0
PairPos2: "'kern' Horizontal Kerning lookup 15-2" uni064A dx=-60 dy=0 dh=-60 dv=0 dx=0 dy=0 dh=0 dv=0
PairPos2: "'kern' Horizontal Kerning lookup 15-2" afii57414 dx=-60 dy=0 dh=-60 dv=0 dx=0 dy=0 dh=0 dv=0
PairPos2: "'kern' Horizontal Kerning lookup 15-2" uni0649 dx=-60 dy=0 dh=-60 dv=0 dx=0 dy=0 dh=0 dv=0
PairPos2: "'kern' Horizontal Kerning lookup 15-2" uniFEEB dx=-178 dy=0 dh=-178 dv=0 dx=0 dy=0 dh=0 dv=0
PairPos2: "'kern' Horizontal Kerning lookup 15-2" uni0647 dx=-178 dy=0 dh=-178 dv=0 dx=0 dy=0 dh=0 dv=0
PairPos2: "'kern' Horizontal Kerning lookup 15-2" uni0646 dx=-60 dy=0 dh=-60 dv=0 dx=0 dy=0 dh=0 dv=0
PairPos2: "'kern' Horizontal Kerning lookup 15-2" uniFEE3 dx=-178 dy=0 dh=-178 dv=0 dx=0 dy=0 dh=0 dv=0
PairPos2: "'kern' Horizontal Kerning lookup 15-2" uni0645 dx=-178 dy=0 dh=-178 dv=0 dx=0 dy=0 dh=0 dv=0
PairPos2: "'kern' Horizontal Kerning lookup 15-2" uniFEFB dx=-143 dy=0 dh=-143 dv=0 dx=0 dy=0 dh=0 dv=0
PairPos2: "'kern' Horizontal Kerning lookup 15-2" uniFEDF dx=-143 dy=0 dh=-143 dv=0 dx=0 dy=0 dh=0 dv=0
PairPos2: "'kern' Horizontal Kerning lookup 15-2" uni0644 dx=-60 dy=0 dh=-60 dv=0 dx=0 dy=0 dh=0 dv=0
PairPos2: "'kern' Horizontal Kerning lookup 15-2" uniFEDB dx=-226 dy=0 dh=-226 dv=0 dx=0 dy=0 dh=0 dv=0
PairPos2: "'kern' Horizontal Kerning lookup 15-2" uni0643 dx=-143 dy=0 dh=-143 dv=0 dx=0 dy=0 dh=0 dv=0
PairPos2: "'kern' Horizontal Kerning lookup 15-2" uniFED7 dx=-178 dy=0 dh=-178 dv=0 dx=0 dy=0 dh=0 dv=0
PairPos2: "'kern' Horizontal Kerning lookup 15-2" uni0642 dx=-60 dy=0 dh=-60 dv=0 dx=0 dy=0 dh=0 dv=0
PairPos2: "'kern' Horizontal Kerning lookup 15-2" uniFED3 dx=-178 dy=0 dh=-178 dv=0 dx=0 dy=0 dh=0 dv=0
PairPos2: "'kern' Horizontal Kerning lookup 15-2" uni0641 dx=-178 dy=0 dh=-178 dv=0 dx=0 dy=0 dh=0 dv=0
PairPos2: "'kern' Horizontal Kerning lookup 15-2" uniFECF dx=-178 dy=0 dh=-178 dv=0 dx=0 dy=0 dh=0 dv=0
PairPos2: "'kern' Horizontal Kerning lookup 15-2" uniFECB dx=-178 dy=0 dh=-178 dv=0 dx=0 dy=0 dh=0 dv=0
PairPos2: "'kern' Horizontal Kerning lookup 15-2" uniFEC7 dx=-178 dy=0 dh=-178 dv=0 dx=0 dy=0 dh=0 dv=0
PairPos2: "'kern' Horizontal Kerning lookup 15-2" uni0638 dx=-178 dy=0 dh=-178 dv=0 dx=0 dy=0 dh=0 dv=0
PairPos2: "'kern' Horizontal Kerning lookup 15-2" uniFEC3 dx=-178 dy=0 dh=-178 dv=0 dx=0 dy=0 dh=0 dv=0
PairPos2: "'kern' Horizontal Kerning lookup 15-2" uni0637 dx=-178 dy=0 dh=-178 dv=0 dx=0 dy=0 dh=0 dv=0
PairPos2: "'kern' Horizontal Kerning lookup 15-2" uniFEBF dx=-178 dy=0 dh=-178 dv=0 dx=0 dy=0 dh=0 dv=0
PairPos2: "'kern' Horizontal Kerning lookup 15-2" uni0636 dx=-178 dy=0 dh=-178 dv=0 dx=0 dy=0 dh=0 dv=0
PairPos2: "'kern' Horizontal Kerning lookup 15-2" uniFEBB dx=-178 dy=0 dh=-178 dv=0 dx=0 dy=0 dh=0 dv=0
PairPos2: "'kern' Horizontal Kerning lookup 15-2" uni0635 dx=-178 dy=0 dh=-178 dv=0 dx=0 dy=0 dh=0 dv=0
PairPos2: "'kern' Horizontal Kerning lookup 15-2" uniFEB7 dx=-178 dy=0 dh=-178 dv=0 dx=0 dy=0 dh=0 dv=0
PairPos2: "'kern' Horizontal Kerning lookup 15-2" uni0634 dx=-178 dy=0 dh=-178 dv=0 dx=0 dy=0 dh=0 dv=0
PairPos2: "'kern' Horizontal Kerning lookup 15-2" uniFEB3 dx=-178 dy=0 dh=-178 dv=0 dx=0 dy=0 dh=0 dv=0
PairPos2: "'kern' Horizontal Kerning lookup 15-2" uni0633 dx=-178 dy=0 dh=-178 dv=0 dx=0 dy=0 dh=0 dv=0
PairPos2: "'kern' Horizontal Kerning lookup 15-2" uni0630 dx=-178 dy=0 dh=-178 dv=0 dx=0 dy=0 dh=0 dv=0
PairPos2: "'kern' Horizontal Kerning lookup 15-2" uni062F dx=-178 dy=0 dh=-178 dv=0 dx=0 dy=0 dh=0 dv=0
PairPos2: "'kern' Horizontal Kerning lookup 15-2" uniFEA7 dx=-178 dy=0 dh=-178 dv=0 dx=0 dy=0 dh=0 dv=0
PairPos2: "'kern' Horizontal Kerning lookup 15-2" uniFEA3 dx=-178 dy=0 dh=-178 dv=0 dx=0 dy=0 dh=0 dv=0
PairPos2: "'kern' Horizontal Kerning lookup 15-2" uniFE9F dx=-178 dy=0 dh=-178 dv=0 dx=0 dy=0 dh=0 dv=0
PairPos2: "'kern' Horizontal Kerning lookup 15-2" uniFE9B dx=-178 dy=0 dh=-178 dv=0 dx=0 dy=0 dh=0 dv=0
PairPos2: "'kern' Horizontal Kerning lookup 15-2" uni062B dx=-178 dy=0 dh=-178 dv=0 dx=0 dy=0 dh=0 dv=0
PairPos2: "'kern' Horizontal Kerning lookup 15-2" uniFE97 dx=-178 dy=0 dh=-178 dv=0 dx=0 dy=0 dh=0 dv=0
PairPos2: "'kern' Horizontal Kerning lookup 15-2" uni062A dx=-178 dy=0 dh=-178 dv=0 dx=0 dy=0 dh=0 dv=0
PairPos2: "'kern' Horizontal Kerning lookup 15-2" uni0629 dx=-178 dy=0 dh=-178 dv=0 dx=0 dy=0 dh=0 dv=0
PairPos2: "'kern' Horizontal Kerning lookup 15-2" uni0628 dx=-178 dy=0 dh=-178 dv=0 dx=0 dy=0 dh=0 dv=0
PairPos2: "'kern' Horizontal Kerning lookup 15-2" uni0627 dx=-143 dy=0 dh=-143 dv=0 dx=0 dy=0 dh=0 dv=0
PairPos2: "'kern' Horizontal Kerning lookup 15-2" uni0623 dx=-143 dy=0 dh=-143 dv=0 dx=0 dy=0 dh=0 dv=0
PairPos2: "'kern' Horizontal Kerning lookup 15-2" uni0622 dx=-143 dy=0 dh=-143 dv=0 dx=0 dy=0 dh=0 dv=0
PairPos2: "'kern' Horizontal Kerning lookup 15-2" uni0621 dx=-178 dy=0 dh=-178 dv=0 dx=0 dy=0 dh=0 dv=0
PairPos2: "'kern' Horizontal Kerning lookup 15-2" uniFB94 dx=-226 dy=0 dh=-226 dv=0 dx=0 dy=0 dh=0 dv=0
PairPos2: "'kern' Horizontal Kerning lookup 15-2" uniFB92 dx=-226 dy=0 dh=-226 dv=0 dx=0 dy=0 dh=0 dv=0
PairPos2: "'kern' Horizontal Kerning lookup 15-2" uni06AF dx=-226 dy=0 dh=-226 dv=0 dx=0 dy=0 dh=0 dv=0
PairPos2: "'kern' Horizontal Kerning lookup 15-2" afii57506 dx=-178 dy=0 dh=-178 dv=0 dx=0 dy=0 dh=0 dv=0
PairPos2: "'kern' Horizontal Kerning lookup 15-2" afii57440 dx=-178 dy=0 dh=-178 dv=0 dx=0 dy=0 dh=0 dv=0
PairPos2: "'kern' Horizontal Kerning lookup 15-2" uniFE8B dx=-178 dy=0 dh=-178 dv=0 dx=0 dy=0 dh=0 dv=0
EndChar

StartChar: uniFEB2
Encoding: 65202 65202 189
GlifName: uniF_E_B_2
Width: 1000
VWidth: 2950
GlyphClass: 2
Flags: W
AnchorPoint: "Anchor-7" -308.098 -704.086 basechar 0
AnchorPoint: "Anchor-10" 280.53 1055.1 basechar 0
LayerCount: 2
Fore
SplineSet
-118.00390625 -407.998046875 m 0,0,1
 -235 -408 -235 -408 -258.00390625 -396.170898438 c 0,2,3
 -485 -278 -485 -278 -484.247070312 -70.958984375 c 4,4,5
 -484 257 -484 257 -418.54296875 446.122070312 c 5,6,-1
 -290.09765625 400.791992188 l 1,7,8
 -334 264 -334 264 -333.731445312 -69.138671875 c 4,9,10
 -334 -296 -334 -296 -104.6015625 -296.201171875 c 0,11,12
 118 -296 118 -296 118.60546875 -4.0546875 c 0,13,14
 119 296 119 296 60.19921875 466.825195312 c 1,15,-1
 185.96875 507.435546875 l 1,16,-1
 216.848632812 356.262695312 l 2,17,18
 257 160 257 160 353.500976562 159.9921875 c 0,19,20
 449.22249972 160.000018202 449.22249972 160.000018202 465.8125 360.504882812 c 2,21,-1
 480.696289062 540.388671875 l 1,22,-1
 571.747070312 540.388671875 l 1,23,-1
 586.630859375 360.442382812 l 2,24,25
 603 161 603 161 686.926757812 160.45703125 c 0,26,27
 760.149354825 159.999065871 760.149354825 159.999065871 769.416992188 357.317382812 c 2,28,-1
 779.416992188 570.228515625 l 1,29,-1
 902.366210938 570.228515625 l 1,30,-1
 917.366210938 358.41796875 l 2,31,32
 930.006327032 179.910647851 930.006327032 179.910647851 988.754882812 179.916992188 c 2,33,-1
 1006.84082031 179.918945312 l 2,34,35
 1024.92285156 179.999655643 1024.92285156 179.999655643 1024.92285156 105.092773438 c 2,36,-1
 1024.92285156 86.2783203125 l 2,37,38
 1025.00007248 -0.0810546875 1025.00007248 -0.0810546875 1006.84179688 -0.0810546875 c 2,39,-1
 990.517578125 -0.0810546875 l 2,40,41
 905 -0 905 -0 850.245117188 131.383789062 c 1,42,43
 774 -3 774 -3 623 85 c 0,44,45
 546 130 546 130 535.64453125 116.200195312 c 0,46,47
 451 8 451 8 443.735351562 6.623046875 c 0,48,49
 276 -21 276 -21 233 76 c 1,50,51
 199 -186 199 -186 154 -251.666992188 c 0,52,53
 47 -408 47 -408 -118.00390625 -407.998046875 c 0,0,1
EndSplineSet
EndChar

StartChar: uniFEB3
Encoding: 65203 65203 190
GlifName: uniF_E_B_3
Width: 1000
VWidth: 2950
GlyphClass: 2
Flags: W
AnchorPoint: "Anchor-10" 589.961 1064.67 basechar 0
AnchorPoint: "Anchor-7" 639.534 -238.974 basechar 0
LayerCount: 2
Fore
SplineSet
759.483398438 180.5 m 8,0,1
 836 179 836 179 836.083984375 420.196289062 c 0,2,3
 836 526 836 526 808.391601562 646.626953125 c 1,4,-1
 921.471679688 676.623046875 l 1,5,6
 938 591 938 591 937.694335938 423.943359375 c 0,7,8
 936 1 936 1 794.725585938 0.9931640625 c 16,9,10
 657 1 657 1 591.16796875 133.11328125 c 1,11,12
 496 0 496 0 438.033203125 0.5 c 0,13,14
 307 1 307 1 222.020507812 132.940429688 c 1,15,16
 147 0 147 0 48.849609375 0 c 2,17,-1
 -6.9384765625 0 l 2,18,19
 -62.7783203125 0 -62.7783203125 0 -62.7783203125 86.3134765625 c 2,20,-1
 -62.7783203125 105.192382812 l 2,21,22
 -62.9999971061 179.999023438 -62.9999971061 179.999023438 -6.9384765625 179.999023438 c 2,23,-1
 51.00390625 179.999023438 l 2,24,25
 161.240763525 180.000002138 161.240763525 180.000002138 180.135742188 381.643554688 c 2,26,-1
 195.01953125 540.48046875 l 1,27,-1
 285.990234375 540.469726562 l 1,28,-1
 300.874023438 380.5234375 l 2,29,30
 320 180 320 180 438.063476562 180.073242188 c 0,31,32
 521.70319588 180.000258988 521.70319588 180.000258988 540.375976562 380.5859375 c 2,33,-1
 555.259765625 540.469726562 l 1,34,-1
 646.310546875 540.469726562 l 1,35,-1
 661.194335938 380.5234375 l 2,36,37
 680 183 680 183 759.483398438 180.5 c 8,0,1
EndSplineSet
EndChar

StartChar: uniFEB4
Encoding: 65204 65204 191
GlifName: uniF_E_B_4
Width: 1000
VWidth: 2943
GlyphClass: 2
Flags: W
AnchorPoint: "Anchor-10" 639.961 1098.67 basechar 0
AnchorPoint: "Anchor-7" 389.534 -238.974 basechar 0
LayerCount: 2
Fore
SplineSet
824.796875 131.466796875 m 1,0,1
 749 1 749 1 684.725585938 0.9931640625 c 0,2,3
 567 1 567 1 511.16796875 133.11328125 c 1,4,5
 416 0 416 0 336.033203125 0.5 c 0,6,7
 277 1 277 1 192.020507812 132.940429688 c 1,8,9
 117 0 117 0 8.849609375 0 c 2,10,-1
 -6.9384765625 0 l 2,11,12
 -62.7783203125 0 -62.7783203125 0 -62.7783203125 86.3134765625 c 2,13,-1
 -62.7783203125 105.192382812 l 2,14,15
 -62.9999971061 179.99902344 -62.9999971061 179.99902344 -6.9384765625 179.999023438 c 2,16,-1
 11.00390625 179.999023438 l 2,17,18
 101.24076357 180.000002613 101.24076357 180.000002613 120.135742188 381.643554688 c 2,19,-1
 135.01953125 540.48046875 l 1,20,-1
 235.990234375 540.469726562 l 1,21,-1
 250.874023438 380.5234375 l 2,22,23
 270 180 270 180 348.063476562 180.073242188 c 0,24,25
 431.70319588 180.000258988 431.70319588 180.000258988 450.375976562 380.5859375 c 2,26,-1
 465.259765625 540.469726562 l 1,27,-1
 566.310546875 540.469726562 l 1,28,-1
 581.194335938 380.5234375 l 2,29,30
 600 181 600 181 681.489257812 180.538085938 c 0,31,32
 733.747992673 180.002582359 733.747992673 180.002582359 743.98046875 377.3984375 c 2,33,-1
 753.98046875 570.309570312 l 1,34,-1
 846.9296875 570.309570312 l 5,35,-1
 861.9296875 378.499023438 l 6,36,37
 877.001184387 179.984399816 877.001184387 179.984399816 1003.31835938 179.998046875 c 6,38,-1
 1021.39648438 180 l 6,39,40
 1039.48632812 180 1039.48632812 180 1039.48632812 105.173828125 c 6,41,-1
 1039.48632812 86.3720703125 l 6,42,43
 1039 0 1039 0 1021.40527344 0 c 6,44,-1
 1005.08007812 0 l 6,45,46
 880 0 880 0 824.796875 131.466796875 c 1,0,1
EndSplineSet
EndChar

StartChar: uniFEBA
Encoding: 65210 65210 197
GlifName: uniF_E_B_A_
Width: 1600
VWidth: 2950
GlyphClass: 2
Flags: W
AnchorPoint: "Anchor-7" -48.098 -704.086 basechar 0
AnchorPoint: "Anchor-10" 1742.53 1210.1 basechar 0
LayerCount: 2
Fore
SplineSet
-20.00390625 -467.998046875 m 4,0,1
 -89 -468 -89 -468 -229.00390625 -396.170898438 c 4,2,3
 -486 -264 -486 -264 -485.247070312 99.041015625 c 4,4,5
 -485 257 -485 257 -419.54296875 446.122070312 c 5,6,-1
 -261.09765625 400.791992188 l 5,7,8
 -315 233 -315 233 -314.731445312 100.861328125 c 4,9,10
 -314 -294 -314 -294 -5.6015625 -296.201171875 c 28,11,12
 436 -298 436 -298 437.60546875 164.9453125 c 4,13,14
 438 295 438 295 379.19921875 465.825195312 c 5,15,-1
 545.96875 506.435546875 l 5,16,-1
 576.848632812 375.262695312 l 6,17,18
 615 214 615 214 665.083007812 209.373046875 c 5,19,20
 998 771 998 771 1122.83691406 771.423828125 c 4,21,22
 1334 772 1334 772 1438.62695312 618.911132812 c 4,23,24
 1501 528 1501 528 1500.87402344 402.149414062 c 4,25,26
 1501 289 1501 289 1422.24023438 180.739257812 c 5,27,-1
 1635.73828125 180 l 6,28,-1
 1654.37109375 180 l 6,29,30
 1672.49316406 180 1672.49316406 180 1672.49316406 105.174804688 c 6,31,-1
 1672.49316406 86.31640625 l 6,32,33
 1672 0 1672 0 1654.41210938 0 c 6,34,-1
 1630.2265625 0 l 6,35,36
 1357 0 1357 0 1267.1796875 72.1123046875 c 5,37,38
 1141 0 1141 0 1003.15136719 0 c 6,39,-1
 952.340820312 0 l 6,40,41
 714 0 714 0 597.264648438 58.376953125 c 5,42,43
 582 -124 582 -124 493 -251.666992188 c 4,44,45
 342 -468 342 -468 -20.00390625 -467.998046875 c 4,0,1
854.65625 180.416992188 m 5,46,-1
 1008.75195312 180.416992188 l 6,47,48
 1327 180 1327 180 1324.66894531 399.1640625 c 4,49,50
 1324 465 1324 465 1289.54394531 510.215820312 c 4,51,52
 1226.79980469 591.555664062 1226.79980469 591.555664062 1122.11328125 588.573242188 c 4,53,54
 1111.67871094 587.981445312 1111.67871094 587.981445312 852.971679688 183.495117188 c 6,55,-1
 851.002929688 180.416992188 l 5,56,-1
 854.65625 180.416992188 l 5,46,-1
EndSplineSet
EndChar

StartChar: uniFEBB
Encoding: 65211 65211 198
GlifName: uniF_E_B_B_
Width: 1600
VWidth: 2950
GlyphClass: 2
Flags: W
AnchorPoint: "Anchor-10" 1134.91 1212.52 basechar 0
AnchorPoint: "Anchor-7" 699.209 -242.348 basechar 0
LayerCount: 2
Fore
SplineSet
271.079101562 376.12890625 m 2,0,1
 271.079101562 376.12890625 271.079101562 376.12890625 285.973632812 574 c 1,2,-1
 407 574 l 1,3,-1
 421.895507812 374.055664062 l 2,4,5
 433 227 433 227 517.75390625 208.848632812 c 1,6,7
 851 772 851 772 1105.75195312 771.423828125 c 4,8,9
 1320 771 1320 771 1425.78125 617.892578125 c 4,10,11
 1486 531 1486 531 1485.57910156 415.791015625 c 4,12,13
 1485 0 1485 0 856.133789062 0 c 2,14,15
 839.856921264 -11.0975509282 839.856921264 -11.0975509282 805.323242188 0 c 2,16,17
 436 0 436 0 348.51953125 146.795898438 c 1,18,19
 241 0 241 0 9.984375 0 c 2,20,-1
 -6.9384765625 0 l 2,21,22
 -62.7783203125 0 -62.7783203125 0 -62.7783203125 86.3134765625 c 2,23,-1
 -62.7783203125 105.192382812 l 2,24,25
 -63 180 -63 180 -5.9384765625 180 c 2,26,-1
 10.1103515625 180 l 2,27,28
 256 180 256 180 271.079101562 376.12890625 c 2,0,1
1105.3046875 588.573242188 m 4,29,30
 966 588 966 588 703.985351562 180.416992188 c 1,31,-1
 861.73828125 180.534179688 l 2,32,33
 1307 181 1307 181 1307.64355469 397.368164062 c 4,34,35
 1308 483 1308 483 1249.90527344 536 c 132,-1,36
 1192 589 1192 589 1105.3046875 588.573242188 c 4,29,30
EndSplineSet
EndChar

StartChar: uniFEBC
Encoding: 65212 65212 199
GlifName: uniF_E_B_C_
Width: 1600
VWidth: 2950
GlyphClass: 2
Flags: W
AnchorPoint: "Anchor-10" 1134.91 1212.52 basechar 0
AnchorPoint: "Anchor-7" 699.209 -242.348 basechar 0
LayerCount: 2
Fore
SplineSet
271.079101562 376.12890625 m 2,0,1
 271.079101562 376.12890625 271.079101562 376.12890625 285.973632812 574 c 1,2,-1
 407 574 l 1,3,-1
 421.895507812 374.055664062 l 2,4,5
 434 211 434 211 518.065429688 210.373046875 c 1,6,7
 849 770 849 770 1085.81933594 771.423828125 c 4,8,9
 1297 772 1297 772 1401.609375 618.911132812 c 4,10,11
 1464 528 1464 528 1463.85644531 402.149414062 c 4,12,13
 1464 289 1464 289 1385.22265625 180.739257812 c 5,14,-1
 1598.72070312 180 l 6,15,-1
 1617.35351562 180 l 6,16,17
 1635.47558594 180 1635.47558594 180 1635.47558594 105.174804688 c 6,18,-1
 1635.47558594 86.31640625 l 6,19,20
 1635 0 1635 0 1617.39453125 0 c 6,21,22
 1616.12499825 -4.55182701812 1616.12499825 -4.55182701812 1593.20898438 0 c 6,23,24
 1320 0 1320 0 1230.16210938 72.1123046875 c 5,25,26
 1104 0 1104 0 856.133789062 0 c 2,27,-1
 805.323242188 0 l 2,28,29
 440.131561891 0 440.131561891 0 350.045898438 144.23828125 c 2,30,-1
 348.481445312 146.743164062 l 1,31,-1
 346.736328125 144.360351562 l 2,32,33
 241 0 241 0 9.984375 0 c 2,34,-1
 -6.9384765625 0 l 2,35,36
 -62.7783203125 0 -62.7783203125 0 -62.7783203125 86.3134765625 c 2,37,-1
 -62.7783203125 105.192382812 l 2,38,39
 -63 180 -63 180 -6.9384765625 180 c 2,40,-1
 10.1103515625 180 l 2,41,42
 256 180 256 180 271.079101562 376.12890625 c 2,0,1
707.638671875 180.416992188 m 1,43,-1
 861.734375 180.416992188 l 2,44,45
 1290 180 1290 180 1287.65136719 399.1640625 c 4,46,47
 1287 465 1287 465 1252.52636719 510.215820312 c 4,48,49
 1192 589 1192 589 1085.09570312 588.573242188 c 4,50,51
 964.671959138 587.998434192 964.671959138 587.998434192 705.954101562 183.495117188 c 2,52,-1
 703.985351562 180.416992188 l 1,53,-1
 707.638671875 180.416992188 l 1,43,-1
EndSplineSet
EndChar

StartChar: uniFEC2
Encoding: 65218 65218 205
GlifName: uniF_E_C_2
Width: 1600
VWidth: 2950
GlyphClass: 2
Flags: W
AnchorPoint: "Anchor-7" 641.602 -238.453 basechar 0
AnchorPoint: "Anchor-10" 481.36 1544.58 basechar 0
LayerCount: 2
Fore
SplineSet
506.15234375 180.533203125 m 1,0,-1
 663.838867188 180.533203125 l 2,1,2
 1189 181 1189 181 1189.7421875 397.361328125 c 0,3,4
 1190 483 1190 483 1131.51367188 535.765625 c 0,5,6
 1073 589 1073 589 984.478515625 588.557617188 c 0,7,8
 761 586 761 586 506.15234375 180.533203125 c 1,0,-1
1116.1796875 72.0791015625 m 1,9,10
 979.99708517 -0.00154280235178 979.99708517 -0.00154280235178 658.232421875 -0.0009765625 c 2,11,-1
 103.302734375 -0 l 1,12,-1
 103.302734375 180.22265625 l 1,13,-1
 321.827148438 180.376953125 l 1,14,-1
 323.5546875 180.377929688 l 1,15,-1
 324.70703125 180.37890625 l 1,16,-1
 400.934570312 298.131835938 l 1,17,-1
 401.638671875 299.314453125 l 1,18,-1
 401.638671875 1396.87304688 l 1,19,-1
 566.950195312 1396.87304688 l 1,20,-1
 566.950195312 520.508789062 l 1,21,22
 766 771 766 771 986.319335938 771.420898438 c 0,23,24
 1200 772 1200 772 1307.89648438 617.868164062 c 0,25,26
 1369 531 1369 531 1368.62792969 405.821289062 c 4,27,28
 1368 290 1368 290 1281.51074219 180.946289062 c 5,29,-1
 1504.70800781 180.458007812 l 2,30,-1
 1523.31738281 180.458007812 l 2,31,32
 1541.46289062 179.988010399 1541.46289062 179.988010399 1541.46289062 105.173828125 c 2,33,-1
 1541.46289062 86.32421875 l 1,34,35
 1539.99998345 -0.0009765625 1539.99998345 -0.0009765625 1523.38183594 -0.0009765625 c 2,36,-1
 1499.19628906 -0.0009765625 l 2,37,38
 1205 -0 1205 -0 1116.1796875 72.0791015625 c 1,9,10
326.108398438 182.797851562 m 1,39,-1
 326.108398438 182.797851562 l 1,39,-1
EndSplineSet
EndChar

StartChar: uniFEC3
Encoding: 65219 65219 206
GlifName: uniF_E_C_3
Width: 1600
VWidth: 2950
GlyphClass: 2
Flags: W
AnchorPoint: "Anchor-7" 501.602 -238.453 basechar 0
AnchorPoint: "Anchor-10" 319.36 1534.58 basechar 0
LayerCount: 2
Fore
SplineSet
495.5703125 0 m 6,0,-1
 -6.9384765625 0 l 6,1,2
 -62.7783203125 0 -62.7783203125 0 -62.7783203125 86.3134765625 c 6,3,-1
 -62.7783203125 105.192382812 l 6,4,5
 -62.999594989 179.863325745 -62.999594989 179.863325745 -6.9384765625 179.993164062 c 6,6,-1
 160.880859375 180.381835938 l 5,7,-1
 162.018554688 180.384765625 l 5,8,9
 194 234 194 234 238.9765625 299.141601562 c 5,10,-1
 238.9765625 1396.87402344 l 5,11,-1
 404.288085938 1396.87402344 l 5,12,-1
 404.288085938 520.490234375 l 5,13,14
 603 771 603 771 823.65625 771.421875 c 4,15,16
 1039 772 1039 772 1145.22265625 617.885742188 c 4,17,18
 1205 532 1205 532 1205.01464844 417.4296875 c 4,19,20
 1205 0 1205 0 495.5703125 0 c 6,0,-1
343.479492188 180.534179688 m 5,21,-1
 501.176757812 180.534179688 l 6,22,23
 1027 181 1027 181 1027.08007812 397.390625 c 4,24,25
 1027 483 1027 483 967.997070312 536.231445312 c 4,26,27
 910 589 910 589 821.81640625 588.55859375 c 4,28,29
 599 586 599 586 343.479492188 180.534179688 c 5,21,-1
EndSplineSet
EndChar

StartChar: uniFEC4
Encoding: 65220 65220 207
GlifName: uniF_E_C_4
Width: 1354
VWidth: 2950
GlyphClass: 2
Flags: W
AnchorPoint: "Anchor-10" 319.36 1534.58 basechar 0
AnchorPoint: "Anchor-7" 501.602 -238.453 basechar 0
LayerCount: 2
Fore
SplineSet
343.479492188 180.534179688 m 1,0,-1
 501.176757812 180.534179688 l 2,1,2
 1027 181 1027 181 1027.08007812 397.390625 c 0,3,4
 1027 483 1027 483 967.997070312 536.231445312 c 0,5,6
 910 589 910 589 821.81640625 588.55859375 c 0,7,8
 599 586 599 586 343.479492188 180.534179688 c 1,0,-1
953.55078125 72.060546875 m 1,9,10
 809 0 809 0 495.5703125 0 c 2,11,-1
 -6.9384765625 0 l 2,12,13
 -62.7783203125 0 -62.7783203125 0 -62.7783203125 86.3134765625 c 2,14,-1
 -62.7783203125 105.192382812 l 2,15,16
 -62.999594989 179.863325745 -62.999594989 179.863325745 -6.9384765625 179.993164062 c 2,17,-1
 160.880859375 180.381835938 l 1,18,-1
 161.9375 180.384765625 l 1,19,20
 217 261 217 261 238.9765625 299.338867188 c 1,21,-1
 238.9765625 1396.87402344 l 1,22,-1
 404.288085938 1396.87402344 l 1,23,-1
 404.288085938 520.490234375 l 1,24,25
 603 770 603 770 823.655273438 771.421875 c 0,26,27
 1043 772 1043 772 1145.203125 617.9140625 c 0,28,29
 1205 529 1205 529 1205 403.161132812 c 4,30,31
 1205 285 1205 285 1118.76269531 180.838867188 c 5,32,-1
 1342.04589844 180.458984375 l 2,33,-1
 1360.65625 180.458984375 l 2,34,35
 1378.80078125 180.004984711 1378.80078125 180.004984711 1378.80078125 105.174804688 c 2,36,-1
 1378.80078125 86.322265625 l 2,37,38
 1379 0 1379 0 1360.71972656 0 c 2,39,-1
 1336.53417969 0 l 2,40,41
 1042 0 1042 0 953.55078125 72.060546875 c 1,9,10
EndSplineSet
EndChar

StartChar: uniFECA
Encoding: 65226 65226 213
GlifName: uniF_E_C_A_
Width: 1128
VWidth: 2950
GlyphClass: 2
Flags: W
AnchorPoint: "Anchor-7" 541.833 -854.619 basechar 0
AnchorPoint: "Anchor-10" 548.833 1114.24 basechar 0
LayerCount: 2
Fore
SplineSet
437.192382812 335.60546875 m 2,0,1
 197.000077352 513.967100133 197.000077352 513.967100133 196.880859375 564.673828125 c 0,2,3
 197 645 197 645 337.456054688 702.862304688 c 0,4,5
 445 748 445 748 575.974609375 747.208007812 c 0,6,7
 727 747 727 747 829.807617188 696.909179688 c 0,8,9
 949 639 949 639 948.895507812 569.672851562 c 0,10,11
 948.999603605 520.188435685 948.999603605 520.188435685 688.806640625 316.865234375 c 6,12,-1
 686.965820312 315.426757812 l 5,13,14
 833.501676093 180.458984375 833.501676093 180.458984375 1088.421875 180.458984375 c 2,15,-1
 1136.27734375 180.458984375 l 2,16,17
 1154.42285156 179.989048918 1154.42285156 179.989048918 1154.42285156 105.174804688 c 2,18,-1
 1154.42285156 86.3193359375 l 2,19,20
 1154 0 1154 0 1136.34179688 0 c 2,21,-1
 1088.11914062 0 l 2,22,23
 795.318414448 2.84217094304e-14 795.318414448 2.84217094304e-14 558.349609375 216.4765625 c 2,24,-1
 557.288085938 217.446289062 l 1,25,-1
 556.03125 216.749023438 l 2,26,27
 412 137 412 137 342.75 36.3125 c 0,28,29
 273 -63 273 -63 272.666015625 -184.046875 c 0,30,31
 274 -467 274 -467 678.581054688 -467.788085938 c 0,32,33
 845 -468 845 -468 1020.96386719 -395.998046875 c 1,34,-1
 1023.97851562 -578.717773438 l 1,35,36
 887 -640 887 -640 677.81640625 -639.228515625 c 0,37,38
 107 -636 107 -636 106.403320312 -184.174804688 c 0,39,40
 106.000066385 115.95059266 106.000066385 115.95059266 437.09375 332.326171875 c 2,41,-1
 439.495117188 333.895507812 l 1,42,-1
 437.192382812 335.60546875 l 2,0,1
688.422851562 534.646484375 m 0,43,44
 679.473632812 548.77734375 679.473632812 548.77734375 664.12890625 558.200195312 c 128,-1,45
 648.78515625 567.622070312 648.78515625 567.622070312 627.350585938 572.331054688 c 128,-1,46
 605.916015625 577.0390625 605.916015625 577.0390625 578.197265625 577.20703125 c 0,47,48
 536.52734375 577.465820312 536.52734375 577.465820312 507.514648438 566.44921875 c 128,-1,49
 478.502929688 555.432617188 478.502929688 555.432617188 462.356445312 533.0078125 c 0,50,51
 457.483398438 526.239257812 457.483398438 526.239257812 485.760742188 500.892578125 c 128,-1,52
 514.037109375 475.546875 514.037109375 475.546875 579.169921875 425.978515625 c 2,53,-1
 580.486328125 424.9765625 l 1,54,-1
 581.717773438 426.083007812 l 2,55,56
 641.641601562 479.939453125 641.641601562 479.939453125 666.505859375 504.731445312 c 128,-1,57
 691.37109375 529.5234375 691.37109375 529.5234375 688.422851562 534.646484375 c 0,43,44
EndSplineSet
EndChar

StartChar: uniFECB
Encoding: 65227 65227 214
GlifName: uniF_E_C_B_
Width: 1038
VWidth: 2950
GlyphClass: 2
Flags: W
AnchorPoint: "Anchor-10" 514.493 1187.05 basechar 0
AnchorPoint: "Anchor-7" 434.511 -237.021 basechar 0
LayerCount: 2
Fore
SplineSet
832.09765625 585.458984375 m 1,0,1
 710.776120089 684.549339418 710.776120089 684.549339418 586.565429688 687.30078125 c 0,2,3
 555 688 555 688 525.791015625 683.163085938 c 0,4,5
 497 679 497 679 471.224609375 669.3359375 c 0,6,7
 420 651 420 651 382.662109375 614.439453125 c 0,8,9
 379 611 379 611 375.760742188 607.30078125 c 0,10,11
 372 604 372 604 369.197265625 600.004882812 c 0,12,13
 366 596 366 596 362.971679688 592.549804688 c 128,-1,14
 360 589 360 589 357.083984375 584.936523438 c 128,-1,15
 354 581 354 581 351.532226562 577.163085938 c 0,16,17
 349 573 349 573 346.318359375 569.229492188 c 0,18,19
 344 565 344 565 341.440429688 561.134765625 c 0,20,21
 339 557 339 557 336.899414062 552.879882812 c 0,22,23
 335 549 335 549 332.694335938 544.461914062 c 0,24,25
 331 540 331 540 328.82421875 535.880859375 c 0,26,27
 311 492 311 492 310.602539062 440.444335938 c 0,28,29
 310.995071948 310.629756419 310.995071948 310.629756419 468.02734375 232.001953125 c 0,30,31
 490.097765115 220.951047921 490.097765115 220.951047921 495.858398438 222.349609375 c 2,32,-1
 929.0703125 327.524414062 l 1,33,-1
 929.0703125 147.799804688 l 1,34,35
 440.491108734 -0.15410490609 440.491108734 -0.15410490609 55.439453125 -0.021484375 c 2,36,-1
 -6.9384765625 0 l 2,37,38
 -62.7783203125 0 -62.7783203125 0 -62.7783203125 86.3134765625 c 2,39,-1
 -62.7783203125 105.192382812 l 2,40,41
 -63.0013574549 180.458084231 -63.0013574549 180.458084231 -6.9453125 180.458984375 c 2,42,-1
 236.314453125 180.462890625 l 1,43,-1
 243.065429688 180.462890625 l 1,44,-1
 247.62890625 180.462890625 l 1,45,-1
 244.536132812 183.818359375 l 2,46,47
 221.978460659 209.593645816 221.978460659 209.593645816 217.809570312 215.178710938 c 0,48,49
 206 231 206 231 195.538085938 246.427734375 c 0,50,51
 140 331 140 331 140.720703125 449.952148438 c 0,52,53
 142 610 142 610 229.700195312 720.661132812 c 0,54,55
 245 740 245 740 263.403320312 757.5234375 c 128,-1,56
 282 775 282 775 302.381835938 789.756835938 c 0,57,58
 323 805 323 805 346.651367188 817.37109375 c 0,59,60
 438 867 438 867 561.56640625 866.232421875 c 0,61,62
 765 865 765 865 897.498046875 728.912109375 c 1,63,-1
 832.09765625 585.458984375 l 1,0,1
EndSplineSet
EndChar

StartChar: uniFECC
Encoding: 65228 65228 215
GlifName: uniF_E_C_C_
Width: 1051
VWidth: 2950
GlyphClass: 2
Flags: W
AnchorPoint: "Anchor-7" 544.511 -237.021 basechar 0
AnchorPoint: "Anchor-10" 551.107 1110.89 basechar 0
LayerCount: 2
Fore
SplineSet
1034.80175781 179.993164062 m 2,0,-1
 1058.37890625 179.993164062 l 2,1,2
 1076.45703125 180.000177301 1076.45703125 180.000177301 1076.45703125 105.174804688 c 2,3,-1
 1076.45703125 86.3203125 l 2,4,5
 1076 0 1076 0 1058.37695312 0 c 2,6,-1
 1035.1875 0 l 2,7,8
 763 0 763 0 576.994140625 143.728515625 c 1,9,10
 409 0 409 0 17.048828125 0 c 2,11,-1
 -6.9384765625 0 l 2,12,13
 -62.7783203125 0 -62.7783203125 0 -62.7783203125 86.3134765625 c 2,14,-1
 -62.7783203125 105.192382812 l 2,15,16
 -62.9999797429 179.993164062 -62.9999797429 179.993164062 -6.9384765625 179.993164062 c 2,17,-1
 20.412109375 179.993164062 l 2,18,19
 351 180 351 180 465.822265625 255.071289062 c 1,20,21
 190 446 190 446 190.196289062 508.974609375 c 4,22,23
 190 589 190 589 330.76953125 647.154296875 c 0,24,25
 438 692 438 692 569.286132812 691.500976562 c 0,26,27
 646 691 646 691 709.3984375 678.669921875 c 0,28,29
 773 666 773 666 823.1171875 641.205078125 c 0,30,31
 883 612 883 612 912.430664062 580.026367188 c 128,-1,32
 942 548 942 548 942.2109375 513.977539062 c 0,33,34
 942 459 942 459 678.8046875 254.34765625 c 1,35,36
 805 180 805 180 1034.80175781 179.993164062 c 2,0,-1
681.73828125 478.939453125 m 0,37,38
 655.104492188 520.993164062 655.104492188 520.993164062 571.512695312 521.5 c 0,39,40
 529.842773438 521.758789062 529.842773438 521.758789062 500.830078125 510.7421875 c 128,-1,41
 471.818359375 499.725585938 471.818359375 499.725585938 455.671875 477.30078125 c 0,42,43
 454.97544737 476.333221191 454.97544737 476.333221191 454.942952054 475 c 0,44,45
 454.857703766 471.50242442 454.857703766 471.50242442 459.341796875 465.48828125 c 0,46,47
 465.53515625 457.181640625 465.53515625 457.181640625 481.3828125 443.142578125 c 128,-1,48
 497.23046875 429.103515625 497.23046875 429.103515625 518.756835938 411.940429688 c 128,-1,49
 540.283203125 394.778320312 540.283203125 394.778320312 572.485351562 370.271484375 c 2,50,-1
 573.801757812 369.26953125 l 1,51,-1
 575.033203125 370.375976562 l 2,52,53
 634.95703125 424.232421875 634.95703125 424.232421875 659.821289062 449.024414062 c 128,-1,54
 684.686523438 473.81640625 684.686523438 473.81640625 681.73828125 478.939453125 c 0,37,38
EndSplineSet
EndChar

StartChar: uniFEDA
Encoding: 65242 65242 229
GlifName: uniF_E_D_A_
Width: 1911
VWidth: 2950
GlyphClass: 2
Flags: W
AnchorPoint: "Anchor-10" 895.11 1462.05 basechar 0
AnchorPoint: "Anchor-7" 750.268 -238.468 basechar 0
LayerCount: 2
Fore
SplineSet
649.720703125 611.796875 m 1,0,1
 742 602 742 602 810.09765625 601.272460938 c 0,2,3
 922 601 922 601 970.83203125 623.0625 c 0,4,5
 984 629 984 629 994.674804688 635.883789062 c 0,6,7
 1005 643 1005 643 1011.92578125 651.921875 c 128,-1,8
 1019 661 1019 661 1022.50683594 671.1875 c 0,9,10
 1026 682 1026 682 1026.30761719 693.626953125 c 0,11,12
 1026 716 1026 716 1018.61523438 733.365234375 c 0,13,14
 1011 751 1011 751 995.103515625 764.049804688 c 0,15,16
 980 778 980 778 956.668945312 786.34375 c 0,17,18
 934 795 934 795 902.94140625 799.435546875 c 0,19,20
 691 832 691 832 694.490234375 1010.44921875 c 0,21,22
 699 1214 699 1214 1083.17089844 1243.40429688 c 1,23,-1
 1083.17089844 1118.81738281 l 1,24,25
 954 1107 954 1107 888.60546875 1077.80566406 c 0,26,27
 824 1049 824 1049 823.700195312 1002.45507812 c 0,28,29
 824 926 824 926 964.171875 904.786132812 c 0,30,31
 1060 890 1060 890 1107.68066406 838.440429688 c 0,32,33
 1155 787 1155 787 1154.92480469 698.138671875 c 0,34,35
 1155 578 1155 578 1037 514 c 0,36,37
 962 473 962 473 827.55859375 473.094726562 c 0,38,39
 749 473 749 473 649.720703125 488.088867188 c 1,40,-1
 649.720703125 611.796875 l 1,0,1
1707.70996094 452.336914062 m 2,41,42
 1708 180 1708 180 1895.68261719 180.279296875 c 2,43,-1
 1918.83203125 180.279296875 l 2,44,45
 1937.00017117 180.279296875 1937.00017117 180.279296875 1936.95703125 109.889648438 c 2,46,-1
 1936.95703125 86.3193359375 l 2,47,48
 1936.95703125 0 1936.95703125 0 1918.875 0 c 2,49,-1
 1887.96875 0 l 2,50,51
 1692 0 1692 0 1621 189.310546875 c 1,52,53
 1462 0 1462 0 1012.13378906 0 c 2,54,-1
 843.061523438 0 l 2,55,56
 106 0 106 0 106.16015625 463.875 c 0,57,58
 106 563 106 563 133.489257812 685 c 1,59,-1
 289.356445312 655 l 1,60,61
 271 569 271 569 271.424804688 482.515625 c 0,62,63
 273 181 273 181 843.061523438 179.993164062 c 18,64,-1
 1025 179.779296875 l 2,65,66
 1545.99558418 179.166870839 1545.99558418 179.166870839 1538.82910156 449.983398438 c 1,67,-1
 1538.82910156 1396.56640625 l 1,68,-1
 1707.70996094 1396.56640625 l 1,69,-1
 1707.70996094 452.336914062 l 2,41,42
EndSplineSet
EndChar

StartChar: uniFEDB
Encoding: 65243 65243 230
GlifName: uniF_E_D_B_
Width: 960
VWidth: 2950
GlyphClass: 2
Flags: W
AnchorPoint: "Anchor-10" 297.533 1448.15 basechar 0
AnchorPoint: "Anchor-7" 350.991 -233.935 basechar 0
LayerCount: 2
Fore
SplineSet
235.612304688 0 m 2,0,-1
 -6.9384765625 0 l 2,1,2
 -62.7783203125 0 -62.7783203125 0 -62.7783203125 86.3134765625 c 2,3,-1
 -62.7783203125 105.192382812 l 2,4,5
 -62.999980414 179.993390553 -62.999980414 179.993390553 -6.9384765625 179.993164062 c 2,6,-1
 234.782226562 179.9921875 l 2,7,8
 578 180 578 180 580.724609375 383.111328125 c 0,9,10
 582 479 582 479 499.719726562 561.404296875 c 0,11,12
 451 610 451 610 200.224609375 804.581054688 c 0,13,14
 90 890 90 890 89.9189453125 982.454101562 c 0,15,16
 90 1044 90 1044 126.365234375 1092.49023438 c 0,17,18
 154.045923543 1131.06399565 154.045923543 1131.06399565 228.852539062 1161.98632812 c 2,19,-1
 899.37109375 1439.15429688 l 1,20,-1
 899.37109375 1258.82714844 l 1,21,-1
 247.845703125 988.420898438 l 1,22,-1
 244.654296875 987.172851562 l 1,23,-1
 247.310546875 985.0078125 l 1,24,-1
 589.502929688 706.112304688 l 2,25,26
 749 576 749 576 746.217773438 378.377929688 c 0,27,28
 741 0 741 0 235.612304688 0 c 2,0,-1
EndSplineSet
EndChar

StartChar: uniFEDC
Encoding: 65244 65244 231
GlifName: uniF_E_D_C_
Width: 1000
VWidth: 2950
GlyphClass: 2
Flags: W
AnchorPoint: "Anchor-10" 297.533 1448.15 basechar 0
AnchorPoint: "Anchor-7" 350.991 -233.935 basechar 0
LayerCount: 2
Fore
SplineSet
235.612304688 0 m 2,0,-1
 -6.9384765625 0 l 2,1,2
 -62.7783203125 0 -62.7783203125 0 -62.7783203125 86.3134765625 c 2,3,-1
 -62.7783203125 105.192382812 l 2,4,5
 -62.999980414 179.993390553 -62.999980414 179.993390553 -6.9384765625 179.993164062 c 2,6,-1
 234.782226562 179.9921875 l 2,7,8
 578 180 578 180 580.724609375 383.111328125 c 0,9,10
 582 479 582 479 499.719726562 561.404296875 c 0,11,12
 451 610 451 610 200.224609375 804.581054688 c 0,13,14
 90 890 90 890 89.9189453125 982.454101562 c 0,15,16
 90 1042 90 1042 126.365234375 1092.49023438 c 0,17,18
 154.045923543 1131.06399565 154.045923543 1131.06399565 228.852539062 1161.98632812 c 2,19,-1
 899.37109375 1439.15429688 l 1,20,-1
 899.37109375 1258.82714844 l 1,21,-1
 247.845703125 988.420898438 l 1,22,-1
 244.654296875 987.172851562 l 1,23,-1
 247.310546875 985.0078125 l 1,24,-1
 589.500976562 706.114257812 l 2,25,26
 739 584 739 584 746.21875 378.2890625 c 0,27,28
 754.000268256 179.993164062 754.000268256 179.993164062 997.9140625 179.993164062 c 6,29,-1
 1014.24804688 179.993164062 l 6,30,31
 1032.32421875 180.00012485 1032.32421875 180.00012485 1032.32421875 105.174804688 c 6,32,-1
 1032.32421875 86.3125 l 6,33,34
 1032 0 1032 0 1014.24609375 0 c 6,35,-1
 997.807617188 0 l 6,36,37
 740 0 740 0 667.344726562 145.899414062 c 1,38,39
 564 0 564 0 235.612304688 0 c 2,0,-1
EndSplineSet
EndChar

StartChar: uniFEDE
Encoding: 65246 65246 233
GlifName: uniF_E_D_E_
Width: 1426
VWidth: 2950
GlyphClass: 2
Flags: W
AnchorPoint: "Anchor-10" 605.908 1003.66 basechar 0
AnchorPoint: "Anchor-7" 637.902 -658.086 basechar 0
LayerCount: 2
Fore
SplineSet
275.268554688 99.861328125 m 4,0,1
 275 -247 275 -247 668.229492188 -247.216796875 c 4,2,3
 1056.92163776 -247.000043699 1056.92163776 -247.000043699 1057.60449219 127.799804688 c 2,4,-1
 1059.91308594 1394.92285156 l 1,5,-1
 1225.88476562 1394.92285156 l 1,6,-1
 1225.30175781 397.188476562 l 2,7,8
 1225.00038805 180.279296875 1225.00038805 180.279296875 1414.70410156 180.279296875 c 2,9,-1
 1434.78417969 180.279296875 l 2,10,11
 1452.90722656 180.001422463 1452.90722656 180.001422463 1452.90722656 109.889648438 c 2,12,-1
 1452.90722656 86.3017578125 l 2,13,14
 1453 0 1453 0 1434.82714844 0 c 2,15,-1
 1410.3515625 0 l 2,16,17
 1287 0 1287 0 1216.17578125 70.9541015625 c 1,18,19
 1175 -418 1175 -418 667.329101562 -417.724609375 c 4,20,21
 447 -418 447 -418 305 -328.9921875 c 4,22,23
 103 -202 103 -202 103.752929688 98.041015625 c 4,24,25
 104 256 104 256 169.45703125 445.122070312 c 5,26,-1
 328.90234375 399.791992188 l 5,27,28
 275 232 275 232 275.268554688 99.861328125 c 4,0,1
EndSplineSet
EndChar

StartChar: uniFEDF
Encoding: 65247 65247 234
GlifName: uniF_E_D_F_
Width: 605
VWidth: 2950
GlyphClass: 2
Flags: W
AnchorPoint: "Anchor-10" 367.751 1533.45 basechar 0
AnchorPoint: "Anchor-7" 279.812 -238.234 basechar 0
LayerCount: 2
Fore
SplineSet
-6.9384765625 0 m 2,0,1
 -62.7783203125 0 -62.7783203125 0 -62.7783203125 86.3134765625 c 2,2,-1
 -62.7783203125 105.192382812 l 2,3,4
 -62.9999797429 179.993164062 -62.9999797429 179.993164062 -6.9384765625 179.993164062 c 2,5,-1
 61.482421875 179.993164062 l 2,6,7
 284.313476562 179.986848937 284.313476562 179.986848937 284.313476562 436.663085938 c 2,8,-1
 284.313476562 1396.171875 l 1,9,-1
 449.627929688 1396.171875 l 1,10,-1
 449.627929688 430.963867188 l 2,11,12
 450 0 450 0 56.2861328125 0 c 2,13,-1
 -6.9384765625 0 l 2,0,1
EndSplineSet
EndChar

StartChar: uniFEE0
Encoding: 65248 65248 235
GlifName: uniF_E_E_0
Width: 668
VWidth: 2950
GlyphClass: 2
Flags: W
AnchorPoint: "Anchor-7" 279.812 -238.234 basechar 0
AnchorPoint: "Anchor-10" 356.751 1527.45 basechar 0
LayerCount: 2
Fore
SplineSet
352.224609375 133.05078125 m 1,0,1
 261 0 261 0 62.5927734375 0 c 2,2,-1
 -6.9384765625 0 l 2,3,4
 -62.7783203125 0 -62.7783203125 0 -62.7783203125 86.3134765625 c 2,5,-1
 -62.7783203125 105.192382812 l 2,6,7
 -62.9999797429 179.993164062 -62.9999797429 179.993164062 -6.9384765625 179.993164062 c 2,8,-1
 65.109375 179.993164062 l 2,9,10
 283.081054688 179.968454011 283.081054688 179.968454011 283.081054688 393.180664062 c 2,11,-1
 283.081054688 1396.07617188 l 1,12,-1
 447.739257812 1396.07617188 l 1,13,-1
 447.739257812 393.192382812 l 2,14,15
 448.000008361 179.993164062 448.000008361 179.993164062 655.545898438 179.993164062 c 2,16,-1
 672.995117188 179.993164062 l 2,17,18
 694.80078125 179.999938112 694.80078125 179.999938112 694.80078125 105.174804688 c 2,19,-1
 694.80078125 86.2939453125 l 2,20,21
 695 0 695 0 672.993164062 0 c 2,22,-1
 658.065429688 0 l 2,23,24
 447 0 447 0 352.224609375 133.05078125 c 1,0,1
EndSplineSet
EndChar

StartChar: uniFEE2
Encoding: 65250 65250 237
GlifName: uniF_E_E_2
Width: 1266
VWidth: 2620
GlyphClass: 2
Flags: W
AnchorPoint: "Anchor-10" 711.239 1132.48 basechar 0
AnchorPoint: "Anchor-7" 738.983 -292.909 basechar 0
LayerCount: 2
Fore
SplineSet
1097.30664062 381.696289062 m 28,0,1
 1119.00010503 179.999023438 1119.00010503 179.999023438 1265.79492188 179.999023438 c 6,2,-1
 1281.18261719 179.999023438 l 6,3,4
 1299.26757812 180.000014666 1299.26757812 180.000014666 1299.26757812 105.174804688 c 6,5,-1
 1299.26757812 86.333984375 l 6,6,7
 1299 0 1299 0 1281.18652344 0 c 6,8,-1
 1265.49414062 0 l 6,9,10
 1103 0 1103 0 1035.97851562 102 c 5,11,12
 1019 80 1019 80 1001 63.5146484375 c 4,13,14
 923 -7 923 -7 796.20703125 -7.2431640625 c 4,15,16
 641 -7 641 -7 535.3515625 82.3974609375 c 4,17,18
 458 148 458 148 419.346679688 147.747070312 c 4,19,20
 267 146 267 146 267.751953125 -290.002929688 c 4,21,22
 268 -485 268 -485 281.634765625 -644.813476562 c 5,23,-1
 112.107421875 -644.813476562 l 1,24,25
 101 -473 101 -473 100.9765625 -316 c 0,26,27
 101 10 101 10 179.782226562 166.091796875 c 0,28,29
 260.039315984 324.077393278 260.039315984 324.077393278 388.060546875 346.029296875 c 6,30,-1
 389.381835938 346.255859375 l 5,31,-1
 389.673828125 347.564453125 l 6,32,33
 423 496 423 496 486.586914062 579.44921875 c 4,34,35
 586 709 586 709 747.333007812 709.532226562 c 4,36,37
 915 710 915 710 1020.86230469 576.84765625 c 4,38,39
 1084 498 1084 498 1097.30664062 381.696289062 c 28,0,1
780.724609375 166.75 m 4,40,41
 882 167 882 167 921.7421875 238.0625 c 4,42,43
 939 269 939 269 939.864257812 306.965820312 c 4,44,45
 941 356 941 356 921.57421875 405.76171875 c 4,46,47
 895 474 895 474 842.02734375 505.3359375 c 4,48,49
 802 529 802 529 750.611328125 529.158203125 c 4,50,51
 585.861873905 528.999867251 585.861873905 528.999867251 557.557617188 310.28515625 c 6,52,-1
 557.4609375 309.538085938 l 5,53,-1
 557.880859375 308.913085938 l 6,54,55
 653 167 653 167 780.724609375 166.75 c 4,40,41
EndSplineSet
EndChar

StartChar: uniFEE3
Encoding: 65251 65251 238
GlifName: uniF_E_E_3
Width: 1016
VWidth: 2950
GlyphClass: 2
Flags: W
AnchorPoint: "Anchor-10" 519.952 1114.2 basechar 0
AnchorPoint: "Anchor-7" 504.594 -237.063 basechar 0
LayerCount: 2
Fore
SplineSet
580.724609375 166.75 m 4,0,1
 682 167 682 167 721.7421875 238.0625 c 4,2,3
 739 269 739 269 739.864257812 306.965820312 c 4,4,5
 740.929216192 355.757030399 740.929216192 355.757030399 721.57421875 405.76171875 c 4,6,7
 695 474 695 474 642.02734375 505.3359375 c 4,8,9
 602 529 602 529 550.611328125 529.158203125 c 4,10,11
 385.861874071 528.999867251 385.861874071 528.999867251 357.557617188 310.28515625 c 6,12,-1
 357.4609375 309.538085938 l 5,13,-1
 357.880859375 308.913085938 l 6,14,15
 453 167 453 167 580.724609375 166.75 c 4,0,1
12.720703125 0 m 2,16,-1
 -8.1171875 0 l 2,17,18
 -62.7783203125 0 -62.7783203125 0 -62.7783203125 86.3134765625 c 2,19,-1
 -62.7783203125 105.198242188 l 2,20,21
 -62.9999797413 179.993164062 -62.9999797413 179.993164062 -8.1171875 179.993164062 c 2,22,-1
 8.3251953125 179.993164062 l 2,23,24
 153 180 153 180 189.673828125 347.564453125 c 4,25,26
 223 496 223 496 286.598632812 579.46484375 c 4,27,28
 384 709 384 709 547.333007812 709.532226562 c 4,29,30
 715 710 715 710 820.862304688 576.84765625 c 4,31,32
 903 474 903 474 902.474609375 309.612304688 c 4,33,34
 902 159 902 159 803 65.96484375 c 4,35,36
 726 -7 726 -7 585.20703125 -7.2431640625 c 4,37,38
 399 -7 399 -7 272.944335938 133.993164062 c 5,39,40
 185 0 185 0 12.720703125 0 c 2,16,-1
EndSplineSet
EndChar

StartChar: uniFEE4
Encoding: 65252 65252 239
GlifName: uniF_E_E_4
Width: 1073
VWidth: 2950
GlyphClass: 2
Flags: W
AnchorPoint: "Anchor-7" 504.594 -237.063 basechar 0
AnchorPoint: "Anchor-10" 523.952 1116.2 basechar 0
LayerCount: 2
Fore
SplineSet
580.724609375 166.75 m 4,0,1
 682 167 682 167 721.7421875 238.0625 c 4,2,3
 739 269 739 269 739.864257812 306.965820312 c 4,4,5
 740.929216192 355.757030399 740.929216192 355.757030399 721.57421875 405.76171875 c 4,6,7
 695 474 695 474 642.02734375 505.3359375 c 4,8,9
 602 529 602 529 550.611328125 529.158203125 c 4,10,11
 385.861874071 528.999867251 385.861874071 528.999867251 357.557617188 310.28515625 c 6,12,-1
 357.4609375 309.538085938 l 5,13,-1
 357.880859375 308.913085938 l 6,14,15
 453 167 453 167 580.724609375 166.75 c 4,0,1
835.978515625 102 m 5,16,17
 821 83 821 83 803 65.96484375 c 4,18,19
 726 -7 726 -7 585.20703125 -7.2431640625 c 4,20,21
 399 -7 399 -7 272.944335938 133.993164062 c 5,22,23
 185 0 185 0 12.720703125 0 c 2,24,-1
 -8.1171875 0 l 2,25,26
 -62.7783203125 0 -62.7783203125 0 -62.7783203125 86.3134765625 c 2,27,-1
 -62.7783203125 105.198242188 l 2,28,29
 -62.9999797413 179.993164062 -62.9999797413 179.993164062 -8.1171875 179.993164062 c 2,30,-1
 8.3251953125 179.993164062 l 2,31,32
 153 180 153 180 189.673828125 347.564453125 c 4,33,34
 223 496 223 496 286.598632812 579.46484375 c 4,35,36
 384 709 384 709 547.333007812 709.532226562 c 4,37,38
 715 710 715 710 820.862304688 576.84765625 c 4,39,40
 885 497 885 497 897.306640625 381.696289062 c 28,41,42
 919.000105034 179.999023438 919.000105034 179.999023438 1065.79492188 179.999023438 c 6,43,-1
 1081.18261719 179.999023438 l 6,44,45
 1099.26757812 180.000014666 1099.26757812 180.000014666 1099.26757812 105.174804688 c 6,46,-1
 1099.26757812 86.333984375 l 6,47,48
 1099 0 1099 0 1081.18652344 0 c 6,49,-1
 1065.49414062 0 l 6,50,51
 903 0 903 0 835.978515625 102 c 5,16,17
EndSplineSet
EndChar

StartChar: uniFEEA
Encoding: 65258 65258 245
GlifName: uniF_E_E_A_
Width: 1000
VWidth: 2950
GlyphClass: 2
Flags: W
AnchorPoint: "Anchor-10" 578.464 1117.36 basechar 0
AnchorPoint: "Anchor-7" 524.642 -236.09 basechar 0
LayerCount: 2
Fore
SplineSet
1004.9375 180.030273438 m 6,0,1
 1022.80859375 180.08203125 1022.80859375 180.08203125 1022.80859375 109.889648438 c 6,2,-1
 1022.80859375 86.2958984375 l 6,3,4
 1023 42 1023 42 1018.00976562 21.525390625 c 4,5,6
 1013 0 1013 0 1004.72753906 0 c 6,7,-1
 985.4609375 0 l 6,8,9
 725.30859375 0 725.30859375 0 675.677734375 346.255859375 c 6,10,-1
 655.344726562 488.111328125 l 6,11,12
 646 551 646 551 622.760742188 580.836914062 c 4,13,14
 599 612 599 612 559.935546875 612.033203125 c 4,15,16
 522 612 522 612 467.255859375 578.708984375 c 4,17,18
 396 537 396 537 354.530273438 472.174804688 c 4,19,20
 317 414 317 414 316.614257812 355.600585938 c 4,21,22
 316 217 316 217 479.806640625 200.728515625 c 4,23,24
 548 194 548 194 637.973632812 192.998046875 c 5,25,-1
 632.067382812 21.0009765625 l 5,26,27
 460 21 460 21 344.637695312 66.8544921875 c 4,28,29
 153 144 153 144 153.338867188 355.903320312 c 4,30,31
 153 549 153 549 343.362304688 704.431640625 c 4,32,33
 454 795 454 795 576.974609375 795.126953125 c 4,34,35
 708 795 708 795 758.365234375 722.453125 c 4,36,37
 780 692 780 692 794.548828125 645.245117188 c 4,38,39
 809 599 809 599 815.790039062 535.768554688 c 4,40,41
 845 288 845 288 881.866210938 238 c 4,42,43
 924.147460938 179.797851562 924.147460938 179.797851562 994.426757812 180 c 6,44,-1
 1004.9375 180.030273438 l 6,0,1
EndSplineSet
EndChar

StartChar: uniFEEB
Encoding: 65259 65259 246
GlifName: uniF_E_E_B_
Width: 1000
VWidth: 2950
GlyphClass: 2
Flags: W
AnchorPoint: "Anchor-10" 477.134 1290.79 basechar 0
AnchorPoint: "Anchor-7" 390.852 -239.953 basechar 0
LayerCount: 2
Fore
SplineSet
375.922851562 72.09375 m 5,0,1
 132 0 132 0 35.4453125 0 c 6,2,-1
 -6.9384765625 0 l 6,3,4
 -62.7783203125 0 -62.7783203125 0 -62.7783203125 86.3134765625 c 6,5,-1
 -62.7783203125 105.192382812 l 6,6,7
 -63 179.993164062 -63 179.993164062 -6.9384765625 179.993164062 c 6,8,-1
 173.90625 179.993164062 l 5,9,10
 106 226 106 226 106.629882812 457.633789062 c 4,11,12
 107 583 107 583 150.5625 632.829101562 c 4,13,14
 254 753 254 753 378 751.705078125 c 4,15,16
 489 751 489 751 599.767578125 645.25390625 c 4,17,18
 666 583 666 583 666.993164062 482.8203125 c 4,19,20
 667 318 667 318 554.522460938 232 c 4,21,22
 535 217 535 217 513.260742188 203.561523438 c 5,23,24
 534 200 534 200 554 196.133789062 c 4,25,26
 656 179 656 179 718 179.171875 c 4,27,28
 775 179 775 179 775.697265625 353.631835938 c 4,29,30
 776 491 776 491 684.466796875 598.061523438 c 4,31,32
 503 810 503 810 477.604492188 819.120117188 c 5,33,-1
 503.017578125 962.166015625 l 5,34,35
 881 643 881 643 923.16015625 367 c 4,36,37
 946 218 946 218 875.307617188 148 c 4,38,39
 767 41 767 41 688.580078125 40.529296875 c 4,40,41
 478 40 478 40 375.922851562 72.09375 c 5,0,1
482.104492188 328.8984375 m 4,42,43
 521 364 521 364 521.611328125 490.133789062 c 4,44,45
 522 551 522 551 504.215820312 570.374023438 c 4,46,47
 441 640 441 640 383.650390625 640.331054688 c 4,48,49
 283 640 283 640 227.893554688 552.125976562 c 4,50,51
 201 510 201 510 200.1875 453.861328125 c 4,52,53
 200 373 200 373 265.079101562 315.24609375 c 4,54,55
 292 291 292 291 326.145507812 274.81640625 c 4,56,57
 350 264 350 264 377.6640625 256.393554688 c 5,58,59
 427 279 427 279 482.104492188 328.8984375 c 4,42,43
EndSplineSet
EndChar

StartChar: uniFEEC
Encoding: 65260 65260 247
GlifName: uniF_E_E_C_
Width: 1000
VWidth: 2950
GlyphClass: 2
Flags: W
AnchorPoint: "Anchor-7" 553.16 -681.603 basechar 0
AnchorPoint: "Anchor-10" 532.648 1139.04 basechar 0
LayerCount: 2
Fore
SplineSet
606.796875 -291.251953125 m 1,0,1
 636.999937411 179.999023438 636.999937411 179.999023438 997.904296875 179.999023438 c 2,2,-1
 1019.85253906 179.999023438 l 2,3,4
 1037.93457031 179.999996479 1037.93457031 179.999996479 1037.93457031 105.174804688 c 2,5,-1
 1037.93457031 86.3330078125 l 2,6,7
 1038 0 1038 0 1019.85546875 0 c 2,8,-1
 995.525390625 0 l 2,9,10
 736 0 736 0 742.508789062 -356 c 0,11,12
 743 -382 743 -382 746.811523438 -471.997070312 c 1,13,14
 339 -461 339 -461 226.314453125 0 c 1,15,-1
 -6.9384765625 0 l 6,16,17
 -62.7783203125 0 -62.7783203125 0 -62.7783203125 86.3134765625 c 6,18,-1
 -62.7783203125 105.192382812 l 6,19,20
 -62.9999971061 179.999023438 -62.9999971061 179.999023438 -6.919921875 179.999023438 c 6,21,-1
 196 179.999023438 l 25,22,-1
 213.962890625 179.999023438 l 1,23,-1
 213.975585938 181.986328125 l 2,24,25
 218 808 218 808 540.5 808 c 0,26,27
 661 808 661 808 726.961914062 728.721679688 c 0,28,29
 798 642 798 642 798.58984375 494.979492188 c 0,30,31
 799 284 799 284 652.56640625 135.39453125 c 0,32,33
 543 24 543 24 385.5 -1.6337890625 c 1,34,35
 440 -208 440 -208 606.796875 -291.251953125 c 1,0,1
376.872070312 178.556640625 m 1,36,37
 640.999023438 215.190429688 640.999023438 215.190429688 641.1796875 501.802734375 c 0,38,39
 640.997070312 636.99609375 640.997070312 636.99609375 529.5546875 637.194335938 c 0,40,41
 378.004882812 636.997070312 378.004882812 636.997070312 376.877929688 180.859375 c 2,42,-1
 376.872070312 178.556640625 l 1,36,37
EndSplineSet
EndChar

StartChar: uniFEEE
Encoding: 65262 65262 249
GlifName: uniF_E_E_E_
Width: 1000
VWidth: 2142
GlyphClass: 2
Flags: W
AnchorPoint: "Anchor-10" 419.256 1142.2 basechar 0
AnchorPoint: "Anchor-7" 332.969 -675.998 basechar 0
LayerCount: 2
Fore
SplineSet
777.592773438 0 m 1,0,1
 760 -82 760 -82 739 -125.006835938 c 0,2,3
 598 -418 598 -418 117.046875 -465.592773438 c 1,4,-1
 87.650390625 -302.475585938 l 1,5,6
 528 -268 528 -268 608.123046875 0 c 1,7,-1
 550.192382812 0.8115234375 l 2,8,9
 120 7 120 7 120.004882812 332.353515625 c 0,10,11
 120 486 120 486 206.5625 595.634765625 c 0,12,13
 294 705 294 705 438.104492188 705.077148438 c 0,14,15
 632 705 632 705 717.076171875 531.661132812 c 0,16,17
 781 401 781 401 789 180 c 1,18,19
 789 180 789 180 1000.96191406 179.999023438 c 6,20,21
 1019.02539062 180.000001375 1019.02539062 180.000001375 1019.02539062 95.64453125 c 6,22,-1
 1019.02539062 86.2099609375 l 6,23,24
 1019 0 1019 0 1000.98828125 0 c 6,25,-1
 777.592773438 0 l 1,0,1
622.625976562 182.731445312 m 2,26,27
 600.534179688 525 600.534179688 525 437.401367188 525.124023438 c 0,28,29
 364 525 364 525 322.392578125 469.725585938 c 0,30,31
 283 416 283 416 283.159179688 344.564453125 c 0,32,33
 283 184.185546875 283 184.185546875 548.935546875 181.36328125 c 2,34,-1
 620.611328125 180.602539062 l 1,35,-1
 622.764648438 180.583007812 l 1,36,-1
 622.625976562 182.731445312 l 2,26,27
EndSplineSet
EndChar

StartChar: uniFEF0
Encoding: 65264 65264 251
GlifName: uniF_E_F_0
Width: 1000
VWidth: 2950
GlyphClass: 2
Flags: W
AnchorPoint: "Anchor-7" 369.902 -674.086 basechar 0
AnchorPoint: "Anchor-10" 331.6 742.22 basechar 0
LayerCount: 2
Fore
SplineSet
455.678710938 26.80859375 m 0,0,1
 436 50 436 50 421.776367188 111.14453125 c 0,2,3
 407 173 407 173 425.205078125 179.999023438 c 1,4,-1
 1009.43554688 179.999023438 l 2,5,6
 1027.51953125 179.999974725 1027.51953125 179.999974725 1027.51953125 105.174804688 c 2,7,-1
 1027.51953125 86.3193359375 l 2,8,9
 1028 0 1028 0 1009.45605469 0 c 2,10,-1
 947 0 l 0,11,-1
 856.647460938 0 l 1,12,13
 892 -45 892 -45 891.92578125 -106 c 0,14,15
 892 -139 892 -139 881.26953125 -178 c 0,16,17
 845 -307 845 -307 694.059570312 -385.234375 c 0,18,19
 536 -467 536 -467 435.326171875 -467.724609375 c 0,20,21
 245 -468 245 -468 95 -402.080078125 c 4,22,23
 -169 -286 -169 -286 -168.247070312 49.0400390625 c 4,24,25
 -168 178 -168 178 -112.541992188 341.122070312 c 5,26,-1
 45.9033203125 295.791992188 l 5,27,28
 3 147 3 147 3.2685546875 50.861328125 c 4,29,30
 3 -300 3 -300 442.40625 -297.203125 c 0,31,32
 613 -296 613 -296 706.58984375 -155.126953125 c 0,33,34
 730 -120 730 -120 729.836914062 -86.658203125 c 0,35,36
 727.990875475 0.430458307575 727.990875475 0.430458307575 596.373046875 0.7275390625 c 2,37,-1
 503.352539062 0.9375 l 1,38,39
 475 4 475 4 455.678710938 26.80859375 c 0,0,1
EndSplineSet
EndChar

StartChar: uniFEFB
Encoding: 65275 65275 262
GlifName: uniF_E_F_B_
Width: 1169
VWidth: 2950
GlyphClass: 3
Flags: W
AnchorPoint: "Anchor-9" 208.642 1507.64 baselig 1
AnchorPoint: "Anchor-6" 248.021 -244.333 baselig 1
AnchorPoint: "Anchor-6" 885.078 -240.55 baselig 0
AnchorPoint: "Anchor-9" 938.01 1563.61 baselig 0
LayerCount: 2
Fore
SplineSet
249.2421875 1343.10351562 m 5,0,1
 449.9765625 856.057617188 449.9765625 856.057617188 620.994140625 220.54296875 c 6,2,-1
 621.541015625 218.510742188 l 5,3,-1
 623.54296875 219.16015625 l 6,4,5
 859.057617188 296.018554688 859.057617188 296.018554688 859.17578125 637.975585938 c 6,6,-1
 859.4375 1396.28222656 l 5,7,-1
 1024.47070312 1396.28222656 l 5,8,-1
 1024.47070312 636.665039062 l 6,9,10
 1024 3 1024 3 356.337890625 3.1279296875 c 4,11,12
 220 3 220 3 135.040039062 18.34765625 c 5,13,-1
 135.041992188 195.61328125 l 5,14,15
 301.688476562 174.040039062 301.688476562 174.040039062 454.578125 184.28515625 c 6,16,-1
 457.055664062 184.451171875 l 5,17,-1
 456.365234375 186.8359375 l 6,18,19
 259 870 259 870 91.9609375 1250.86914062 c 5,20,-1
 249.2421875 1343.10351562 l 5,0,1
EndSplineSet
LCarets2: 1 0
Ligature2: "'rlig' Required Ligatures in Arabic lookup 16 subtable" uniFEDF uniFE8E
EndChar

StartChar: uniFEFC
Encoding: 65276 65276 263
GlifName: uniF_E_F_C_
Width: 1233
VWidth: 2950
GlyphClass: 3
Flags: W
AnchorPoint: "Anchor-9" 938.01 1563.61 baselig 0
AnchorPoint: "Anchor-9" 208.642 1507.64 baselig 1
AnchorPoint: "Anchor-6" 885.078 -240.55 baselig 0
AnchorPoint: "Anchor-6" 248.021 -244.333 baselig 1
LayerCount: 2
Fore
SplineSet
249.2421875 1343.10351562 m 1,0,1
 449 858 449 858 621.541015625 218.510742188 c 1,2,3
 859.057617188 296.018554688 859.057617188 296.018554688 859.17578125 637.975585938 c 2,4,-1
 859.4375 1396.28222656 l 1,5,-1
 1024.47070312 1396.28222656 l 1,6,-1
 1024.47070312 546.666015625 l 1,7,8
 1023 179.999023438 1023 179.999023438 1216.61425781 179.999023438 c 2,9,-1
 1242.09667969 179.999023438 l 2,10,11
 1260.1796875 180 1260.1796875 180 1260.1796875 105.174804688 c 2,12,-1
 1260.1796875 86.3271484375 l 2,13,14
 1260 0 1260 0 1242.09960938 0 c 2,15,-1
 1213.0859375 0 l 2,16,17
 981 0 981 0 915.790039062 228.717773438 c 1,18,19
 752 3 752 3 356.337890625 3.1279296875 c 0,20,21
 220 3 220 3 135.040039062 18.34765625 c 1,22,-1
 135.041992188 195.61328125 l 1,23,24
 302 174 302 174 457.055664062 184.451171875 c 1,25,26
 260 865 260 865 91.9609375 1250.86914062 c 1,27,-1
 249.2421875 1343.10351562 l 1,0,1
EndSplineSet
LCarets2: 1 0
Ligature2: "'rlig' Required Ligatures in Arabic lookup 16 subtable" uniFEE0 uniFE8E
EndChar

StartChar: arabic_dot
Encoding: 65536 -1 264
GlifName: arabic_dot
Width: 193
VWidth: 2646
GlyphClass: 2
Flags: W
LayerCount: 2
Fore
SplineSet
-29.9342735455 102.962895983 m 1,0,-1
 96.1210991078 229.019223767 l 1,1,-1
 222.934273545 102.20604933 l 1,2,-1
 96.8789008922 -23.850278455 l 1,3,-1
 -29.9342735455 102.962895983 l 1,0,-1
EndSplineSet
EndChar

StartChar: arabic_2dots
Encoding: 65537 -1 265
GlifName: arabic_2dots
Width: 494
VWidth: 2646
GlyphClass: 2
Flags: W
LayerCount: 2
Fore
SplineSet
262.474900816 102.962890656 m 1,0,-1
 388.530278796 229.019223767 l 1,1,-1
 515.343447875 102.206054688 l 1,2,-1
 389.287114702 -23.8502784862 l 1,3,-1
 262.474900816 102.962890656 l 1,0,-1
-21.343453233 102.962895983 m 1,4,-1
 104.71191942 229.019223767 l 1,5,-1
 231.525093858 102.20604933 l 1,6,-1
 105.469721204 -23.850278455 l 1,7,-1
 -21.343453233 102.962895983 l 1,4,-1
EndSplineSet
EndChar

StartChar: arabic_3dots
Encoding: 65538 -1 266
GlifName: arabic_3dots
Width: 494
VWidth: 2646
GlyphClass: 2
Flags: W
LayerCount: 2
Fore
SplineSet
123.746390349 314.940446135 m 1,0,-1
 246.621093816 437.81705878 l 1,1,-1
 370.253609553 314.182633602 l 1,2,-1
 247.378906283 191.308884921 l 1,3,-1
 123.746390349 314.940446135 l 1,0,-1
265.655575563 83.8486328125 m 1,4,-1
 388.530284359 206.723341608 l 1,5,-1
 512.163738467 83.0917969408 l 1,6,-1
 389.287120362 -39.7829119869 l 1,7,-1
 265.655575563 83.8486328125 l 1,4,-1
-18.1637439609 83.8486382401 m 1,8,-1
 104.71191949 206.723347101 l 1,9,-1
 228.345384586 83.0917914474 l 1,10,-1
 105.469721134 -39.7829174144 l 1,11,-1
 -18.1637439609 83.8486382401 l 1,8,-1
EndSplineSet
EndChar

StartChar: arabic_3dots_a
Encoding: 65539 -1 267
GlifName: arabic_3dots_a
Width: 494
VWidth: 2646
GlyphClass: 2
Flags: W
LayerCount: 2
Fore
SplineSet
123.746390349 -114.268571135 m 1,0,-1
 247.37890079 9.36298458571 l 1,1,-1
 370.253609586 -113.51172421 l 1,2,-1
 246.621099276 -237.14518924 l 1,3,-1
 123.746390349 -114.268571135 l 1,0,-1
265.655564609 116.822265592 m 1,4,-1
 389.287125822 240.454781526 l 1,5,-1
 512.163749389 117.580067138 l 1,6,-1
 388.530278931 -6.05340331939 l 1,7,-1
 265.655564609 116.822265592 l 1,4,-1
-18.1637549148 116.822260165 m 1,8,-1
 105.469726595 240.454786954 l 1,9,-1
 228.345395507 117.580072632 l 1,10,-1
 104.711914062 -6.05340881275 l 1,11,-1
 -18.1637549148 116.822260165 l 1,8,-1
EndSplineSet
EndChar

StartChar: uni066E.fina
Encoding: 65540 -1 268
GlifName: uni066E_.fina
Width: 1000
VWidth: 2950
GlyphClass: 2
Flags: W
AnchorPoint: "Anchor-10" 575.51 1425.59 basechar 0
AnchorPoint: "Anchor-7" 378.357 -259.261 basechar 0
LayerCount: 2
Fore
SplineSet
721.40234375 152.469726562 m 1,0,1
 587 0 587 0 434.356445312 0 c 2,2,-1
 430.911132812 0 l 6,3,4
 -323 0 -323 0 -323.83984375 253.875 c 4,5,6
 -324 523 -324 523 -296.510742188 645 c 1,7,-1
 -140.643554688 615 l 1,8,9
 -160.001860468 524.306280776 -160.001860468 524.306280776 -158.575195312 272.515625 c 0,10,11
 -158 181 -158 181 421.866210938 180.13671875 c 0,12,13
 500 180 500 180 628.225585938 284.419921875 c 0,14,15
 668.281630654 317.230689727 668.281630654 317.230689727 672.522460938 373.569335938 c 2,16,-1
 687.416992188 571.440429688 l 1,17,-1
 808.443359375 571.440429688 l 1,18,-1
 823.338867188 371.49609375 l 2,19,20
 838.000523366 179.993164062 838.000523366 179.993164062 1007.58984375 179.993164062 c 2,21,-1
 1015.66796875 179.993164062 l 2,22,23
 1033.74707031 179.999905684 1033.74707031 179.999905684 1033.74707031 96.322265625 c 2,24,-1
 1033.74707031 86.3349609375 l 2,25,26
 1034 0 1034 0 1015.66601562 0 c 2,27,-1
 1006.02246094 0 l 2,28,29
 801 0 801 0 721.40234375 152.469726562 c 1,0,1
EndSplineSet
EndChar

StartChar: uni06A1.fina
Encoding: 65543 -1 269
GlifName: uni06A_1.fina
Width: 1000
VWidth: 2950
GlyphClass: 2
Flags: W
AnchorPoint: "Anchor-10" 376.816 1571.03 basechar 0
AnchorPoint: "Anchor-7" 253.121 -311.592 basechar 0
LayerCount: 2
Fore
SplineSet
706.474609375 502.794921875 m 0,0,1
 599 590 599 590 493.780273438 504.29296875 c 0,2,3
 471 486 471 486 471.3984375 419 c 0,4,5
 472 354 472 354 526.924804688 291.327148438 c 0,6,7
 554 260 554 260 597.139648438 255.895507812 c 0,8,9
 642 252 642 252 671.981445312 290 c 0,10,11
 725 356 725 356 724.864257812 417.1640625 c 0,12,13
 725 488 725 488 706.474609375 502.794921875 c 0,0,1
787.146484375 189.430664062 m 1,14,15
 814.019465114 179.993164062 814.019465114 179.993164062 990.827148438 179.993164062 c 2,16,-1
 1023.37207031 179.993164062 l 2,17,18
 1041.44824219 180.000173824 1041.44824219 180.000173824 1041.44824219 105.174804688 c 2,19,-1
 1041.44824219 86.318359375 l 2,20,21
 1041 0 1041 0 1023.37011719 0 c 2,22,-1
 993.022460938 0 l 2,23,24
 718 0 718 0 595.680664062 90.880859375 c 1,25,26
 464 0 464 0 274.356445312 0 c 2,27,-1
 270.911132812 0 l 2,28,29
 -343 0 -343 0 -343.83984375 293.875 c 0,30,31
 -344 473 -344 473 -316.510742188 595 c 5,32,-1
 -160.643554688 565 l 5,33,34
 -179 479 -179 479 -178.575195312 312.515625 c 0,35,36
 -178 180 -178 180 264 180.134765625 c 0,37,38
 394 180 394 180 412.977539062 188.821289062 c 1,39,40
 302 283 302 283 301.481445312 416.116210938 c 0,41,42
 301 514 301 514 354.50390625 576.706054688 c 0,43,44
 460 701 460 701 599.216796875 700.41796875 c 0,45,46
 735 700 735 700 832.529296875 589.624023438 c 0,47,48
 895 519 895 519 894.979492188 418.610351562 c 0,49,50
 895 278 895 278 787.146484375 189.430664062 c 1,14,15
EndSplineSet
EndChar

StartChar: uni06A1.init
Encoding: 65544 -1 270
GlifName: uni06A_1.init
Width: 1000
VWidth: 2950
GlyphClass: 2
Flags: W
AnchorPoint: "Anchor-10" 607.443 1604.02 basechar 0
AnchorPoint: "Anchor-7" 487.886 -247.023 basechar 0
LayerCount: 2
Fore
SplineSet
771.184570312 530.057617188 m 2,0,1
 750.627929688 848.470703125 750.627929688 848.470703125 598.38671875 848.470703125 c 0,2,3
 515.268554688 848.470703125 515.268554688 848.470703125 473.411132812 764 c 0,4,5
 451.926757812 720.645507812 451.926757812 720.645507812 451.717773438 667.884765625 c 0,6,7
 452 533 452 533 687.479492188 528.689453125 c 0,8,9
 728.85546875 528.001953125 728.85546875 528.001953125 769.184570312 527.928710938 c 2,10,-1
 771.322265625 527.924804688 l 1,11,-1
 771.184570312 530.057617188 l 2,0,1
940.825195312 482 m 0,12,13
 941 293 941 293 880 196.8359375 c 0,14,15
 756 0 756 0 384.868164062 0 c 2,16,-1
 -6.9384765625 0 l 2,17,18
 -62.7783203125 0 -62.7783203125 0 -62.7783203125 86.3134765625 c 2,19,-1
 -62.7783203125 105.192382812 l 2,20,21
 -62.9999971061 179.999023438 -62.9999971061 179.999023438 -6.9384765625 179.999023438 c 2,22,-1
 396.008789062 179.999023438 l 2,23,24
 758 180 758 180 768.788085938 354.567382812 c 1,25,-1
 688.043945312 355.123046875 l 2,26,27
 288 358 288 358 288.5625 654.837890625 c 0,28,29
 289 769 289 769 336.442382812 859 c 0,30,31
 425 1028 425 1028 598.7734375 1028.40527344 c 0,32,33
 817 1028 817 1028 891.249023438 816.821289062 c 0,34,35
 941 676 941 676 940.825195312 482 c 0,12,13
EndSplineSet
EndChar

StartChar: uni06A1.medi
Encoding: 65545 -1 271
GlifName: uni06A_1.medi
Width: 1000
VWidth: 2950
GlyphClass: 2
Flags: W
AnchorPoint: "Anchor-10" 462.544 1386.06 basechar 0
AnchorPoint: "Anchor-7" 467.517 -247.023 basechar 0
LayerCount: 2
Fore
SplineSet
613.493164062 582.794921875 m 4,0,1
 506 670 506 670 400.798828125 584.29296875 c 4,2,3
 338 534 338 534 338.416992188 459 c 4,4,5
 339 394 339 394 393.943359375 331.327148438 c 4,6,7
 455 260 455 260 504.158203125 255.895507812 c 4,8,9
 556 252 556 252 619 330 c 4,10,11
 672 396 672 396 671.8828125 457.1640625 c 4,12,13
 672 536 672 536 613.493164062 582.794921875 c 4,0,1
502.69921875 90.880859375 m 5,14,15
 380 0 380 0 34.2099609375 0 c 2,16,-1
 -6.9384765625 0 l 2,17,18
 -62.7783203125 0 -62.7783203125 0 -62.7783203125 86.3134765625 c 2,19,-1
 -62.7783203125 105.192382812 l 2,20,21
 -62.999254269 179.748347012 -62.999254269 179.748347012 -6.9013671875 179.993164062 c 2,22,-1
 34.048828125 180.171875 l 2,23,24
 273 181 273 181 319.99609375 188.821289062 c 5,25,26
 169 315 169 315 168.5 456.116210938 c 4,27,28
 168 590 168 590 241.522460938 676.706054688 c 4,29,30
 347 801 347 801 506.235351562 800.41796875 c 4,31,32
 662 800 662 800 759.547851562 689.624023438 c 4,33,34
 842 595 842 595 841.998046875 458.610351562 c 4,35,36
 842 310 842 310 694.165039062 189.430664062 c 5,37,38
 723.02090139 179.993164062 723.02090139 179.993164062 987.845703125 179.993164062 c 2,39,-1
 1020.390625 179.993164062 l 2,40,41
 1038.46679688 180.00018121 1038.46679688 180.00018121 1038.46679688 105.174804688 c 2,42,-1
 1038.46679688 86.318359375 l 2,43,44
 1038 0 1038 0 1020.38867188 0 c 2,45,-1
 990.041015625 0 l 2,46,47
 625 0 625 0 502.69921875 90.880859375 c 5,14,15
EndSplineSet
EndChar

StartChar: uni066F.fina
Encoding: 65546 -1 272
GlifName: uni066F_.fina
Width: 1000
VWidth: 2950
GlyphClass: 2
Flags: W
AnchorPoint: "Anchor-10" -25.703 1207.41 basechar 0
AnchorPoint: "Anchor-7" 49.744 -854.409 basechar 0
LayerCount: 2
Fore
SplineSet
250.99609375 -467.998046875 m 0,0,1
 69 -467 69 -467 -69.00390625 -396.170898438 c 0,2,3
 -326 -263 -326 -263 -325.247070312 99.041015625 c 0,4,5
 -325 257 -325 257 -259.54296875 446.122070312 c 1,6,-1
 -101.09765625 400.791992188 l 1,7,8
 -155 233 -155 233 -154.731445312 100.861328125 c 0,9,10
 -154 -294 -154 -294 264.3984375 -296.201171875 c 24,11,12
 650 -298 650 -298 689.283203125 0.39453125 c 1,13,-1
 631.352539062 1.2060546875 l 2,14,15
 201 7 201 7 201.165039062 332.748046875 c 0,16,17
 201 486 201 486 287.72265625 596.029296875 c 0,18,19
 375 705 375 705 519.264648438 705.471679688 c 0,20,21
 712 706 712 706 798.236328125 532.055664062 c 0,22,23
 856 416 856 416 864.0703125 180.155273438 c 1,24,-1
 1004.03417969 179.999023438 l 6,25,26
 1010 180 1010 180 1013.47460938 172.217773438 c 4,27,28
 1019 158 1019 158 1019.78515625 147.147460938 c 4,29,30
 1022 105 1022 105 1022.12207031 104.174804688 c 6,31,-1
 1022.12207031 85.3212890625 l 6,32,33
 1022 62 1022 62 1019.71484375 36.9951171875 c 4,34,35
 1018 20 1018 20 1013.40039062 8.7275390625 c 4,36,37
 1008.9877495 -0.0242971033776 1008.9877495 -0.0242971033776 1004.1015625 0 c 6,38,-1
 859.166992188 0.720703125 l 1,39,-1
 857.364257812 0.732421875 l 1,40,-1
 857.166015625 -1.0595703125 l 2,41,42
 805 -471 805 -471 250.99609375 -467.998046875 c 0,0,1
703.786132812 183.125976562 m 2,43,44
 681.719726562 525.000976562 681.719726562 525.000976562 518.561523438 525.518554688 c 0,45,46
 445 525 445 525 403.552734375 470.120117188 c 0,47,48
 364 416 364 416 364.319335938 344.958984375 c 0,49,50
 363.999023438 184.58203125 363.999023438 184.58203125 630.095703125 181.7578125 c 2,51,-1
 701.771484375 180.997070312 l 1,52,-1
 703.924804688 180.977539062 l 1,53,-1
 703.786132812 183.125976562 l 2,43,44
EndSplineSet
EndChar

StartChar: arabic_gaf_bar
Encoding: 65550 -1 273
GlifName: arabic_gaf_bar
Width: 751
VWidth: 2765
GlyphClass: 2
Flags: W
LayerCount: 2
Fore
SplineSet
755.040039062 1872.6015625 m 1,0,-1
 48.15625 1567.45996094 l 1,1,-1
 48.15625 1682.86816406 l 1,2,-1
 755.040039062 1988.00683594 l 1,3,-1
 755.040039062 1872.6015625 l 1,0,-1
EndSplineSet
EndChar

StartChar: guillemotleft
Encoding: 171 171 283
GlifName: guillemotleft
Width: 1000
VWidth: 2316
Flags: W
LayerCount: 2
Fore
SplineSet
318.681640625 0.5234375 m 5,0,1
 7 463 7 463 7.05078125 526.83203125 c 4,2,3
 6 591 6 591 319.278320312 1014.22167969 c 5,4,-1
 514.555664062 1014.22167969 l 5,5,6
 205 591 205 591 205.157226562 525.7109375 c 4,7,8
 205 460 205 460 512.340820312 0.5234375 c 5,9,-1
 318.681640625 0.5234375 l 5,0,1
747.046875 0.5234375 m 5,10,11
 435 463 435 463 434.805664062 526.833007812 c 4,12,13
 434 591 434 591 747.64453125 1014.22167969 c 5,14,-1
 942.922851562 1014.22167969 l 5,15,16
 633 590 633 590 633.603515625 522.912109375 c 4,17,18
 634 459 634 459 940.708007812 0.5234375 c 5,19,-1
 747.046875 0.5234375 l 5,10,11
EndSplineSet
EndChar

StartChar: guillemotright
Encoding: 187 187 284
GlifName: guillemotright
Width: 1000
VWidth: 2316
Flags: W
LayerCount: 2
Fore
SplineSet
651.291992188 0.5234375 m 5,0,1
 651.291992188 0.5234375 651.291992188 0.5234375 457.6328125 0.5234375 c 5,2,3
 764.973632812 460 764.973632812 460 764.81640625 525.7109375 c 4,4,5
 764.973632812 591 764.973632812 591 455.41796875 1014.22167969 c 5,6,-1
 650.6953125 1014.22167969 l 5,7,8
 963.973632812 591 963.973632812 591 962.922851562 526.83203125 c 4,9,10
 962.973632812 463 962.973632812 463 651.291992188 0.5234375 c 5,0,1
222.926757812 0.5234375 m 5,11,-1
 29.265625 0.5234375 l 5,12,13
 335.973632812 459 335.973632812 459 336.370117188 522.912109375 c 4,14,15
 336.973632812 590 336.973632812 590 27.05078125 1014.22167969 c 5,16,-1
 222.329101562 1014.22167969 l 5,17,18
 535.973632812 591 535.973632812 591 535.16796875 526.833007812 c 4,19,20
 534.973632812 463 534.973632812 463 222.926757812 0.5234375 c 5,11,-1
EndSplineSet
EndChar

StartChar: NameMe.302
Encoding: 65562 -1 293
GlifName: N_ameM_e.302
Width: 1000
VWidth: 2950
Flags: W
LayerCount: 2
Fore
SplineSet
491.258789062 134.25 m 1,0,1
 399 0 399 0 21.625 0 c 2,2,-1
 -6.9384765625 0 l 2,3,4
 -62.7783203125 0 -62.7783203125 0 -62.7783203125 86.3134765625 c 2,5,-1
 -62.7783203125 105.192382812 l 2,6,7
 -62.9999797429 179.993164062 -62.9999797429 179.993164062 -6.9384765625 179.993164062 c 2,8,-1
 24.140625 179.993164062 l 2,9,10
 417.919921875 179.99999861 417.919921875 179.99999861 417.919921875 433.180664062 c 2,11,-1
 417.919921875 1141.66699219 l 1,12,-1
 586.772460938 1141.66699219 l 1,13,-1
 586.772460938 433.193359375 l 2,14,15
 587.000006143 179.993164062 587.000006143 179.993164062 982.400390625 179.993164062 c 6,16,-1
 992.509765625 179.993164062 l 6,17,18
 1021.65625 179.999920318 1021.65625 179.999920318 1021.65625 105.174804688 c 6,19,-1
 1021.65625 86.2763671875 l 6,20,21
 1022 0 1022 0 992.508789062 0 c 6,22,-1
 984.920898438 0 l 6,23,24
 586 0 586 0 491.258789062 134.25 c 1,0,1
EndSplineSet
EndChar

StartChar: NameMe.303
Encoding: 65563 -1 294
GlifName: N_ameM_e.303
Width: 1000
VWidth: 2950
Flags: W
LayerCount: 2
Fore
SplineSet
-6.9384765625 0 m 2,0,1
 -62.7783203125 0 -62.7783203125 0 -62.7783203125 86.3134765625 c 2,2,-1
 -62.7783203125 105.192382812 l 2,3,4
 -62.9999797429 179.993164062 -62.9999797429 179.993164062 -6.9384765625 179.993164062 c 2,5,-1
 50.515625 179.993164062 l 2,6,7
 653.345703125 180.000003922 653.345703125 180.000003922 653.345703125 396.663085938 c 6,8,-1
 653.345703125 1304.52832031 l 5,9,-1
 818.66015625 1304.52832031 l 5,10,-1
 818.66015625 390.963867188 l 6,11,12
 819 0 819 0 45.318359375 0 c 2,13,-1
 -6.9384765625 0 l 2,0,1
EndSplineSet
EndChar

StartChar: NameMe.65564
Encoding: 65564 -1 297
GlifName: N_ameM_e.65564
Width: 1000
VWidth: 2950
Flags: W
AnchorPoint: "Anchor-10" 186.697 1423.11 basechar 0
AnchorPoint: "Anchor-7" 246.078 -241.903 basechar 0
LayerCount: 2
Fore
SplineSet
1026.61816406 86.294921875 m 1,0,1
 1028 0 1028 0 1008.53710938 0 c 2,2,-1
 547.658203125 0 l 6,3,4
 96.283203125 0 96.283203125 0 96.283203125 436.395507812 c 6,5,-1
 96.283203125 1256.171875 l 5,6,-1
 261.598632812 1256.171875 l 5,7,-1
 261.598632812 438.447265625 l 6,8,9
 262.000010616 179.993164063 262.000010616 179.993164063 550.712890625 179.993164062 c 6,10,-1
 1008.5390625 179.993164062 l 2,11,12
 1026.61816406 179.999858609 1026.61816406 179.999858609 1026.61816406 105.174804688 c 2,13,-1
 1026.61816406 86.294921875 l 1,0,1
EndSplineSet
EndChar

StartChar: NameMe.65565
Encoding: 65565 -1 298
GlifName: N_ameM_e.65565
Width: 722
VWidth: 2953
Flags: W
LayerCount: 2
Fore
SplineSet
119.142578125 -285.494140625 m 1,0,1
 179 -298 179 -298 232.546875 -298.479492188 c 0,2,3
 366 -298 366 -298 419.99609375 -251.783203125 c 4,4,5
 474 -205 474 -205 473.924804688 -159.516601562 c 0,6,7
 474 -146 474 -146 463.859375 -139.69921875 c 0,8,9
 453.915547275 -132.942616314 453.915547275 -132.942616314 434.653320312 -132.456054688 c 2,10,-1
 334.79296875 -129.93359375 l 2,11,12
 230 -127 230 -127 229.629882812 -11.2490234375 c 0,13,14
 230 126 230 126 344.076171875 198.979492188 c 0,15,16
 432 255 432 255 587.9609375 255.979492188 c 1,17,-1
 578.760742188 133.991210938 l 1,18,19
 352.562591781 127.988392114 352.562591781 127.988392114 336.499023438 1.380859375 c 2,20,-1
 335.178710938 -9.025390625 l 1,21,-1
 334.901367188 -11.2099609375 l 1,22,-1
 337.103515625 -11.2763671875 l 1,23,-1
 448.302734375 -14.599609375 l 2,24,25
 562 -18 562 -18 583.831054688 -114.668945312 c 0,26,27
 589 -138 589 -138 588.856445312 -160.2109375 c 0,28,29
 589 -260 589 -260 487 -344 c 0,30,31
 395 -420 395 -420 225.575195312 -418.185546875 c 0,32,33
 206 -418 206 -418 185.5 -417 c 128,-1,34
 165 -416 165 -416 143.540039062 -413.220703125 c 0,35,36
 122 -411 122 -411 100.736328125 -407.182617188 c 1,37,-1
 119.142578125 -285.494140625 l 1,0,1
EndSplineSet
EndChar

StartChar: uni060D
Encoding: 1549 1549 299
Width: 1000
VWidth: 4038
Flags: W
LayerCount: 2
Fore
SplineSet
679.728515625 1461.15039062 m 5,0,-1
 827 1417.18457031 l 5,1,-1
 269 -211 l 5,2,-1
 122.16015625 -167.009765625 l 5,3,-1
 679.728515625 1461.15039062 l 5,0,-1
EndSplineSet
EndChar

StartChar: NameMe.65541
Encoding: 65541 -1 300
Width: 1000
VWidth: 2950
Flags: W
AnchorPoint: "Anchor-10" 621.384 1351 basechar 0
AnchorPoint: "Anchor-7" 573.422 -225.625 basechar 0
LayerCount: 2
Fore
SplineSet
78.673828125 0 m 2,0,-1
 -6.9384765625 0 l 2,1,2
 -62.7783203125 0 -62.7783203125 0 -62.7783203125 86.3134765625 c 2,3,-1
 -62.7783203125 105.182617188 l 2,4,5
 -62.9999797455 179.993164062 -62.9999797455 179.993164062 -6.9384765625 179.993164062 c 2,6,-1
 88.6845703125 179.993164062 l 2,7,8
 630 180 630 180 630.032226562 459.203125 c 4,9,10
 630 565 630 565 602.33984375 685.633789062 c 5,11,-1
 765.419921875 715.629882812 l 5,12,13
 792 579 792 579 791.642578125 462.950195312 c 4,14,15
 792 0 792 0 78.673828125 0 c 2,0,-1
EndSplineSet
EndChar

StartChar: NameMe.65542
Encoding: 65542 -1 301
Width: 1000
VWidth: 2950
Flags: W
AnchorPoint: "Anchor-10" 555.665 1295.09 basechar 0
AnchorPoint: "Anchor-7" 570.537 -179.742 basechar 0
LayerCount: 2
Fore
SplineSet
582.668945312 132.932617188 m 5,0,1
 489 0 489 0 75.759765625 0 c 2,2,-1
 -8.1171875 0 l 2,3,4
 -62.7783203125 0 -62.7783203125 0 -62.7783203125 86.3134765625 c 2,5,-1
 -62.7783203125 105.192382812 l 2,6,7
 -62.9999797429 179.993164062 -62.9999797429 179.993164062 -8.1171875 179.993164062 c 2,8,-1
 71.0126953125 179.993164062 l 2,9,10
 486.936114746 179.99999895 486.936114746 179.99999895 501.506835938 373.569335938 c 6,11,-1
 516.401367188 571.440429688 l 5,12,-1
 637.427734375 571.440429688 l 5,13,-1
 652.323242188 371.49609375 l 6,14,15
 667.000523924 179.993164062 667.000523924 179.993164062 996.57421875 179.993164062 c 2,16,-1
 1004.65234375 179.993164062 l 2,17,18
 1022.73144531 179.999899942 1022.73144531 179.999899942 1022.73144531 96.322265625 c 2,19,-1
 1022.73144531 86.3408203125 l 2,20,21
 1023 0 1023 0 1004.65039062 0 c 2,22,-1
 995.006835938 0 l 2,23,24
 653 0 653 0 582.668945312 132.932617188 c 5,0,1
EndSplineSet
EndChar
